SplineFontDB: 3.2
FontName: BungeePop
FullName: Bungee Pop
FamilyName: Bungee Pop
Weight: Book
Copyright: Copyright 2008 The Bungee Project Authors (david@djr.com)
Version: 1.000;PS 1.0;hotconv 1.0.72;makeotf.lib2.5.5900
ItalicAngle: 0
UnderlinePosition: 0
UnderlineWidth: 0
Ascent: 860
Descent: 140
InvalidEm: 0
sfntRevision: 0x00010000
LayerCount: 2
Layer: 0 1 "Back" 1
Layer: 1 1 "Fore" 0
XUID: [1021 538 1074316011 7743460]
StyleMap: 0x0040
FSType: 0
OS2Version: 3
OS2_WeightWidthSlopeOnly: 0
OS2_UseTypoMetrics: 0
CreationTime: 1454444018
ModificationTime: 1704265269
PfmFamily: 81
TTFWeight: 400
TTFWidth: 5
LineGap: 200
VLineGap: 0
Panose: 0 0 0 0 0 0 0 0 0 0
OS2TypoAscent: 860
OS2TypoAOffset: 0
OS2TypoDescent: -140
OS2TypoDOffset: 0
OS2TypoLinegap: 200
OS2WinAscent: 1634
OS2WinAOffset: 0
OS2WinDescent: 914
OS2WinDOffset: 0
HheadAscent: 860
HheadAOffset: 0
HheadDescent: -140
HheadDOffset: 0
OS2SubXSize: 650
OS2SubYSize: 600
OS2SubXOff: 0
OS2SubYOff: 75
OS2SupXSize: 650
OS2SupYSize: 600
OS2SupXOff: 0
OS2SupYOff: 350
OS2StrikeYSize: 0
OS2StrikeYPos: 300
OS2CapHeight: 720
OS2XHeight: 500
OS2Vendor: 'djr '
OS2CodePages: 20000193.00000000
OS2UnicodeRanges: 20000007.00000001.00000000.00000000
Lookup: 1 0 0 "'locl' Localized Forms in Latin lookup 0" { "'locl' Localized Forms in Latin lookup 0 subtable"  } ['locl' ('latn' <'ROM ' > ) ]
Lookup: 6 0 0 "'locl' Localized Forms in Latin lookup 1" { "'locl' Localized Forms in Latin lookup 1 contextual 0"  "'locl' Localized Forms in Latin lookup 1 contextual 1"  } ['locl' ('latn' <'CAT ' > ) ]
Lookup: 6 0 0 "'ordn' Ordinals in Latin lookup 2" { "'ordn' Ordinals in Latin lookup 2 contextual 0"  "'ordn' Ordinals in Latin lookup 2 contextual 1"  } ['ordn' ('DFLT' <'dflt' > 'latn' <'CAT ' 'ROM ' 'dflt' > ) ]
Lookup: 1 0 0 "'sups' Superscript in Latin lookup 3" { "'sups' Superscript in Latin lookup 3 subtable" ("superior") } ['sups' ('DFLT' <'dflt' > 'latn' <'CAT ' 'ROM ' 'dflt' > ) ]

StartChar: .notdef
Encoding: 65536 -1 0
Width: 1100
Flags: W
LayerCount: 2
Fore
SplineSet
850 -159 m 2,0,-1
 122 -159 l 2,1,2
 98 -159 98 -159 87 -148 c 128,-1,3
 76 -137 76 -137 76 -113 c 2,4,-1
 76 615 l 2,5,6
 76 628 76 628 79.5 637 c 128,-1,7
 83 646 83 646 90 652 c 2,8,-1
 219 761 l 2,9,10
 224 765 224 765 232.5 767.5 c 128,-1,11
 241 770 241 770 251 770 c 2,12,-1
 979 770 l 2,13,14
 1003 770 1003 770 1014 759 c 128,-1,15
 1025 748 1025 748 1025 724 c 2,16,-1
 1025 -4 l 2,17,18
 1025 -17 1025 -17 1021.5 -26 c 128,-1,19
 1018 -35 1018 -35 1011 -41 c 2,20,-1
 881 -149 l 2,21,22
 877 -153 877 -153 868.5 -156 c 128,-1,23
 860 -159 860 -159 850 -159 c 2,0,-1
1015 -4 m 2,24,-1
 1015 724 l 2,25,26
 1015 743 1015 743 1006.5 751.5 c 128,-1,27
 998 760 998 760 979 760 c 2,28,-1
 251 760 l 2,29,30
 232 760 232 760 223.5 751.5 c 128,-1,31
 215 743 215 743 215 724 c 2,32,-1
 215 -4 l 2,33,34
 215 -23 215 -23 223.5 -31.5 c 128,-1,35
 232 -40 232 -40 251 -40 c 2,36,-1
 979 -40 l 2,37,38
 998 -40 998 -40 1006.5 -31.5 c 128,-1,39
 1015 -23 1015 -23 1015 -4 c 2,24,-1
235 -20 m 1,40,-1
 235 740 l 1,41,-1
 995 740 l 1,42,-1
 995 -20 l 1,43,-1
 235 -20 l 1,40,-1
985 -10 m 1,44,-1
 985 730 l 1,45,-1
 245 730 l 1,46,-1
 245 -10 l 1,47,-1
 985 -10 l 1,44,-1
965 10 m 1,48,-1
 265 10 l 1,49,-1
 265 710 l 1,50,-1
 965 710 l 1,51,-1
 965 10 l 1,48,-1
826 591 m 1,52,-1
 275 591 l 1,53,-1
 275 20 l 1,54,-1
 826 20 l 1,55,-1
 826 591 l 1,52,-1
EndSplineSet
Validated: 1
EndChar

StartChar: exclam
Encoding: 33 33 4
Width: 524
GlyphClass: 2
Flags: W
LayerCount: 2
Fore
SplineSet
291 -119 m 2,0,-1
 107 -119 l 2,1,2
 83 -119 83 -119 72 -108 c 128,-1,3
 61 -97 61 -97 61 -73 c 2,4,-1
 61 58 l 2,5,6
 61 71 61 71 64.5 80.5 c 128,-1,7
 68 90 68 90 74 95 c 2,8,-1
 132 143 l 1,9,-1
 121 143 l 2,10,11
 97 143 97 143 86 154 c 128,-1,12
 75 165 75 165 74 189 c 2,13,-1
 59 574 l 2,14,15
 58 588 58 588 61.5 597.5 c 128,-1,16
 65 607 65 607 72 613 c 2,17,-1
 201 721 l 2,18,19
 206 725 206 725 214 727.5 c 128,-1,20
 222 730 222 730 232 730 c 2,21,-1
 423 730 l 2,22,23
 447 730 447 730 457.5 719 c 128,-1,24
 468 708 468 708 467 684 c 2,25,-1
 453 297 l 2,26,27
 452 285 452 285 448.5 276.5 c 128,-1,28
 445 268 445 268 439 262 c 2,29,-1
 380 213 l 1,30,-1
 420 213 l 2,31,32
 444 213 444 213 455 202.5 c 128,-1,33
 466 192 466 192 466 167 c 2,34,-1
 466 36 l 2,35,36
 466 23 466 23 462.5 14 c 128,-1,37
 459 5 459 5 453 -1 c 2,38,-1
 323 -109 l 2,39,40
 318 -113 318 -113 309.5 -116 c 128,-1,41
 301 -119 301 -119 291 -119 c 2,0,-1
405 262 m 2,42,43
 424 262 424 262 433 270.5 c 128,-1,44
 442 279 442 279 443 298 c 2,45,-1
 457 684 l 2,46,47
 458 703 458 703 450 711.5 c 128,-1,48
 442 720 442 720 423 720 c 2,49,-1
 232 720 l 2,50,51
 213 720 213 720 205 711.5 c 128,-1,52
 197 703 197 703 198 684 c 2,53,-1
 213 298 l 2,54,55
 214 279 214 279 222.5 270.5 c 128,-1,56
 231 262 231 262 250 262 c 2,57,-1
 405 262 l 2,42,43
323 630 m 1,58,-1
 333 630 l 1,59,-1
 333 352 l 1,60,-1
 323 352 l 1,61,-1
 323 630 l 1,58,-1
420 0 m 2,62,63
 439 0 439 0 447.5 8.5 c 128,-1,64
 456 17 456 17 456 36 c 2,65,-1
 456 167 l 2,66,67
 456 186 456 186 447.5 194.5 c 128,-1,68
 439 203 439 203 420 203 c 2,69,-1
 236 203 l 2,70,71
 217 203 217 203 208.5 194.5 c 128,-1,72
 200 186 200 186 200 167 c 2,73,-1
 200 36 l 2,74,75
 200 17 200 17 208.5 8.5 c 128,-1,76
 217 0 217 0 236 0 c 2,77,-1
 420 0 l 2,62,63
333 80 m 1,78,-1
 323 80 l 1,79,-1
 323 123 l 1,80,-1
 333 123 l 1,81,-1
 333 80 l 1,78,-1
EndSplineSet
Validated: 33
Substitution2: "'ss01' Style Set 1 in Latin lookup 22 subtable" exclam.v
Substitution2: "'vert' Vertical Alternates in Latin lookup 21 subtable" exclam.v
EndChar

StartChar: quotedbl
Encoding: 34 34 5
Width: 746
GlyphClass: 2
Flags: W
LayerCount: 2
Fore
SplineSet
356 345 m 2,0,1
 382 345 382 345 389.5 352.5 c 128,-1,2
 397 360 397 360 398 386 c 2,3,-1
 406 679 l 2,4,5
 407 705 407 705 399.5 712.5 c 128,-1,6
 392 720 392 720 367 720 c 2,7,-1
 202 720 l 2,8,9
 176 720 176 720 168.5 712.5 c 128,-1,10
 161 705 161 705 162 679 c 2,11,-1
 170 386 l 2,12,13
 171 360 171 360 178.5 352.5 c 128,-1,14
 186 345 186 345 212 345 c 2,15,-1
 356 345 l 2,0,1
666 345 m 2,16,17
 692 345 692 345 699.5 352.5 c 128,-1,18
 707 360 707 360 708 386 c 2,19,-1
 716 679 l 2,20,21
 717 705 717 705 709.5 712.5 c 128,-1,22
 702 720 702 720 677 720 c 2,23,-1
 512 720 l 2,24,25
 486 720 486 720 478.5 712.5 c 128,-1,26
 471 705 471 705 472 679 c 2,27,-1
 480 386 l 2,28,29
 481 360 481 360 488.5 352.5 c 128,-1,30
 496 345 496 345 522 345 c 2,31,-1
 666 345 l 2,16,17
589 630 m 1,32,-1
 599 630 l 1,33,-1
 599 435 l 1,34,-1
 589 435 l 1,35,-1
 589 630 l 1,32,-1
279 630 m 1,36,-1
 289 630 l 1,37,-1
 289 435 l 1,38,-1
 279 435 l 1,39,-1
 279 630 l 1,36,-1
266 235 m 2,40,41
 260 231 260 231 251 228.5 c 128,-1,42
 242 226 242 226 227 226 c 2,43,-1
 83 226 l 2,44,45
 51 226 51 226 41.5 235 c 128,-1,46
 32 244 32 244 31 277 c 2,47,-1
 23 569 l 2,48,49
 22 588 22 588 24.5 597.5 c 128,-1,50
 27 607 27 607 34 613 c 2,51,-1
 164 722 l 2,52,53
 169 726 169 726 178.5 728 c 128,-1,54
 188 730 188 730 202 730 c 2,55,-1
 367 730 l 2,56,57
 399 730 399 730 408 721 c 128,-1,58
 417 712 417 712 416 679 c 2,59,-1
 416 673 l 1,60,-1
 474 722 l 2,61,62
 479 726 479 726 488.5 728 c 128,-1,63
 498 730 498 730 512 730 c 2,64,-1
 677 730 l 2,65,66
 709 730 709 730 718 721 c 128,-1,67
 727 712 727 712 726 679 c 2,68,-1
 718 385 l 2,69,70
 717 368 717 368 714 358.5 c 128,-1,71
 711 349 711 349 705 343 c 2,72,-1
 576 235 l 2,73,74
 570 231 570 231 561 228.5 c 128,-1,75
 552 226 552 226 537 226 c 2,76,-1
 393 226 l 2,77,78
 361 226 361 226 351.5 235 c 128,-1,79
 342 244 342 244 341 277 c 2,80,-1
 341 298 l 1,81,-1
 266 235 l 2,40,41
EndSplineSet
Validated: 33
Substitution2: "'ss01' Style Set 1 in Latin lookup 22 subtable" quotedbl.v
Substitution2: "'vert' Vertical Alternates in Latin lookup 21 subtable" quotedbl.v
EndChar

StartChar: numbersign
Encoding: 35 35 6
Width: 850
GlyphClass: 2
Flags: W
LayerCount: 2
Fore
SplineSet
649 495 m 1,0,-1
 370 495 l 1,1,-1
 332 230 l 1,2,-1
 611 230 l 1,3,-1
 649 495 l 1,0,-1
554 411 m 1,4,-1
 540 314 l 1,5,-1
 427 314 l 1,6,-1
 441 411 l 1,7,-1
 554 411 l 1,4,-1
302 90 m 1,8,-1
 321 220 l 1,9,-1
 240 220 l 1,10,-1
 240 230 l 1,11,-1
 322 230 l 1,12,-1
 360 495 l 1,13,-1
 276 495 l 1,14,-1
 276 505 l 1,15,-1
 361 505 l 1,16,-1
 379 630 l 1,17,-1
 389 630 l 1,18,-1
 371 505 l 1,19,-1
 650 505 l 1,20,-1
 668 630 l 1,21,-1
 678 630 l 1,22,-1
 660 505 l 1,23,-1
 740 505 l 1,24,-1
 740 495 l 1,25,-1
 659 495 l 1,26,-1
 621 230 l 1,27,-1
 704 230 l 1,28,-1
 704 220 l 1,29,-1
 620 220 l 1,30,-1
 601 90 l 1,31,-1
 591 90 l 1,32,-1
 610 220 l 1,33,-1
 331 220 l 1,34,-1
 312 90 l 1,35,-1
 302 90 l 1,8,-1
387 36 m 2,36,-1
 401 135 l 1,37,-1
 514 135 l 1,38,-1
 500 36 l 2,39,40
 498 17 498 17 507.5 8.5 c 128,-1,41
 517 0 517 0 536 0 c 2,42,-1
 641 0 l 2,43,44
 660 0 660 0 667.5 8.5 c 128,-1,45
 675 17 675 17 677 36 c 2,46,-1
 691 135 l 1,47,-1
 758 135 l 2,48,49
 777 135 777 135 785.5 143.5 c 128,-1,50
 794 152 794 152 794 171 c 2,51,-1
 794 278 l 2,52,53
 794 297 794 297 785.5 305.5 c 128,-1,54
 777 314 777 314 758 314 c 2,55,-1
 717 314 l 1,56,-1
 731 411 l 1,57,-1
 794 411 l 2,58,59
 813 411 813 411 821.5 419.5 c 128,-1,60
 830 428 830 428 830 447 c 2,61,-1
 830 554 l 2,62,63
 830 573 830 573 821.5 581.5 c 128,-1,64
 813 590 813 590 794 590 c 2,65,-1
 757 590 l 1,66,-1
 770 684 l 2,67,68
 772 703 772 703 762.5 711.5 c 128,-1,69
 753 720 753 720 734 720 c 2,70,-1
 629 720 l 2,71,72
 610 720 610 720 602.5 711.5 c 128,-1,73
 595 703 595 703 593 684 c 2,74,-1
 580 590 l 1,75,-1
 467 590 l 1,76,-1
 480 684 l 2,77,78
 482 703 482 703 472.5 711.5 c 128,-1,79
 463 720 463 720 444 720 c 2,80,-1
 339 720 l 2,81,82
 320 720 320 720 312.5 711.5 c 128,-1,83
 305 703 305 703 303 684 c 2,84,-1
 290 590 l 1,85,-1
 222 590 l 2,86,87
 203 590 203 590 194.5 581.5 c 128,-1,88
 186 573 186 573 186 554 c 2,89,-1
 186 447 l 2,90,91
 186 428 186 428 194.5 419.5 c 128,-1,92
 203 411 203 411 222 411 c 2,93,-1
 264 411 l 1,94,-1
 250 314 l 1,95,-1
 186 314 l 2,96,97
 167 314 167 314 158.5 305.5 c 128,-1,98
 150 297 150 297 150 278 c 2,99,-1
 150 171 l 2,100,101
 150 152 150 152 158.5 143.5 c 128,-1,102
 167 135 167 135 186 135 c 2,103,-1
 224 135 l 1,104,-1
 210 36 l 2,105,106
 208 17 208 17 217.5 8.5 c 128,-1,107
 227 0 227 0 246 0 c 2,108,-1
 351 0 l 2,109,110
 370 0 370 0 377.5 8.5 c 128,-1,111
 385 17 385 17 387 36 c 2,36,-1
776.34702809 342.479600734 m 1,112,113
 823.996078211 333.911580484 823.996078211 333.911580484 823.996078211 278 c 2,114,-1
 823.996078211 171 l 2,115,116
 823.996078211 136.797899912 823.996078211 136.797899912 802.863877907 118.684585366 c 2,117,-1
 707.716002905 38.6096410581 l 1,118,-1
 706.777905289 32.0455656181 l 2,119,120
 701.246021711 -3.9160884715 701.246021711 -3.9160884715 683.183170952 -16.8906368388 c 0,121,122
 554.485706465 -125.635006057 554.485706465 -125.635006057 554.044262157 -125.933616048 c 0,123,124
 545.082078322 -131.995983555 545.082078322 -131.995983555 535.281945804 -135.496030883 c 128,-1,125
 525.481813286 -138.996078211 525.481813286 -138.996078211 512 -138.996078211 c 2,126,-1
 407 -138.996078211 l 2,127,128
 373.203458766 -138.996078211 373.203458766 -138.996078211 355.426459418 -121.219821574 c 0,129,130
 340.400058651 -106.193420808 340.400058651 -106.193420808 340.400058651 -81.161477778 c 0,131,132
 340.400058651 -77.1254725121 340.400058651 -77.1254725121 342.698799687 -59.9973327629 c 1,133,134
 263.537944573 -126.348846011 263.537944573 -126.348846011 263.083189303 -126.652016191 c 0,135,136
 244.567096273 -138.996078211 244.567096273 -138.996078211 222 -138.996078211 c 2,137,-1
 117 -138.996078211 l 2,138,139
 83.2034587661 -138.996078211 83.2034587661 -138.996078211 65.4264594176 -121.219821574 c 0,140,141
 50.4000586513 -106.193420808 50.4000586513 -106.193420808 50.4000586513 -81.161477778 c 0,142,143
 50.4000586513 -75.5052314352 50.4000586513 -75.5052314352 60.0951855301 -3.99607821081 c 1,144,-1
 57 -3.99607821081 l 2,145,146
 -8.99607821081 -3.99607821081 -8.99607821081 -3.99607821081 -8.99607821081 62 c 2,147,-1
 -8.99607821081 169 l 2,148,149
 -8.99607821081 203.201312844 -8.99607821081 203.201312844 12.1798914828 221.35214401 c 2,150,-1
 74.5496109576 273.539052142 l 1,151,152
 27.0039217892 282.150170496 27.0039217892 282.150170496 27.0039217892 338 c 2,153,-1
 27.0039217892 445 l 2,154,155
 27.0039217892 479.204457088 27.0039217892 479.204457088 47.9970605106 497.198575992 c 0,156,157
 95.9527224714 537.161627626 95.9527224714 537.161627626 144.014928119 577.21472701 c 1,158,-1
 144.090895022 577.898429135 l 2,159,160
 146.782725861 611.726088717 146.782725861 611.726088717 166.17559475 628.348547765 c 2,161,-1
 295.17559475 736.348547765 l 2,162,163
 312.220888248 749.996078211 312.220888248 749.996078211 339 749.996078211 c 2,164,-1
 444 749.996078211 l 2,165,166
 477.796541234 749.996078211 477.796541234 749.996078211 495.573540582 732.219821574 c 0,167,168
 510.599941349 717.193420808 510.599941349 717.193420808 510.599941349 692.161477778 c 0,169,170
 510.599941349 688.161914603 510.599941349 688.161914603 508.423144851 672.060171642 c 1,171,-1
 585.171997969 736.345535792 l 2,172,173
 602.2207602 749.996078211 602.2207602 749.996078211 629 749.996078211 c 2,174,-1
 734 749.996078211 l 2,175,176
 767.796541234 749.996078211 767.796541234 749.996078211 785.573540582 732.219821574 c 0,177,178
 800.599941349 717.193420808 800.599941349 717.193420808 800.599941349 692.161477778 c 0,179,180
 800.599941349 686.248031195 800.599941349 686.248031195 791.090427343 619.996078211 c 1,181,-1
 794 619.996078211 l 2,182,183
 859.996078211 619.996078211 859.996078211 619.996078211 859.996078211 554 c 2,184,-1
 859.996078211 447 l 2,185,186
 859.996078211 412.799011451 859.996078211 412.799011451 838.80484764 394.635099533 c 2,187,-1
 776.34702809 342.479600734 l 1,112,113
490.603863138 692.161477778 m 0,188,189
 490.603863138 730 490.603863138 730 444 730 c 2,190,-1
 339 730 l 2,191,192
 319.315016333 730 319.315016333 730 307.910233805 720.924846907 c 0,193,194
 178.237431057 612.361570187 178.237431057 612.361570187 177.225343141 611.349482271 c 0,195,196
 165.878463734 600.002602865 165.878463734 600.002602865 164.012417972 576.160038651 c 2,197,-1
 163.443934077 570.99540669 l 2,198,199
 162.99961512 566.996536082 162.99961512 566.996536082 159.902079951 564.418399959 c 0,200,201
 60.0765330202 481.230444184 60.0765330202 481.230444184 58.9508579838 480.104769147 c 0,202,203
 47 468.153911163 47 468.153911163 47 445 c 2,204,-1
 47 338 l 2,205,206
 47 313.490172625 47 313.490172625 57.7450173753 302.745069151 c 128,-1,207
 68.4900004281 292 68.4900004281 292 93 292 c 2,208,-1
 100.24771539 292 l 2,209,210
 104.391811908 292 104.391811908 292 107.623064508 288.7687474 c 128,-1,211
 110.854317108 285.537494801 110.854317108 285.537494801 110.854317108 282.001960895 c 0,212,213
 110.854317108 277.833191765 110.854317108 277.833191765 106.657769649 274.32588889 c 0,214,215
 24.1389692788 205.279545723 24.1389692788 205.279545723 23.0164797105 204.157056155 c 0,216,217
 11 192.140576444 11 192.140576444 11 169 c 2,218,-1
 11 62 l 2,219,220
 11 37.4901726251 11 37.4901726251 21.7450173753 26.7450691512 c 128,-1,221
 32.4900004281 16 32.4900004281 16 57 16 c 2,222,-1
 71.54539193 16 l 2,223,224
 75.6894884484 16 75.6894884484 16 78.6164597419 13.0730287065 c 128,-1,225
 81.5591105523 10.1303778961 81.5591105523 10.1303778961 81.5591105523 7.78197546876 c 128,-1,226
 81.5591105523 5.43357304146 81.5591105523 5.43357304146 76.5666141171 -31.1824919228 c 0,227,228
 71.2644866907 -70.0694585569 71.2644866907 -70.0694585569 70.3961368621 -81.161477778 c 0,229,230
 70.3961368621 -119 70.3961368621 -119 117 -119 c 2,231,-1
 222 -119 l 2,232,233
 238.244508754 -119 238.244508754 -119 251.561350324 -110.289670698 c 2,234,-1
 349.850399604 -27.9051746491 l 2,235,236
 353.185945821 -25.1093668135 353.185945821 -25.1093668135 356.564358829 -25.1093668135 c 128,-1,237
 359.942771837 -25.1093668135 359.942771837 -25.1093668135 363.113078357 -28.2796733336 c 128,-1,238
 366.283384877 -31.4499798536 366.283384877 -31.4499798536 366.283384877 -33.8197785153 c 128,-1,239
 366.283384877 -36.1895771771 366.283384877 -36.1895771771 363.339760869 -56.159832776 c 128,-1,240
 360.396136862 -76.1300883749 360.396136862 -76.1300883749 360.396136862 -81.161477778 c 0,241,242
 360.396136862 -119 360.396136862 -119 407 -119 c 2,243,-1
 512 -119 l 2,244,245
 522 -119 522 -119 528.872454354 -116.545552016 c 128,-1,246
 535.744908709 -114.091104033 535.744908709 -114.091104033 542.421622606 -109.64374524 c 2,247,-1
 674.015179112 1.48921156046 l 2,248,249
 683.256975404 10.7310078532 683.256975404 10.7310078532 686.991961459 34.9478147658 c 2,250,-1
 688.46128439 45.2289906197 l 2,251,252
 689.000680965 49.0032671443 689.000680965 49.0032671443 691.926184154 51.4626302283 c 0,253,254
 790.906627899 134.763003677 790.906627899 134.763003677 791.999176924 135.855552703 c 0,255,256
 804 147.856375778 804 147.856375778 804 171 c 2,257,-1
 804 278 l 2,258,259
 804 302.509827375 804 302.509827375 793.254982625 313.254930849 c 128,-1,260
 782.509999572 324 782.509999572 324 758 324 c 2,261,-1
 750.587701177 324 l 2,262,263
 746.443604658 324 746.443604658 324 743.212352058 327.2312526 c 128,-1,264
 739.981099459 330.462505199 739.981099459 330.462505199 739.981099459 333.998039105 c 0,265,266
 739.981099459 338.173966656 739.981099459 338.173966656 744.185277357 341.680489339 c 0,267,268
 826.84565304 410.706163879 826.84565304 410.706163879 827.978064865 411.838575703 c 0,269,270
 840 423.860510839 840 423.860510839 840 447 c 2,271,-1
 840 554 l 2,272,273
 840 578.509827375 840 578.509827375 829.254982625 589.254930849 c 128,-1,274
 818.509999572 600 818.509999572 600 794 600 c 2,275,-1
 779.548241153 600 l 2,276,277
 775.404144635 600 775.404144635 600 772.477173341 602.926971294 c 128,-1,278
 769.532582885 605.871561749 769.532582885 605.871561749 769.532582885 608.235812088 c 128,-1,279
 769.532582885 610.600062426 769.532582885 610.600062426 774.48675581 644.878800194 c 0,280,281
 779.77122223 681.44289301 779.77122223 681.44289301 780.603863138 692.161477778 c 0,282,283
 780.603863138 730 780.603863138 730 734 730 c 2,284,-1
 629 730 l 2,285,286
 609.315648381 730 609.315648381 730 597.90932206 720.924047538 c 2,287,-1
 501.215506523 639.932646489 l 2,288,289
 497.880868678 637.139531029 497.880868678 637.139531029 494.503060959 637.139531029 c 128,-1,290
 491.125253239 637.139531029 491.125253239 637.139531029 487.954892513 640.309891755 c 128,-1,291
 484.784531787 643.480252481 484.784531787 643.480252481 484.784531787 645.854717232 c 128,-1,292
 484.784531787 648.229181984 484.784531787 648.229181984 487.694197463 667.649986428 c 128,-1,293
 490.603863138 687.070790873 490.603863138 687.070790873 490.603863138 692.161477778 c 0,188,189
EndSplineSet
Validated: 524297
EndChar

StartChar: dollar
Encoding: 36 36 7
Width: 750
GlyphClass: 2
Flags: W
LayerCount: 2
Fore
SplineSet
391 -209 m 2,0,-1
 246 -209 l 2,1,2
 222 -209 222 -209 211 -198 c 128,-1,3
 200 -187 200 -187 200 -163 c 2,4,-1
 200 -119 l 1,5,-1
 73 -119 l 2,6,7
 49 -119 49 -119 38 -108 c 128,-1,8
 27 -97 27 -97 27 -73 c 2,9,-1
 27 44 l 2,10,11
 27 57 27 57 30.5 66 c 128,-1,12
 34 75 34 75 41 81 c 2,13,-1
 141 165 l 1,14,15
 88 181 88 181 57.5 219.5 c 128,-1,16
 27 258 27 258 27 330 c 2,17,-1
 27 435 l 2,18,19
 27 480 27 480 42 515 c 128,-1,20
 57 550 57 550 85 574 c 2,21,-1
 200 671 l 1,22,23
 201 683 201 683 205 690.5 c 128,-1,24
 209 698 209 698 214 702 c 2,25,-1
 343 811 l 2,26,27
 348 815 348 815 356.5 817.5 c 128,-1,28
 365 820 365 820 375 820 c 2,29,-1
 520 820 l 2,30,31
 544 820 544 820 555 809 c 128,-1,32
 566 798 566 798 566 774 c 2,33,-1
 566 730 l 1,34,-1
 653 730 l 2,35,36
 677 730 677 730 688 719 c 128,-1,37
 699 708 699 708 699 684 c 2,38,-1
 699 565 l 2,39,40
 699 552 699 552 695.5 543 c 128,-1,41
 692 534 692 534 685 528 c 2,42,-1
 595 453 l 1,43,44
 658 439 658 439 696.5 400.5 c 128,-1,45
 735 362 735 362 735 281 c 2,46,-1
 735 176 l 2,47,48
 735 131 735 131 720 96 c 128,-1,49
 705 61 705 61 676 37 c 2,50,-1
 566 -55 l 1,51,52
 566 -68 566 -68 562.5 -76.5 c 128,-1,53
 559 -85 559 -85 552 -91 c 2,54,-1
 422 -199 l 2,55,56
 418 -203 418 -203 409.5 -206 c 128,-1,57
 401 -209 401 -209 391 -209 c 2,0,-1
520 -90 m 2,58,59
 539 -90 539 -90 547.5 -81.5 c 128,-1,60
 556 -73 556 -73 556 -54 c 2,61,-1
 556 2 l 1,62,63
 635 10 635 10 680 55 c 128,-1,64
 725 100 725 100 725 176 c 2,65,-1
 725 281 l 2,66,67
 725 365 725 365 682 401 c 128,-1,68
 639 437 639 437 569 447 c 2,69,-1
 420 467 l 2,70,71
 407 468 407 468 400 477 c 128,-1,72
 393 486 393 486 393 499 c 256,73,74
 393 512 393 512 400 520.5 c 128,-1,75
 407 529 407 529 420 529 c 2,76,-1
 653 529 l 2,77,78
 672 529 672 529 680.5 537.5 c 128,-1,79
 689 546 689 546 689 565 c 2,80,-1
 689 684 l 2,81,82
 689 703 689 703 680.5 711.5 c 128,-1,83
 672 720 672 720 653 720 c 2,84,-1
 556 720 l 1,85,-1
 556 774 l 2,86,87
 556 793 556 793 547.5 801.5 c 128,-1,88
 539 810 539 810 520 810 c 2,89,-1
 375 810 l 2,90,91
 356 810 356 810 347.5 801.5 c 128,-1,92
 339 793 339 793 339 774 c 2,93,-1
 339 718 l 1,94,95
 258 711 258 711 212 666.5 c 128,-1,96
 166 622 166 622 166 544 c 2,97,-1
 166 439 l 2,98,99
 166 355 166 355 208.5 319 c 128,-1,100
 251 283 251 283 321 273 c 2,101,-1
 471 252 l 2,102,103
 484 251 484 251 490.5 243 c 128,-1,104
 497 235 497 235 497 218 c 0,105,106
 497 206 497 206 490.5 197.5 c 128,-1,107
 484 189 484 189 471 189 c 2,108,-1
 202 189 l 2,109,110
 183 189 183 189 174.5 180.5 c 128,-1,111
 166 172 166 172 166 153 c 2,112,-1
 166 36 l 2,113,114
 166 17 166 17 174.5 8.5 c 128,-1,115
 183 0 183 0 202 0 c 2,116,-1
 339 0 l 1,117,-1
 339 -54 l 2,118,119
 339 -73 339 -73 347.5 -81.5 c 128,-1,120
 356 -90 356 -90 375 -90 c 2,121,-1
 520 -90 l 2,58,59
443 0 m 1,122,-1
 443 90 l 1,123,-1
 256 90 l 1,124,-1
 256 100 l 1,125,-1
 505 100 l 2,126,127
 551 100 551 100 578.5 125.5 c 128,-1,128
 606 151 606 151 606 191 c 2,129,-1
 606 249 l 2,130,131
 606 296 606 296 589.5 313.5 c 128,-1,132
 573 331 573 331 545 337 c 2,133,-1
 334 380 l 2,134,135
 308 385 308 385 291.5 400.5 c 128,-1,136
 275 416 275 416 275 457 c 2,137,-1
 275 539 l 2,138,139
 275 579 275 579 303 604.5 c 128,-1,140
 331 630 331 630 377 630 c 2,141,-1
 443 630 l 1,142,-1
 443 720 l 1,143,-1
 453 720 l 1,144,-1
 453 630 l 1,145,-1
 599 630 l 1,146,-1
 599 620 l 1,147,-1
 377 620 l 2,148,149
 335 620 335 620 310 597 c 128,-1,150
 285 574 285 574 285 539 c 2,151,-1
 285 457 l 2,152,153
 285 422 285 422 299 408 c 128,-1,154
 313 394 313 394 336 390 c 2,155,-1
 547 347 l 2,156,157
 577 341 577 341 596.5 321 c 128,-1,158
 616 301 616 301 616 249 c 2,159,-1
 616 191 l 2,160,161
 616 147 616 147 586 118.5 c 128,-1,162
 556 90 556 90 505 90 c 2,163,-1
 453 90 l 1,164,-1
 453 0 l 1,165,-1
 443 0 l 1,122,-1
EndSplineSet
Validated: 1
EndChar

StartChar: percent
Encoding: 37 37 8
Width: 1131
GlyphClass: 2
Flags: W
LayerCount: 2
Fore
SplineSet
805 -125 m 0,0,1
 700 -125 700 -125 660.5 -94.5 c 128,-1,2
 621 -64 621 -64 617 -16 c 1,3,-1
 506 -109 l 2,4,5
 501 -113 501 -113 492.5 -116 c 128,-1,6
 484 -119 484 -119 474 -119 c 2,7,-1
 369 -119 l 2,8,9
 344 -119 344 -119 333 -106.5 c 128,-1,10
 322 -94 322 -94 328 -71 c 2,11,-1
 410 260 l 1,12,-1
 357 215 l 2,13,14
 337 198 337 198 300.5 188 c 128,-1,15
 264 178 264 178 207 178 c 0,16,17
 149 178 149 178 112 192.5 c 128,-1,18
 75 207 75 207 54.5 229.5 c 128,-1,19
 34 252 34 252 26 280.5 c 128,-1,20
 18 309 18 309 18 337 c 2,21,-1
 18 497 l 2,22,23
 18 525 18 525 26 549 c 128,-1,24
 34 573 34 573 55 589 c 2,25,-1
 184 698 l 2,26,27
 205 715 205 715 242 725 c 128,-1,28
 279 735 279 735 336 735 c 0,29,30
 442 735 442 735 480 704.5 c 128,-1,31
 518 674 518 674 522 625 c 1,32,-1
 636 720 l 2,33,34
 641 724 641 724 649 727 c 128,-1,35
 657 730 657 730 668 730 c 2,36,-1
 773 730 l 2,37,38
 798 730 798 730 809 717.5 c 128,-1,39
 820 705 820 705 814 682 c 2,40,-1
 733 354 l 1,41,-1
 782 395 l 2,42,43
 803 412 803 412 840 422 c 128,-1,44
 877 432 877 432 934 432 c 0,45,46
 992 432 992 432 1028.5 422.5 c 128,-1,47
 1065 413 1065 413 1085.5 396 c 128,-1,48
 1106 379 1106 379 1113.5 355 c 128,-1,49
 1121 331 1121 331 1121 303 c 2,50,-1
 1121 113 l 2,51,52
 1121 85 1121 85 1113 61 c 128,-1,53
 1105 37 1105 37 1084 21 c 2,54,-1
 955 -88 l 2,55,56
 935 -105 935 -105 898.5 -115 c 128,-1,57
 862 -125 862 -125 805 -125 c 0,0,1
513 416 m 2,58,-1
 513 606 l 2,59,60
 513 632 513 632 505.5 654.5 c 128,-1,61
 498 677 498 677 478 692.5 c 128,-1,62
 458 708 458 708 423.5 716.5 c 128,-1,63
 389 725 389 725 336 725 c 0,64,65
 229 725 229 725 193 692 c 128,-1,66
 157 659 157 659 157 606 c 2,67,-1
 157 416 l 2,68,69
 157 363 157 363 193 330 c 128,-1,70
 229 297 229 297 336 297 c 0,71,72
 389 297 389 297 423.5 305.5 c 128,-1,73
 458 314 458 314 478 329.5 c 128,-1,74
 498 345 498 345 505.5 367.5 c 128,-1,75
 513 390 513 390 513 416 c 2,58,-1
467 36 m 2,76,77
 463 18 463 18 471 9 c 128,-1,78
 479 0 479 0 498 0 c 2,79,-1
 603 0 l 2,80,81
 622 0 622 0 631 9 c 128,-1,82
 640 18 640 18 644 36 c 2,83,-1
 804 684 l 2,84,85
 808 702 808 702 800 711 c 128,-1,86
 792 720 792 720 773 720 c 2,87,-1
 668 720 l 2,88,89
 649 720 649 720 640 711 c 128,-1,90
 631 702 631 702 627 684 c 2,91,-1
 467 36 l 2,76,77
446 583 m 2,92,-1
 446 437 l 2,93,94
 446 394 446 394 420.5 376 c 128,-1,95
 395 358 395 358 336 358 c 0,96,97
 278 358 278 358 251.5 376 c 128,-1,98
 225 394 225 394 225 437 c 2,99,-1
 225 583 l 2,100,101
 225 626 225 626 251.5 644.5 c 128,-1,102
 278 663 278 663 336 663 c 0,103,104
 395 663 395 663 420.5 644.5 c 128,-1,105
 446 626 446 626 446 583 c 2,92,-1
336 368 m 256,106,107
 387 368 387 368 411.5 383 c 128,-1,108
 436 398 436 398 436 437 c 2,109,-1
 436 583 l 2,110,111
 436 622 436 622 411.5 637.5 c 128,-1,112
 387 653 387 653 336 653 c 256,113,114
 285 653 285 653 260 637.5 c 128,-1,115
 235 622 235 622 235 583 c 2,116,-1
 235 437 l 2,117,118
 235 398 235 398 260 383 c 128,-1,119
 285 368 285 368 336 368 c 256,106,107
574 90 m 1,120,-1
 564 90 l 1,121,-1
 697 630 l 1,122,-1
 707 630 l 1,123,-1
 574 90 l 1,120,-1
302 447 m 2,124,-1
 302 575 l 2,125,126
 302 581 302 581 308 586.5 c 128,-1,127
 314 592 314 592 336 592 c 0,128,129
 357 592 357 592 363 586.5 c 128,-1,130
 369 581 369 581 369 575 c 2,131,-1
 369 447 l 2,132,133
 369 440 369 440 363 434.5 c 128,-1,134
 357 429 357 429 336 429 c 0,135,136
 314 429 314 429 308 434.5 c 128,-1,137
 302 440 302 440 302 447 c 2,124,-1
1111 113 m 2,138,-1
 1111 303 l 2,139,140
 1111 329 1111 329 1103.5 351.5 c 128,-1,141
 1096 374 1096 374 1076 389.5 c 128,-1,142
 1056 405 1056 405 1021.5 413.5 c 128,-1,143
 987 422 987 422 934 422 c 0,144,145
 827 422 827 422 791 389 c 128,-1,146
 755 356 755 356 755 303 c 2,147,-1
 755 113 l 2,148,149
 755 60 755 60 791 27 c 128,-1,150
 827 -6 827 -6 934 -6 c 0,151,152
 987 -6 987 -6 1021.5 2.5 c 128,-1,153
 1056 11 1056 11 1076 26.5 c 128,-1,154
 1096 42 1096 42 1103.5 64.5 c 128,-1,155
 1111 87 1111 87 1111 113 c 2,138,-1
1046 280 m 2,156,-1
 1046 134 l 2,157,158
 1046 91 1046 91 1020.5 73 c 128,-1,159
 995 55 995 55 936 55 c 0,160,161
 878 55 878 55 851.5 73 c 128,-1,162
 825 91 825 91 825 134 c 2,163,-1
 825 280 l 2,164,165
 825 323 825 323 851.5 341.5 c 128,-1,166
 878 360 878 360 936 360 c 0,167,168
 995 360 995 360 1020.5 341.5 c 128,-1,169
 1046 323 1046 323 1046 280 c 2,156,-1
936 65 m 256,170,171
 987 65 987 65 1011.5 80 c 128,-1,172
 1036 95 1036 95 1036 134 c 2,173,-1
 1036 280 l 2,174,175
 1036 319 1036 319 1011.5 334.5 c 128,-1,176
 987 350 987 350 936 350 c 256,177,178
 885 350 885 350 860 334.5 c 128,-1,179
 835 319 835 319 835 280 c 2,180,-1
 835 134 l 2,181,182
 835 95 835 95 860 80 c 128,-1,183
 885 65 885 65 936 65 c 256,170,171
900 144 m 2,184,-1
 900 272 l 2,185,186
 900 278 900 278 906 283.5 c 128,-1,187
 912 289 912 289 934 289 c 0,188,189
 955 289 955 289 961 283.5 c 128,-1,190
 967 278 967 278 967 272 c 2,191,-1
 967 144 l 2,192,193
 967 137 967 137 961 131.5 c 128,-1,194
 955 126 955 126 934 126 c 0,195,196
 912 126 912 126 906 131.5 c 128,-1,197
 900 137 900 137 900 144 c 2,184,-1
EndSplineSet
Validated: 33
Substitution2: "'ss01' Style Set 1 in Latin lookup 22 subtable" percent.v
Substitution2: "'vert' Vertical Alternates in Latin lookup 21 subtable" percent.v
EndChar

StartChar: ampersand
Encoding: 38 38 9
Width: 866
GlyphClass: 2
Flags: W
LayerCount: 2
Fore
SplineSet
212 -119 m 2,0,1
 163 -119 163 -119 126 -102.5 c 128,-1,2
 89 -86 89 -86 64 -58 c 128,-1,3
 39 -30 39 -30 26 7.5 c 128,-1,4
 13 45 13 45 13 87 c 2,5,-1
 13 147 l 2,6,7
 13 193 13 193 27.5 226 c 128,-1,8
 42 259 42 259 67 280 c 2,9,-1
 111 316 l 1,10,11
 94 333 94 333 87 357 c 128,-1,12
 80 381 80 381 80 410 c 2,13,-1
 80 458 l 2,14,15
 80 494 80 494 92 525 c 128,-1,16
 104 556 104 556 131 578 c 2,17,-1
 259 686 l 2,18,19
 284 707 284 707 322 718.5 c 128,-1,20
 360 730 360 730 411 730 c 2,21,-1
 622 730 l 2,22,23
 646 730 646 730 657 719 c 128,-1,24
 668 708 668 708 668 684 c 2,25,-1
 668 569 l 2,26,27
 668 556 668 556 664.5 547 c 128,-1,28
 661 538 661 538 654 532 c 2,29,-1
 535 433 l 2,30,31
 536 429 536 429 536.5 424.5 c 128,-1,32
 537 420 537 420 537 416 c 2,33,-1
 537 353 l 1,34,-1
 595 402 l 2,35,36
 600 406 600 406 608.5 408.5 c 128,-1,37
 617 411 617 411 627 411 c 2,38,-1
 821 411 l 2,39,40
 845 411 845 411 856 400.5 c 128,-1,41
 867 390 867 390 867 365 c 2,42,-1
 867 257 l 2,43,44
 867 244 867 244 863.5 235 c 128,-1,45
 860 226 860 226 853 220 c 2,46,-1
 808 182 l 1,47,-1
 808 176 l 2,48,49
 808 130 808 130 792.5 93 c 128,-1,50
 777 56 777 56 748 31 c 2,51,-1
 619 -78 l 2,52,53
 596 -97 596 -97 563.5 -108 c 128,-1,54
 531 -119 531 -119 490 -119 c 2,55,-1
 212 -119 l 2,0,1
411 187 m 2,56,57
 387 187 387 187 380 196 c 128,-1,58
 373 205 373 205 373 217 c 2,59,-1
 373 248 l 2,60,61
 373 260 373 260 380 268.5 c 128,-1,62
 387 277 387 277 411 277 c 2,63,-1
 491 277 l 2,64,65
 510 277 510 277 518.5 285.5 c 128,-1,66
 527 294 527 294 527 313 c 2,67,-1
 527 416 l 2,68,69
 527 435 527 435 518.5 443.5 c 128,-1,70
 510 452 510 452 491 452 c 2,71,-1
 476 452 l 2,72,73
 452 452 452 452 445 461 c 128,-1,74
 438 470 438 470 438 482 c 2,75,-1
 438 503 l 2,76,77
 438 515 438 515 445 524 c 128,-1,78
 452 533 452 533 476 533 c 2,79,-1
 622 533 l 2,80,81
 641 533 641 533 649.5 541.5 c 128,-1,82
 658 550 658 550 658 569 c 2,83,-1
 658 684 l 2,84,85
 658 703 658 703 649.5 711.5 c 128,-1,86
 641 720 641 720 622 720 c 2,87,-1
 411 720 l 2,88,89
 310 720 310 720 264.5 676.5 c 128,-1,90
 219 633 219 633 219 567 c 2,91,-1
 219 519 l 2,92,93
 219 481 219 481 232 453 c 128,-1,94
 245 425 245 425 278 411 c 1,95,96
 224 406 224 406 188 366 c 128,-1,97
 152 326 152 326 152 256 c 2,98,-1
 152 176 l 2,99,100
 152 96 152 96 200.5 48 c 128,-1,101
 249 0 249 0 341 0 c 2,102,-1
 619 0 l 2,103,104
 706 0 706 0 752 48 c 128,-1,105
 798 96 798 96 798 176 c 2,106,-1
 798 221 l 1,107,-1
 821 221 l 2,108,109
 840 221 840 221 848.5 229.5 c 128,-1,110
 857 238 857 238 857 257 c 2,111,-1
 857 365 l 2,112,113
 857 384 857 384 848.5 392.5 c 128,-1,114
 840 401 840 401 821 401 c 2,115,-1
 627 401 l 2,116,117
 608 401 608 401 599.5 392.5 c 128,-1,118
 591 384 591 384 591 365 c 2,119,-1
 591 227 l 2,120,121
 591 207 591 207 583 197 c 128,-1,122
 575 187 575 187 553 187 c 2,123,-1
 411 187 l 2,56,57
365 90 m 2,124,125
 306 90 306 90 277 116.5 c 128,-1,126
 248 143 248 143 248 198 c 2,127,-1
 248 259 l 2,128,129
 248 308 248 308 278 340 c 128,-1,130
 308 372 308 372 370 372 c 2,131,-1
 377 372 l 1,132,133
 351 382 351 382 338 406 c 128,-1,134
 325 430 325 430 325 469 c 2,135,-1
 325 525 l 2,136,137
 325 580 325 580 354 605 c 128,-1,138
 383 630 383 630 443 630 c 2,139,-1
 568 630 l 1,140,-1
 568 620 l 1,141,-1
 443 620 l 2,142,143
 387 620 387 620 361 597 c 128,-1,144
 335 574 335 574 335 523 c 2,145,-1
 335 469 l 2,146,147
 335 420 335 420 357.5 396.5 c 128,-1,148
 380 373 380 373 427 373 c 2,149,-1
 437 373 l 1,150,-1
 437 363 l 1,151,-1
 370 363 l 2,152,153
 313 363 313 363 285.5 333.5 c 128,-1,154
 258 304 258 304 258 259 c 2,155,-1
 258 198 l 2,156,157
 258 147 258 147 285 123.5 c 128,-1,158
 312 100 312 100 371 100 c 2,159,-1
 606 100 l 2,160,161
 646 100 646 100 667.5 120.5 c 128,-1,162
 689 141 689 141 689 181 c 2,163,-1
 689 316 l 1,164,-1
 764 316 l 1,165,-1
 764 306 l 1,166,-1
 699 306 l 1,167,-1
 699 181 l 2,168,169
 699 135 699 135 674.5 112.5 c 128,-1,170
 650 90 650 90 606 90 c 2,171,-1
 365 90 l 2,124,125
452 197 m 1,172,-1
 452 217 l 1,173,-1
 428 197 l 1,174,-1
 452 197 l 1,172,-1
EndSplineSet
Validated: 1
Substitution2: "'ss01' Style Set 1 in Latin lookup 22 subtable" ampersand.v
Substitution2: "'vert' Vertical Alternates in Latin lookup 21 subtable" ampersand.v
Substitution2: "'ss06' Style Set 6 in Latin lookup 14 subtable" ampersand.salt
EndChar

StartChar: quotesingle
Encoding: 39 39 10
Width: 456
GlyphClass: 2
Flags: W
LayerCount: 2
Fore
SplineSet
366 345 m 2,0,1
 392 345 392 345 399.5 352.5 c 128,-1,2
 407 360 407 360 408 386 c 2,3,-1
 416 679 l 2,4,5
 417 705 417 705 409.5 712.5 c 128,-1,6
 402 720 402 720 377 720 c 2,7,-1
 212 720 l 2,8,9
 186 720 186 720 178.5 712.5 c 128,-1,10
 171 705 171 705 172 679 c 2,11,-1
 180 386 l 2,12,13
 181 360 181 360 188.5 352.5 c 128,-1,14
 196 345 196 345 222 345 c 2,15,-1
 366 345 l 2,0,1
289 630 m 1,16,-1
 299 630 l 1,17,-1
 299 435 l 1,18,-1
 289 435 l 1,19,-1
 289 630 l 1,16,-1
237 206.003921789 m 2,20,-1
 93 206.003921789 l 2,21,22
 52.2006456635 206.003921789 52.2006456635 206.003921789 37.2193692148 220.986932734 c 128,-1,23
 22.2380927661 235.969943679 22.2380927661 235.969943679 21.0114793183 276.448187456 c 2,24,-1
 12.7313033368 578.71366896 l 2,25,26
 12.7313033368 593.350931511 12.7313033368 593.350931511 15.7283922026 604.749072321 c 0,27,28
 19.2448513085 618.122414866 19.2448513085 618.122414866 31.1642716497 628.339060873 c 2,29,-1
 161.16427165 737.339060873 l 2,30,31
 176.971832463 749.996078211 176.971832463 749.996078211 212 749.996078211 c 2,32,-1
 377 749.996078211 l 2,33,34
 417.288193037 749.996078211 417.288193037 749.996078211 431.688705021 735.595566227 c 128,-1,35
 446.089217005 721.195054243 446.089217005 721.195054243 446.089217005 684.933705294 c 2,36,-1
 437.974960332 384.13411612 l 2,37,38
 435.534145269 342.461030282 435.534145269 342.461030282 417.82440525 327.651452235 c 0,39,40
 288.429163157 219.320551878 288.429163157 219.320551878 288.003357364 219.032973441 c 0,41,42
 268.711766055 206.003921789 268.711766055 206.003921789 237 206.003921789 c 2,20,-1
93 226 m 2,43,-1
 237 226 l 2,44,45
 262.212015139 226 262.212015139 226 276.416871879 235.349009015 c 0,46,47
 405.645964779 343.540807722 405.645964779 343.540807722 406.246804012 344.141646955 c 0,48,49
 416.156498655 354.051341598 416.156498655 354.051341598 417.990729382 384.843390222 c 2,50,-1
 426.093081218 685.066200642 l 2,51,52
 426.06884929 712.93115071 426.06884929 712.93115071 417.546569397 721.453430603 c 128,-1,53
 409 730 409 730 377 730 c 2,54,-1
 212 730 l 2,55,56
 184.130751446 730 184.130751446 730 173.901989344 721.917821835 c 0,57,58
 43.1490521015 612.286512916 43.1490521015 612.286512916 42.0949181637 611.232378978 c 0,59,60
 36.6926958781 605.830156692 36.6926958781 605.830156692 34.7081886299 598.307135586 c 128,-1,61
 32.7236813816 590.784114479 32.7236813816 590.784114479 32.7236813816 579.085629571 c 2,62,-1
 41 277 l 2,63,64
 41.9846153846 244.507692308 41.9846153846 244.507692308 51.209704142 235.28260355 c 128,-1,65
 60.4901803061 226 60.4901803061 226 93 226 c 2,43,-1
EndSplineSet
Validated: 524329
Substitution2: "'ss01' Style Set 1 in Latin lookup 22 subtable" quotesingle.v
Substitution2: "'vert' Vertical Alternates in Latin lookup 21 subtable" quotesingle.v
EndChar

StartChar: parenleft
Encoding: 40 40 11
Width: 529
GlyphClass: 2
Flags: W
LayerCount: 2
Fore
SplineSet
463 -80 m 2,0,1
 482 -80 482 -80 490.5 -71.5 c 128,-1,2
 499 -63 499 -63 499 -44 c 2,3,-1
 499 75 l 2,4,5
 499 94 499 94 490.5 102.5 c 128,-1,6
 482 111 482 111 463 111 c 2,7,-1
 432 111 l 2,8,9
 408 111 408 111 399.5 123 c 128,-1,10
 391 135 391 135 391 161 c 2,11,-1
 391 557 l 2,12,13
 391 583 391 583 399.5 595 c 128,-1,14
 408 607 408 607 432 607 c 2,15,-1
 463 607 l 2,16,17
 482 607 482 607 490.5 615.5 c 128,-1,18
 499 624 499 624 499 643 c 2,19,-1
 499 764 l 2,20,21
 499 783 499 783 490.5 791.5 c 128,-1,22
 482 800 482 800 463 800 c 2,23,-1
 409 800 l 2,24,25
 268 800 268 800 215.5 743 c 128,-1,26
 163 686 163 686 163 595 c 2,27,-1
 163 124 l 2,28,29
 163 34 163 34 215.5 -23 c 128,-1,30
 268 -80 268 -80 409 -80 c 2,31,-1
 463 -80 l 2,0,1
409 21 m 1,32,-1
 409 11 l 1,33,34
 344 11 344 11 308 34.5 c 128,-1,35
 272 58 272 58 272 124 c 2,36,-1
 272 595 l 2,37,38
 272 661 272 661 307.5 684.5 c 128,-1,39
 343 708 343 708 409 708 c 1,40,-1
 409 698 l 1,41,42
 349 698 349 698 315.5 677 c 128,-1,43
 282 656 282 656 282 595 c 2,44,-1
 282 124 l 2,45,46
 282 63 282 63 316 42 c 128,-1,47
 350 21 350 21 409 21 c 1,32,-1
463 140.996078211 m 2,48,49
 495.143116071 140.996078211 495.143116071 140.996078211 512.069597141 124.069597141 c 128,-1,50
 528.996078211 107.143116071 528.996078211 107.143116071 528.996078211 75 c 2,51,-1
 528.996078211 -44 l 2,52,53
 528.996078211 -78.2047505677 528.996078211 -78.2047505677 508.003080782 -96.1987483638 c 0,54,55
 443.228802202 -150.011225954 443.228802202 -150.011225954 378.33629321 -203.923475239 c 0,56,57
 371.237367895 -210.598191814 371.237367895 -210.598191814 359.340362167 -214.797135013 c 128,-1,58
 347.443356438 -218.996078211 347.443356438 -218.996078211 334 -218.996078211 c 2,59,-1
 280 -218.996078211 l 2,60,61
 129.13585414 -218.996078211 129.13585414 -218.996078211 60.3529595011 -150.214816955 c 0,62,63
 29.6961826599 -119.558040114 29.6961826599 -119.558040114 16.8500522246 -77.2728607645 c 128,-1,64
 4.00392178919 -34.9876814147 4.00392178919 -34.9876814147 4.00392178919 15 c 2,65,-1
 4.00392178919 486 l 2,66,67
 4.00392178919 606.558886681 4.00392178919 606.558886681 74.1058165358 664.289858825 c 2,68,-1
 202.954154347 773.161065444 l 2,69,70
 268.882769156 829.996078211 268.882769156 829.996078211 409 829.996078211 c 2,71,-1
 463 829.996078211 l 2,72,73
 495.143116071 829.996078211 495.143116071 829.996078211 512.069597141 813.069597141 c 128,-1,74
 528.996078211 796.143116071 528.996078211 796.143116071 528.996078211 764 c 2,75,-1
 528.996078211 643 l 2,76,77
 528.996078211 608.79806824 528.996078211 608.79806824 507.853447534 590.675813374 c 2,78,-1
 420.996078211 517.67866256 l 1,79,-1
 420.996078211 161 l 2,80,81
 420.996078211 143.433217395 420.996078211 143.433217395 424.052324918 142.009416813 c 0,82,83
 426 141 426 141 432 140.996078211 c 2,84,-1
 463 140.996078211 l 2,48,49
463 121 m 2,85,-1
 432 121 l 2,86,87
 413 121 413 121 407 131.5 c 128,-1,88
 401 142 401 142 401 161 c 2,89,-1
 401 522.33933128 l 2,90,91
 401 527.003334969 401 527.003334969 404.571315338 530.001424593 c 0,92,93
 495.895553405 606.752645947 495.895553405 606.752645947 496.99544455 607.852537092 c 0,94,95
 509 619.857092542 509 619.857092542 509 643 c 2,96,-1
 509 764 l 2,97,98
 509 787.854923034 509 787.854923034 497.927461517 798.927461517 c 128,-1,99
 486.854923034 810 486.854923034 810 463 810 c 2,100,-1
 409 810 l 2,101,102
 276.319245829 810 276.319245829 810 215.999682166 758.000376152 c 2,103,-1
 87 649 l 2,104,105
 53 621 53 621 38.5 579 c 128,-1,106
 24 537 24 537 24 486 c 2,107,-1
 24 15 l 2,108,109
 24 -32 24 -32 35.6896551724 -70.4784482759 c 128,-1,110
 47.3793103448 -108.956896552 47.3793103448 -108.956896552 74.4950951249 -136.072681332 c 0,111,112
 137.42390816 -199 137.42390816 -199 280 -199 c 2,113,-1
 334 -199 l 2,114,115
 344 -199 344 -199 352.374548239 -196.044277092 c 128,-1,116
 360.749096478 -193.088554184 360.749096478 -193.088554184 364.77078988 -189.224633298 c 0,117,118
 495.912629471 -80.2415905569 495.912629471 -80.2415905569 497.049220487 -79.1049995412 c 0,119,120
 509 -67.1542200281 509 -67.1542200281 509 -44 c 2,121,-1
 509 75 l 2,122,123
 509 98.8549230344 509 98.8549230344 497.927461517 109.927461517 c 128,-1,124
 486.854923034 121 486.854923034 121 463 121 c 2,85,-1
EndSplineSet
Validated: 524297
Substitution2: "'ss10' Style Set 10 in Latin lookup 25 subtable" parenleft.v
Substitution2: "'ss01' Style Set 1 in Latin lookup 22 subtable" parenleft.v
Substitution2: "'vert' Vertical Alternates in Latin lookup 21 subtable" parenleft.v
EndChar

StartChar: parenright
Encoding: 41 41 12
Width: 529
GlyphClass: 2
Flags: W
LayerCount: 2
Fore
SplineSet
250 -80 m 2,0,1
 391 -80 391 -80 443.5 -23 c 128,-1,2
 496 34 496 34 496 124 c 2,3,-1
 496 595 l 2,4,5
 496 686 496 686 443.5 743 c 128,-1,6
 391 800 391 800 250 800 c 2,7,-1
 196 800 l 2,8,9
 177 800 177 800 168.5 791.5 c 128,-1,10
 160 783 160 783 160 764 c 2,11,-1
 160 643 l 2,12,13
 160 624 160 624 168.5 615.5 c 128,-1,14
 177 607 177 607 196 607 c 2,15,-1
 227 607 l 2,16,17
 251 607 251 607 259.5 595 c 128,-1,18
 268 583 268 583 268 557 c 2,19,-1
 268 161 l 2,20,21
 268 135 268 135 259.5 123 c 128,-1,22
 251 111 251 111 227 111 c 2,23,-1
 196 111 l 2,24,25
 177 111 177 111 168.5 102.5 c 128,-1,26
 160 94 160 94 160 75 c 2,27,-1
 160 -44 l 2,28,29
 160 -63 160 -63 168.5 -71.5 c 128,-1,30
 177 -80 177 -80 196 -80 c 2,31,-1
 250 -80 l 2,0,1
387 124 m 2,32,33
 387 58 387 58 351 34.5 c 128,-1,34
 315 11 315 11 250 11 c 1,35,-1
 250 21 l 1,36,37
 309 21 309 21 343 42 c 128,-1,38
 377 63 377 63 377 124 c 2,39,-1
 377 595 l 2,40,41
 377 656 377 656 343.5 677 c 128,-1,42
 310 698 310 698 250 698 c 1,43,-1
 250 708 l 1,44,45
 316 708 316 708 351.5 684.5 c 128,-1,46
 387 661 387 661 387 595 c 2,47,-1
 387 124 l 2,32,33
67 468.003921789 m 2,48,49
 34.856883929 468.003921789 34.856883929 468.003921789 17.9304028591 484.930402859 c 128,-1,50
 1.00392178919 501.856883929 1.00392178919 501.856883929 1.00392178919 534 c 2,51,-1
 1.00392178919 655 l 2,52,53
 1.00392178919 689.202520471 1.00392178919 689.202520471 22.1058165358 707.289858825 c 2,54,-1
 151.105816536 816.289858825 l 2,55,56
 168.218318473 829.996078211 168.218318473 829.996078211 196 829.996078211 c 2,57,-1
 250 829.996078211 l 2,58,59
 400.862921793 829.996078211 400.862921793 829.996078211 469.596890005 761.263652429 c 0,60,61
 500.319322991 730.541219443 500.319322991 730.541219443 513.157700601 687.74662741 c 128,-1,62
 525.996078211 644.952035377 525.996078211 644.952035377 525.996078211 595 c 2,63,-1
 525.996078211 124 l 2,64,65
 525.996078211 5.44111309196 525.996078211 5.44111309196 455.894172853 -52.2898677909 c 2,66,-1
 326.789231783 -161.377927092 l 2,67,68
 257.64745044 -218.996078211 257.64745044 -218.996078211 121 -218.996078211 c 2,69,-1
 67 -218.996078211 l 2,70,71
 34.856883929 -218.996078211 34.856883929 -218.996078211 17.9304028591 -202.069597141 c 128,-1,72
 1.00392178919 -185.143116071 1.00392178919 -185.143116071 1.00392178919 -153 c 2,73,-1
 1.00392178919 -34 l 2,74,75
 1.00392178919 0.201931760452 1.00392178919 0.201931760452 22.1465524659 18.3241866262 c 2,76,-1
 109.003921789 91.3213374405 l 1,77,-1
 109.003921789 448 l 2,78,79
 109.003921789 465.566782605 109.003921789 465.566782605 105.947675082 466.990583187 c 0,80,81
 104 468 104 468 98 468.003921789 c 2,82,-1
 67 468.003921789 l 2,48,49
67 488 m 2,83,-1
 98 488 l 2,84,85
 117 488 117 488 123 477.5 c 128,-1,86
 129 467 129 467 129 448 c 2,87,-1
 129 86.6606687202 l 2,88,89
 129 81.9966650315 129 81.9966650315 125.428684662 78.9985754071 c 0,90,91
 34.1044465951 2.24735405332 34.1044465951 2.24735405332 33.0045554498 1.14746290803 c 0,92,93
 21 -10.8570925418 21 -10.8570925418 21 -34 c 2,94,-1
 21 -153 l 2,95,96
 21 -176.854923034 21 -176.854923034 32.0725384828 -187.927461517 c 128,-1,97
 43.1450769656 -199 43.1450769656 -199 67 -199 c 2,98,-1
 121 -199 l 2,99,100
 250.4 -199 250.4 -199 314 -146 c 2,101,-1
 443.000010611 -36.9999910339 l 2,102,103
 477.000000112 -8.99999968073 477.000000112 -8.99999968073 491.5 32.5 c 128,-1,104
 506 74 506 74 506 124 c 2,105,-1
 506 595 l 2,106,107
 506 696.576271186 506 696.576271186 455.454754381 747.121516806 c 0,108,109
 392.574860125 810 392.574860125 810 250 810 c 2,110,-1
 196 810 l 2,111,112
 175.332334207 810 175.332334207 810 163.892245485 800.908951611 c 0,113,114
 34.0604103244 691.206083142 34.0604103244 691.206083142 32.9899738197 690.135646638 c 0,115,116
 21 678.145672818 21 678.145672818 21 655 c 2,117,-1
 21 534 l 2,118,119
 21 510.145076966 21 510.145076966 32.0725384828 499.072538483 c 128,-1,120
 43.1450769656 488 43.1450769656 488 67 488 c 2,83,-1
EndSplineSet
Validated: 524297
Substitution2: "'ss10' Style Set 10 in Latin lookup 25 subtable" parenright.v
Substitution2: "'ss01' Style Set 1 in Latin lookup 22 subtable" parenright.v
Substitution2: "'vert' Vertical Alternates in Latin lookup 21 subtable" parenright.v
EndChar

StartChar: asterisk
Encoding: 42 42 13
Width: 818
GlyphClass: 2
Flags: W
LayerCount: 2
Fore
SplineSet
480 36 m 2,0,1
 452 17 452 17 441 20.5 c 128,-1,2
 430 24 430 24 414 51 c 2,3,-1
 377 121 l 1,4,-1
 268 30 l 2,5,6
 259 22 259 22 248 22.5 c 128,-1,7
 237 23 237 23 217 36 c 2,8,-1
 123 104 l 2,9,10
 96 123 96 123 95 136 c 128,-1,11
 94 149 94 149 116 173 c 2,12,-1
 212 274 l 1,13,-1
 78 296 l 2,14,15
 46 302 46 302 39 313 c 128,-1,16
 32 324 32 324 42 355 c 2,17,-1
 78 466 l 2,18,19
 82 479 82 479 86.5 486.5 c 128,-1,20
 91 494 91 494 95 498 c 2,21,-1
 224 607 l 2,22,23
 228 611 228 611 235 612 c 128,-1,24
 242 613 242 613 252 611 c 1,25,26
 252 611 252 611 252 611.5 c 128,-1,27
 252 612 252 612 253 612 c 2,28,-1
 254 613 l 1,29,-1
 384 722 l 2,30,31
 389 726 389 726 398.5 728 c 128,-1,32
 408 730 408 730 421 730 c 2,33,-1
 538 730 l 2,34,35
 571 730 571 730 579.5 720 c 128,-1,36
 588 710 588 710 582 678 c 2,37,-1
 564 547 l 1,38,-1
 685 603 l 2,39,40
 713 617 713 617 725 612 c 128,-1,41
 737 607 737 607 747 575 c 2,42,-1
 784 464 l 2,43,44
 791 444 791 444 790 434 c 128,-1,45
 789 424 789 424 782 417 c 2,46,-1
 671 324 l 1,47,-1
 711 282 l 2,48,49
 731 260 731 260 731 248 c 128,-1,50
 731 236 731 236 714 220 c 2,51,-1
 585 112 l 2,52,53
 583 111 583 111 580.5 109 c 128,-1,54
 578 107 578 107 576 105 c 2,55,-1
 576 104 l 1,56,-1
 575 104 l 1,57,-1
 480 36 l 2,0,1
404 165 m 2,58,-1
 477 306 l 1,59,-1
 551 165 l 2,60,61
 563 144 563 144 572 141.5 c 128,-1,62
 581 139 581 139 603 153 c 2,63,-1
 697 221 l 2,64,65
 718 236 718 236 719 246 c 128,-1,66
 720 256 720 256 703 275 c 2,67,-1
 593 390 l 1,68,-1
 746 415 l 2,69,70
 771 419 771 419 776.5 427.5 c 128,-1,71
 782 436 782 436 774 461 c 2,72,-1
 737 572 l 2,73,74
 729 597 729 597 719.5 601 c 128,-1,75
 710 605 710 605 688 594 c 2,76,-1
 551 530 l 1,77,-1
 571 679 l 2,78,79
 575 704 575 704 568.5 712 c 128,-1,80
 562 720 562 720 537 720 c 2,81,-1
 420 720 l 2,82,83
 395 720 395 720 387.5 712 c 128,-1,84
 380 704 380 704 384 679 c 2,85,-1
 407 530 l 1,86,-1
 265 594 l 2,87,88
 243 605 243 605 233 601 c 128,-1,89
 223 597 223 597 216 572 c 2,90,-1
 180 461 l 2,91,92
 172 436 172 436 177.5 427.5 c 128,-1,93
 183 419 183 419 208 415 c 2,94,-1
 360 390 l 1,95,-1
 251 275 l 2,96,97
 234 256 234 256 235 246 c 128,-1,98
 236 236 236 236 257 221 c 2,99,-1
 351 153 l 2,100,101
 373 139 373 139 382.5 141.5 c 128,-1,102
 392 144 392 144 404 165 c 2,58,-1
588 268 m 1,103,-1
 479 423 l 1,104,-1
 370 268 l 1,105,-1
 362 274 l 1,106,-1
 468 426 l 1,107,-1
 296 482 l 1,108,-1
 300 492 l 1,109,-1
 474 435 l 1,110,-1
 474 630 l 1,111,-1
 484 630 l 1,112,-1
 484 435 l 1,113,-1
 658 492 l 1,114,-1
 662 482 l 1,115,-1
 490 426 l 1,116,-1
 596 274 l 1,117,-1
 588 268 l 1,103,-1
EndSplineSet
Validated: 33
Substitution2: "'ss01' Style Set 1 in Latin lookup 22 subtable" asterisk.v
Substitution2: "'vert' Vertical Alternates in Latin lookup 21 subtable" asterisk.v
EndChar

StartChar: plus
Encoding: 43 43 14
Width: 834
GlyphClass: 2
Flags: W
LayerCount: 2
Fore
SplineSet
415 -56 m 2,0,-1
 291 -56 l 2,1,2
 266 -56 266 -56 255.5 -45 c 128,-1,3
 245 -34 245 -34 245 -10 c 2,4,-1
 245 148 l 1,5,-1
 92 148 l 2,6,7
 68 148 68 148 57 158.5 c 128,-1,8
 46 169 46 169 46 194 c 2,9,-1
 46 308 l 2,10,11
 46 321 46 321 49.5 330 c 128,-1,12
 53 339 53 339 60 345 c 2,13,-1
 189 454 l 2,14,15
 194 458 194 458 202.5 460.5 c 128,-1,16
 211 463 211 463 221 463 c 2,17,-1
 245 463 l 1,18,-1
 245 512 l 2,19,20
 245 525 245 525 248 534 c 128,-1,21
 251 543 251 543 257 548 c 2,22,-1
 258 549 l 1,23,-1
 388 658 l 2,24,25
 393 662 393 662 401 664.5 c 128,-1,26
 409 667 409 667 420 667 c 2,27,-1
 544 667 l 2,28,29
 568 667 568 667 579 656 c 128,-1,30
 590 645 590 645 590 621 c 2,31,-1
 590 463 l 1,32,-1
 743 463 l 2,33,34
 767 463 767 463 778 452.5 c 128,-1,35
 789 442 789 442 789 417 c 2,36,-1
 789 303 l 2,37,38
 789 290 789 290 785.5 281 c 128,-1,39
 782 272 782 272 775 266 c 2,40,-1
 646 157 l 2,41,42
 640 153 640 153 632 150.5 c 128,-1,43
 624 148 624 148 614 148 c 2,44,-1
 590 148 l 1,45,-1
 590 99 l 2,46,47
 590 86 590 86 586.5 77 c 128,-1,48
 583 68 583 68 576 62 c 2,49,-1
 447 -47 l 2,50,51
 441 -51 441 -51 433 -53.5 c 128,-1,52
 425 -56 425 -56 415 -56 c 2,0,-1
580 99 m 2,53,-1
 580 267 l 1,54,-1
 743 267 l 2,55,56
 762 267 762 267 770.5 275.5 c 128,-1,57
 779 284 779 284 779 303 c 2,58,-1
 779 417 l 2,59,60
 779 436 779 436 770.5 444.5 c 128,-1,61
 762 453 762 453 743 453 c 2,62,-1
 580 453 l 1,63,-1
 580 621 l 2,64,65
 580 640 580 640 571.5 648.5 c 128,-1,66
 563 657 563 657 544 657 c 2,67,-1
 420 657 l 2,68,69
 401 657 401 657 392.5 648.5 c 128,-1,70
 384 640 384 640 384 621 c 2,71,-1
 384 453 l 1,72,-1
 221 453 l 2,73,74
 202 453 202 453 193.5 444.5 c 128,-1,75
 185 436 185 436 185 417 c 2,76,-1
 185 303 l 2,77,78
 185 284 185 284 193.5 275.5 c 128,-1,79
 202 267 202 267 221 267 c 2,80,-1
 384 267 l 1,81,-1
 384 99 l 2,82,83
 384 80 384 80 392.5 71.5 c 128,-1,84
 401 63 401 63 420 63 c 2,85,-1
 544 63 l 2,86,87
 563 63 563 63 571.5 71.5 c 128,-1,88
 580 80 580 80 580 99 c 2,53,-1
477 153 m 1,89,-1
 477 355 l 1,90,-1
 275 355 l 1,91,-1
 275 365 l 1,92,-1
 477 365 l 1,93,-1
 477 567 l 1,94,-1
 487 567 l 1,95,-1
 487 365 l 1,96,-1
 689 365 l 1,97,-1
 689 355 l 1,98,-1
 487 355 l 1,99,-1
 487 153 l 1,100,-1
 477 153 l 1,89,-1
EndSplineSet
Validated: 1
EndChar

StartChar: comma
Encoding: 44 44 15
Width: 484
GlyphClass: 2
Flags: W
LayerCount: 2
Fore
SplineSet
296 -100 m 2,0,1
 363 -100 363 -100 403.5 -62.5 c 128,-1,2
 444 -25 444 -25 444 51 c 2,3,-1
 444 239 l 2,4,5
 444 258 444 258 435.5 266.5 c 128,-1,6
 427 275 427 275 408 275 c 2,7,-1
 206 275 l 2,8,9
 187 275 187 275 178.5 266.5 c 128,-1,10
 170 258 170 258 170 239 c 2,11,-1
 170 91 l 2,12,13
 170 72 170 72 178.5 63.5 c 128,-1,14
 187 55 187 55 206 55 c 2,15,-1
 315 55 l 1,16,-1
 315 40 l 2,17,18
 315 27 315 27 308 19.5 c 128,-1,19
 301 12 301 12 288 12 c 2,20,-1
 219 12 l 2,21,22
 200 12 200 12 191.5 3.5 c 128,-1,23
 183 -5 183 -5 183 -24 c 2,24,-1
 183 -64 l 2,25,26
 183 -83 183 -83 191.5 -91.5 c 128,-1,27
 200 -100 200 -100 219 -100 c 2,28,-1
 296 -100 l 2,0,1
374 170 m 1,29,-1
 374 51 l 2,30,31
 374 5 374 5 350 -17.5 c 128,-1,32
 326 -40 326 -40 286 -40 c 2,33,-1
 240 -40 l 1,34,-1
 240 -30 l 1,35,-1
 286 -30 l 2,36,37
 322 -30 322 -30 343 -9.5 c 128,-1,38
 364 11 364 11 364 51 c 2,39,-1
 364 160 l 1,40,-1
 240 160 l 1,41,-1
 240 170 l 1,42,-1
 374 170 l 1,29,-1
46.9401546936 -79.1653987974 m 1,43,44
 11.0039217892 -65.6184928219 11.0039217892 -65.6184928219 11.0039217892 -18 c 2,45,-1
 11.0039217892 130 l 2,46,47
 11.0039217892 164.202520471 11.0039217892 164.202520471 32.1058165358 182.289858825 c 2,48,-1
 161.105816536 291.289858825 l 2,49,50
 178.218318473 304.996078211 178.218318473 304.996078211 206 304.996078211 c 2,51,-1
 408 304.996078211 l 2,52,53
 440.143116071 304.996078211 440.143116071 304.996078211 457.069597141 288.069597141 c 128,-1,54
 473.996078211 271.143116071 473.996078211 271.143116071 473.996078211 239 c 2,55,-1
 473.996078211 51 l 2,56,57
 473.996078211 2.87732486991 473.996078211 2.87732486991 459.871527828 -30.0799593565 c 0,58,59
 443.582769164 -68.0870629065 443.582769164 -68.0870629065 417.111783737 -91.1054754891 c 2,60,-1
 286.868563578 -200.311470027 l 2,61,62
 264.9112206 -218.801864113 264.9112206 -218.801864113 234.058949062 -228.898971162 c 128,-1,63
 203.206677524 -238.996078211 203.206677524 -238.996078211 167 -238.996078211 c 2,64,-1
 90 -238.996078211 l 2,65,66
 24.0039217892 -238.996078211 24.0039217892 -238.996078211 24.0039217892 -173 c 2,67,-1
 24.0039217892 -133 l 2,68,69
 24.0039217892 -98.7978282302 24.0039217892 -98.7978282302 45.1314364224 -80.6885299732 c 2,70,-1
 46.9401546936 -79.1653987974 l 1,43,44
408 285 m 2,71,-1
 206 285 l 2,72,73
 185.332334207 285 185.332334207 285 173.892245485 275.908951611 c 0,74,75
 44.0604103244 166.206083142 44.0604103244 166.206083142 42.9899738197 165.135646638 c 0,76,77
 31 153.145672818 31 153.145672818 31 130 c 2,78,-1
 31 -18 l 2,79,80
 31 -41.8869713705 31 -41.8869713705 41.1900932825 -52.077064653 c 128,-1,81
 51.3801865651 -62.2671579356 51.3801865651 -62.2671579356 69.7619837867 -63.7252724405 c 0,82,83
 73.4323234164 -64.0164178267 73.4323234164 -64.0164178267 76.5022362168 -67.0863306271 c 128,-1,84
 79.5721490171 -70.1562434275 79.5721490171 -70.1562434275 79.5721490171 -73.6917773334 c 0,85,86
 79.5721490171 -77.8377978426 79.5721490171 -77.8377978426 75.3998290882 -81.3475123468 c 0,87,88
 57.0883529605 -96.7677027701 57.0883529605 -96.7677027701 55.9991460931 -97.8569096375 c 0,89,90
 44 -109.856055731 44 -109.856055731 44 -133 c 2,91,-1
 44 -173 l 2,92,93
 44 -197.509827375 44 -197.509827375 54.7450173753 -208.254930849 c 128,-1,94
 65.4900004281 -219 65.4900004281 -219 90 -219 c 2,95,-1
 167 -219 l 2,96,97
 200 -219 200 -219 227.5 -210 c 128,-1,98
 255 -201 255 -201 274 -185 c 2,99,-1
 404.067842961 -75.943116318 l 2,100,101
 427.019630328 -55.9541959024 427.019630328 -55.9541959024 440.509815164 -24.4770979512 c 128,-1,102
 454 7 454 7 454 51 c 2,103,-1
 454 239 l 2,104,105
 454 262.854923034 454 262.854923034 442.927461517 273.927461517 c 128,-1,106
 431.854923034 285 431.854923034 285 408 285 c 2,71,-1
EndSplineSet
Validated: 524297
Substitution2: "'ss01' Style Set 1 in Latin lookup 22 subtable" comma.v
Substitution2: "'vert' Vertical Alternates in Latin lookup 21 subtable" comma.v
EndChar

StartChar: hyphen
Encoding: 45 45 16
Width: 520
GlyphClass: 2
Flags: W
LayerCount: 2
Fore
SplineSet
191 257 m 2,0,-1
 459 257 l 2,1,2
 478 257 478 257 486.5 265.5 c 128,-1,3
 495 274 495 274 495 293 c 2,4,-1
 495 427 l 2,5,6
 495 446 495 446 486.5 454.5 c 128,-1,7
 478 463 478 463 459 463 c 2,8,-1
 191 463 l 2,9,10
 172 463 172 463 163.5 454.5 c 128,-1,11
 155 446 155 446 155 427 c 2,12,-1
 155 293 l 2,13,14
 155 274 155 274 163.5 265.5 c 128,-1,15
 172 257 172 257 191 257 c 2,0,-1
405 365 m 1,16,-1
 405 355 l 1,17,-1
 245 355 l 1,18,-1
 245 365 l 1,19,-1
 405 365 l 1,16,-1
459 492.996078211 m 2,20,21
 524.996078211 492.996078211 524.996078211 492.996078211 524.996078211 427 c 2,22,-1
 524.996078211 293 l 2,23,24
 524.996078211 258.797479529 524.996078211 258.797479529 503.894183464 240.710141175 c 0,25,26
 374.485172112 131.364542436 374.485172112 131.364542436 374.043109608 131.065604442 c 0,27,28
 354.72779923 118.003921789 354.72779923 118.003921789 330 118.003921789 c 2,29,-1
 62 118.003921789 l 2,30,31
 -3.99607821081 118.003921789 -3.99607821081 118.003921789 -3.99607821081 184 c 2,32,-1
 -3.99607821081 318 l 2,33,34
 -3.99607821081 352.202520471 -3.99607821081 352.202520471 17.1058165358 370.289858825 c 2,35,-1
 146.105816536 479.289858825 l 2,36,37
 163.218318473 492.996078211 163.218318473 492.996078211 191 492.996078211 c 2,38,-1
 459 492.996078211 l 2,20,21
16 318 m 2,39,-1
 16 184 l 2,40,41
 16 159.490172625 16 159.490172625 26.7450173753 148.745069151 c 128,-1,42
 37.4900004281 138 37.4900004281 138 62 138 c 2,43,-1
 330 138 l 2,44,45
 348.323290665 138 348.323290665 138 362.42488566 147.359011914 c 0,46,47
 491.939589676 256.793916858 491.939589676 256.793916858 493.01002618 257.864353362 c 0,48,49
 505 269.854327182 505 269.854327182 505 293 c 2,50,-1
 505 427 l 2,51,52
 505 451.509827375 505 451.509827375 494.254982625 462.254930849 c 128,-1,53
 483.509999572 473 483.509999572 473 459 473 c 2,54,-1
 191 473 l 2,55,56
 170.332334207 473 170.332334207 473 158.892245485 463.908951611 c 0,57,58
 29.0604103245 354.206083142 29.0604103245 354.206083142 27.9899738197 353.135646638 c 0,59,60
 16 341.145672818 16 341.145672818 16 318 c 2,39,-1
EndSplineSet
Validated: 524297
Substitution2: "'ss10' Style Set 10 in Latin lookup 25 subtable" hyphen.v
Substitution2: "'ss01' Style Set 1 in Latin lookup 22 subtable" hyphen.v
Substitution2: "'vert' Vertical Alternates in Latin lookup 21 subtable" hyphen.v
EndChar

StartChar: period
Encoding: 46 46 17
Width: 484
GlyphClass: 2
Flags: W
LayerCount: 2
Fore
SplineSet
408 0 m 2,0,1
 427 0 427 0 435.5 8.5 c 128,-1,2
 444 17 444 17 444 36 c 2,3,-1
 444 239 l 2,4,5
 444 258 444 258 435.5 266.5 c 128,-1,6
 427 275 427 275 408 275 c 2,7,-1
 206 275 l 2,8,9
 187 275 187 275 178.5 266.5 c 128,-1,10
 170 258 170 258 170 239 c 2,11,-1
 170 36 l 2,12,13
 170 17 170 17 178.5 8.5 c 128,-1,14
 187 0 187 0 206 0 c 2,15,-1
 408 0 l 2,0,1
302 90 m 1,16,-1
 302 185 l 1,17,-1
 312 185 l 1,18,-1
 312 90 l 1,19,-1
 302 90 l 1,16,-1
408 304.996078211 m 2,20,21
 473.996078211 304.996078211 473.996078211 304.996078211 473.996078211 239 c 2,22,-1
 473.996078211 36 l 2,23,24
 473.996078211 1.7952494323 473.996078211 1.7952494323 453.003080782 -16.1987483638 c 0,25,26
 388.228802202 -70.0112259538 388.228802202 -70.0112259538 323.33629321 -123.923475239 c 0,27,28
 316.237367895 -130.598191814 316.237367895 -130.598191814 304.340362167 -134.797135013 c 128,-1,29
 292.443356438 -138.996078211 292.443356438 -138.996078211 279 -138.996078211 c 2,30,-1
 77 -138.996078211 l 2,31,32
 44.856883929 -138.996078211 44.856883929 -138.996078211 27.9304028591 -122.069597141 c 128,-1,33
 11.0039217892 -105.143116071 11.0039217892 -105.143116071 11.0039217892 -73 c 2,34,-1
 11.0039217892 130 l 2,35,36
 11.0039217892 165.538769322 11.0039217892 165.538769322 31.1642716497 182.339060873 c 2,37,-1
 161.16427165 291.339060873 l 2,38,39
 178.220480719 304.996078211 178.220480719 304.996078211 206 304.996078211 c 2,40,-1
 408 304.996078211 l 2,20,21
77 -119 m 2,41,-1
 279 -119 l 2,42,43
 289 -119 289 -119 297.374548239 -116.044277092 c 128,-1,44
 305.749096478 -113.088554184 305.749096478 -113.088554184 309.77078988 -109.224633298 c 0,45,46
 440.912629471 -0.241590556895 440.912629471 -0.241590556895 442.049220487 0.895000458778 c 0,47,48
 454 12.8457799719 454 12.8457799719 454 36 c 2,49,-1
 454 239 l 2,50,51
 454 263.509827375 454 263.509827375 443.254982625 274.254930849 c 128,-1,52
 432.509999572 285 432.509999572 285 408 285 c 2,53,-1
 206 285 l 2,54,55
 185.321413133 285 185.321413133 285 173.907048561 275.922063793 c 0,56,57
 42.932654785 166.105072089 42.932654785 166.105072089 42.0393432157 165.21176052 c 0,58,59
 31 154.172417304 31 154.172417304 31 130 c 2,60,-1
 31 -73 l 2,61,62
 31 -96.8549230344 31 -96.8549230344 42.0725384828 -107.927461517 c 128,-1,63
 53.1450769656 -119 53.1450769656 -119 77 -119 c 2,41,-1
EndSplineSet
Validated: 524297
Substitution2: "'ss01' Style Set 1 in Latin lookup 22 subtable" period.v
Substitution2: "'vert' Vertical Alternates in Latin lookup 21 subtable" period.v
EndChar

StartChar: slash
Encoding: 47 47 18
Width: 487
GlyphClass: 2
Flags: W
LayerCount: 2
Fore
SplineSet
194 -208 m 2,0,-1
 49 -208 l 2,1,2
 24 -208 24 -208 12 -196.5 c 128,-1,3
 0 -185 0 -185 3 -161 c 2,4,-1
 123 667 l 2,5,6
 124 680 124 680 127.5 689 c 128,-1,7
 131 698 131 698 138 704 c 6,8,-1
 267 812 l 6,9,10
 272 816 272 816 280 818.5 c 128,-1,11
 288 821 288 821 298 821 c 2,12,-1
 322 821 l 0,13,-1
 443 821 l 2,14,15
 468 821 468 821 480 809.5 c 128,-1,16
 492 798 492 798 489 774 c 2,17,-1
 369 -54 l 2,18,19
 367 -67 367 -67 363.5 -76.5 c 128,-1,20
 360 -86 360 -86 353 -90 c 2,21,-1
 224 -199 l 2,22,23
 218 -203 218 -203 211 -205.5 c 128,-1,24
 204 -208 204 -208 194 -208 c 2,0,-1
142 -54 m 2,25,26
 140 -73 140 -73 149.5 -81.5 c 128,-1,27
 159 -90 159 -90 178 -90 c 2,28,-1
 323 -90 l 2,29,30
 342 -90 342 -90 349.5 -81.5 c 128,-1,31
 357 -73 357 -73 359 -54 c 2,32,-1
 479 774 l 2,33,34
 481 793 481 793 471.5 801.5 c 128,-1,35
 462 810 462 810 443 810 c 2,36,-1
 298 810 l 2,37,38
 279 810 279 810 271.5 801.5 c 128,-1,39
 264 793 264 793 262 774 c 2,40,-1
 142 -54 l 2,25,26
358 720 m 1,41,-1
 368 720 l 1,42,-1
 264 0 l 1,43,-1
 254 0 l 1,44,-1
 358 720 l 1,41,-1
EndSplineSet
Validated: 33
EndChar

StartChar: zero
Encoding: 48 48 19
Width: 827
GlyphClass: 2
Flags: W
LayerCount: 2
Fore
SplineSet
604 -72 m 2,0,1
 570 -101 570 -101 508.5 -117.5 c 128,-1,2
 447 -134 447 -134 350 -134 c 0,3,4
 254 -134 254 -134 192 -113.5 c 128,-1,5
 130 -93 130 -93 95 -59 c 128,-1,6
 60 -25 60 -25 47 19 c 128,-1,7
 34 63 34 63 34 110 c 2,8,-1
 34 421 l 2,9,10
 34 468 34 468 47 507 c 128,-1,11
 60 546 60 546 94 574 c 2,12,-1
 224 683 l 2,13,14
 258 712 258 712 319.5 728.5 c 128,-1,15
 381 745 381 745 479 745 c 0,16,17
 575 745 575 745 637 729 c 128,-1,18
 699 713 699 713 733.5 684.5 c 128,-1,19
 768 656 768 656 781 616.5 c 128,-1,20
 794 577 794 577 794 530 c 2,21,-1
 794 189 l 2,22,23
 794 143 794 143 781 103.5 c 128,-1,24
 768 64 768 64 734 36 c 2,25,-1
 604 -72 l 2,0,1
784 189 m 2,26,-1
 784 530 l 2,27,28
 784 576 784 576 771 613.5 c 128,-1,29
 758 651 758 651 724 678 c 128,-1,30
 690 705 690 705 630.5 720 c 128,-1,31
 571 735 571 735 479 735 c 256,32,33
 387 735 387 735 327.5 720 c 128,-1,34
 268 705 268 705 234 678 c 128,-1,35
 200 651 200 651 186.5 613.5 c 128,-1,36
 173 576 173 576 173 530 c 2,37,-1
 173 189 l 2,38,39
 173 143 173 143 186.5 105.5 c 128,-1,40
 200 68 200 68 234 41.5 c 128,-1,41
 268 15 268 15 327.5 0 c 128,-1,42
 387 -15 387 -15 479 -15 c 256,43,44
 571 -15 571 -15 630.5 0 c 128,-1,45
 690 15 690 15 724 41.5 c 128,-1,46
 758 68 758 68 771 105.5 c 128,-1,47
 784 143 784 143 784 189 c 2,26,-1
281 212 m 2,48,-1
 281 507 l 2,49,50
 281 537 281 537 290 562 c 128,-1,51
 299 587 299 587 321 604.5 c 128,-1,52
 343 622 343 622 381.5 632 c 128,-1,53
 420 642 420 642 478 642 c 0,54,55
 594 642 594 642 635.5 604 c 128,-1,56
 677 566 677 566 677 507 c 2,57,-1
 677 212 l 2,58,59
 677 152 677 152 635.5 114.5 c 128,-1,60
 594 77 594 77 478 77 c 0,61,62
 420 77 420 77 381.5 87 c 128,-1,63
 343 97 343 97 321 114.5 c 128,-1,64
 299 132 299 132 290 157 c 128,-1,65
 281 182 281 182 281 212 c 2,48,-1
478 632 m 256,66,67
 371 632 371 632 331 598 c 128,-1,68
 291 564 291 564 291 507 c 2,69,-1
 291 212 l 2,70,71
 291 155 291 155 331 121 c 128,-1,72
 371 87 371 87 478 87 c 256,73,74
 585 87 585 87 626 121 c 128,-1,75
 667 155 667 155 667 212 c 2,76,-1
 667 507 l 2,77,78
 667 563 667 563 626 597.5 c 128,-1,79
 585 632 585 632 478 632 c 256,66,67
399 225 m 2,80,-1
 399 494 l 2,81,82
 399 513 399 513 413.5 526.5 c 128,-1,83
 428 540 428 540 479 540 c 256,84,85
 530 540 530 540 544.5 526.5 c 128,-1,86
 559 513 559 513 559 494 c 2,87,-1
 559 225 l 2,88,89
 559 205 559 205 544.5 191.5 c 128,-1,90
 530 178 530 178 479 178 c 256,91,92
 428 178 428 178 413.5 191.5 c 128,-1,93
 399 205 399 205 399 225 c 2,80,-1
409 225 m 2,94,95
 409 218 409 218 411 211 c 128,-1,96
 413 204 413 204 420 200 c 1,97,-1
 420 385 l 2,98,99
 420 392 420 392 418 399 c 128,-1,100
 416 406 416 406 409 410 c 1,101,-1
 409 225 l 2,94,95
EndSplineSet
Validated: 1
Substitution2: "'ss01' Style Set 1 in Latin lookup 22 subtable" zero.v
Substitution2: "'vert' Vertical Alternates in Latin lookup 21 subtable" zero.v
Substitution2: "'sinf' Scientific Inferiors in Latin lookup 4 subtable" zero.sinf
Substitution2: "'sups' Superscript in Latin lookup 3 subtable" zero.sups
EndChar

StartChar: one
Encoding: 49 49 20
Width: 701
GlyphClass: 2
Flags: W
LayerCount: 2
Fore
SplineSet
512 -119 m 2,0,-1
 70 -119 l 2,1,2
 46 -119 46 -119 35 -108 c 128,-1,3
 24 -97 24 -97 24 -73 c 2,4,-1
 24 48 l 2,5,6
 24 61 24 61 27.5 70 c 128,-1,7
 31 79 31 79 38 85 c 2,8,-1
 167 194 l 2,9,10
 168 195 168 195 169.5 195.5 c 128,-1,11
 171 196 171 196 172 197 c 2,12,-1
 172 408 l 1,13,-1
 90 408 l 2,14,15
 66 408 66 408 55 419 c 128,-1,16
 44 430 44 430 44 454 c 2,17,-1
 44 575 l 2,18,19
 44 588 44 588 47.5 597 c 128,-1,20
 51 606 51 606 58 612 c 2,21,-1
 187 721 l 2,22,23
 192 725 192 725 200.5 727.5 c 128,-1,24
 209 730 209 730 219 730 c 2,25,-1
 509 730 l 2,26,27
 533 730 533 730 544 719 c 128,-1,28
 555 708 555 708 555 684 c 2,29,-1
 555 203 l 1,30,-1
 641 203 l 2,31,32
 665 203 665 203 676 192 c 128,-1,33
 687 181 687 181 687 157 c 2,34,-1
 687 36 l 2,35,36
 687 23 687 23 683.5 14 c 128,-1,37
 680 5 680 5 673 -1 c 2,38,-1
 543 -109 l 2,39,40
 539 -113 539 -113 530.5 -116 c 128,-1,41
 522 -119 522 -119 512 -119 c 2,0,-1
641 0 m 2,42,43
 660 0 660 0 668.5 8.5 c 128,-1,44
 677 17 677 17 677 36 c 2,45,-1
 677 157 l 2,46,47
 677 176 677 176 668.5 184.5 c 128,-1,48
 660 193 660 193 641 193 c 2,49,-1
 545 193 l 1,50,-1
 545 684 l 2,51,52
 545 703 545 703 536.5 711.5 c 128,-1,53
 528 720 528 720 509 720 c 2,54,-1
 219 720 l 2,55,56
 200 720 200 720 191.5 711.5 c 128,-1,57
 183 703 183 703 183 684 c 2,58,-1
 183 563 l 2,59,60
 183 544 183 544 191.5 535.5 c 128,-1,61
 200 527 200 527 219 527 c 2,62,-1
 311 527 l 1,63,-1
 311 193 l 1,64,-1
 199 193 l 2,65,66
 180 193 180 193 171.5 184.5 c 128,-1,67
 163 176 163 176 163 157 c 2,68,-1
 163 36 l 2,69,70
 163 17 163 17 171.5 8.5 c 128,-1,71
 180 0 180 0 199 0 c 2,72,-1
 641 0 l 2,42,43
253 85 m 1,73,-1
 253 95 l 1,74,-1
 423 95 l 1,75,-1
 423 620 l 1,76,-1
 273 620 l 1,77,-1
 273 630 l 1,78,-1
 433 630 l 1,79,-1
 433 95 l 1,80,-1
 587 95 l 1,81,-1
 587 85 l 1,82,-1
 253 85 l 1,73,-1
EndSplineSet
Validated: 1
Substitution2: "'ss01' Style Set 1 in Latin lookup 22 subtable" one.v
Substitution2: "'vert' Vertical Alternates in Latin lookup 21 subtable" one.v
Substitution2: "'sinf' Scientific Inferiors in Latin lookup 4 subtable" one.sinf
Substitution2: "'sups' Superscript in Latin lookup 3 subtable" one.sups
EndChar

StartChar: two
Encoding: 50 50 21
Width: 739
GlyphClass: 2
Flags: W
LayerCount: 2
Fore
SplineSet
538 -119 m 2,0,-1
 62 -119 l 2,1,2
 38 -119 38 -119 27 -108 c 128,-1,3
 16 -97 16 -97 16 -73 c 2,4,-1
 16 99 l 2,5,6
 16 171 16 171 33 213 c 128,-1,7
 50 255 50 255 80 280 c 2,8,-1
 209 389 l 2,9,10
 217 396 217 396 226 401.5 c 128,-1,11
 235 407 235 407 245 412 c 1,12,-1
 100 412 l 2,13,14
 76 412 76 412 65 423 c 128,-1,15
 54 434 54 434 54 458 c 2,16,-1
 54 575 l 2,17,18
 54 588 54 588 57.5 597 c 128,-1,19
 61 606 61 606 68 612 c 2,20,-1
 197 721 l 2,21,22
 202 725 202 725 210.5 727.5 c 128,-1,23
 219 730 219 730 229 730 c 2,24,-1
 524 730 l 2,25,26
 614 730 614 730 662 684.5 c 128,-1,27
 710 639 710 639 710 554 c 2,28,-1
 710 460 l 2,29,30
 710 414 710 414 695 381 c 128,-1,31
 680 348 680 348 652 325 c 2,32,-1
 523 217 l 2,33,34
 517 213 517 213 510.5 208 c 128,-1,35
 504 203 504 203 497 199 c 1,36,-1
 667 199 l 2,37,38
 691 199 691 199 702 188 c 128,-1,39
 713 177 713 177 713 153 c 2,40,-1
 713 36 l 2,41,42
 713 23 713 23 709.5 14 c 128,-1,43
 706 5 706 5 699 -1 c 2,44,-1
 569 -109 l 2,45,46
 565 -113 565 -113 556.5 -116 c 128,-1,47
 548 -119 548 -119 538 -119 c 2,0,-1
667 0 m 2,48,49
 686 0 686 0 694.5 8.5 c 128,-1,50
 703 17 703 17 703 36 c 2,51,-1
 703 153 l 2,52,53
 703 172 703 172 694.5 180.5 c 128,-1,54
 686 189 686 189 667 189 c 2,55,-1
 382 189 l 1,56,-1
 382 210 l 2,57,58
 382 226 382 226 387.5 231 c 128,-1,59
 393 236 393 236 408 240 c 2,60,-1
 544 283 l 2,61,62
 616 305 616 305 658 345 c 128,-1,63
 700 385 700 385 700 460 c 2,64,-1
 700 554 l 2,65,66
 700 635 700 635 654.5 677.5 c 128,-1,67
 609 720 609 720 524 720 c 2,68,-1
 229 720 l 2,69,70
 210 720 210 720 201.5 711.5 c 128,-1,71
 193 703 193 703 193 684 c 2,72,-1
 193 567 l 2,73,74
 193 548 193 548 201.5 539.5 c 128,-1,75
 210 531 210 531 229 531 c 2,76,-1
 446 531 l 2,77,78
 461 531 461 531 467 525.5 c 128,-1,79
 473 520 473 520 473 505 c 0,80,81
 473 489 473 489 467.5 481 c 128,-1,82
 462 473 462 473 446 469 c 2,83,-1
 312 427 l 2,84,85
 278 417 278 417 249 403 c 128,-1,86
 220 389 220 389 199 365 c 128,-1,87
 178 341 178 341 166.5 303.5 c 128,-1,88
 155 266 155 266 155 208 c 2,89,-1
 155 36 l 2,90,91
 155 17 155 17 163.5 8.5 c 128,-1,92
 172 0 172 0 191 0 c 2,93,-1
 667 0 l 2,48,49
319 328 m 2,94,-1
 552 405 l 2,95,96
 565 410 565 410 573 421.5 c 128,-1,97
 581 433 581 433 581 452 c 2,98,-1
 581 543 l 2,99,100
 581 589 581 589 555 604.5 c 128,-1,101
 529 620 529 620 484 620 c 2,102,-1
 283 620 l 1,103,-1
 283 630 l 1,104,-1
 484 630 l 2,105,106
 535 630 535 630 563 611.5 c 128,-1,107
 591 593 591 593 591 543 c 2,108,-1
 591 452 l 2,109,110
 591 429 591 429 581.5 416 c 128,-1,111
 572 403 572 403 556 396 c 2,112,-1
 323 319 l 2,113,114
 295 309 295 309 284 294.5 c 128,-1,115
 273 280 273 280 273 246 c 2,116,-1
 273 100 l 1,117,-1
 613 100 l 1,118,-1
 613 90 l 1,119,-1
 264 90 l 1,120,-1
 264 246 l 2,121,122
 264 283 264 283 276 300.5 c 128,-1,123
 288 318 288 318 319 328 c 2,94,-1
EndSplineSet
Validated: 1
Substitution2: "'ss01' Style Set 1 in Latin lookup 22 subtable" two.v
Substitution2: "'vert' Vertical Alternates in Latin lookup 21 subtable" two.v
Substitution2: "'sinf' Scientific Inferiors in Latin lookup 4 subtable" two.sinf
Substitution2: "'sups' Superscript in Latin lookup 3 subtable" two.sups
EndChar

StartChar: three
Encoding: 51 51 22
Width: 737
GlyphClass: 2
Flags: W
LayerCount: 2
Fore
SplineSet
71 -119 m 2,0,1
 47 -119 47 -119 36 -108 c 128,-1,2
 25 -97 25 -97 25 -73 c 2,3,-1
 25 44 l 2,4,5
 25 57 25 57 28.5 66 c 128,-1,6
 32 75 32 75 39 81 c 2,7,-1
 132 159 l 1,8,9
 119 163 119 163 112.5 173.5 c 128,-1,10
 106 184 106 184 106 202 c 2,11,-1
 106 309 l 2,12,13
 106 322 106 322 109.5 331 c 128,-1,14
 113 340 113 340 120 346 c 2,15,-1
 196 410 l 1,16,-1
 71 410 l 2,17,18
 47 410 47 410 36 421 c 128,-1,19
 25 432 25 432 25 456 c 2,20,-1
 25 575 l 2,21,22
 25 588 25 588 28.5 597 c 128,-1,23
 32 606 32 606 39 612 c 2,24,-1
 168 721 l 2,25,26
 173 725 173 725 181.5 727.5 c 128,-1,27
 190 730 190 730 200 730 c 2,28,-1
 479 730 l 2,29,30
 568 730 568 730 610.5 688 c 128,-1,31
 653 646 653 646 653 577 c 2,32,-1
 653 519 l 2,33,34
 653 486 653 486 644 460.5 c 128,-1,35
 635 435 635 435 615 418 c 2,36,-1
 613 416 l 1,37,38
 672 403 672 403 696 366 c 128,-1,39
 720 329 720 329 720 266 c 2,40,-1
 720 166 l 2,41,42
 720 124 720 124 706 90.5 c 128,-1,43
 692 57 692 57 664 34 c 2,44,-1
 536 -74 l 2,45,46
 511 -96 511 -96 473.5 -107.5 c 128,-1,47
 436 -119 436 -119 387 -119 c 2,48,-1
 71 -119 l 2,0,1
200 189 m 2,49,50
 181 189 181 189 172.5 180.5 c 128,-1,51
 164 172 164 172 164 153 c 2,52,-1
 164 36 l 2,53,54
 164 17 164 17 172.5 8.5 c 128,-1,55
 181 0 181 0 200 0 c 2,56,-1
 516 0 l 2,57,58
 612 0 612 0 661 44.5 c 128,-1,59
 710 89 710 89 710 166 c 2,60,-1
 710 266 l 2,61,62
 710 332 710 332 682.5 367.5 c 128,-1,63
 655 403 655 403 584 411 c 1,64,65
 617 425 617 425 630 453 c 128,-1,66
 643 481 643 481 643 519 c 2,67,-1
 643 577 l 2,68,69
 643 643 643 643 602.5 681.5 c 128,-1,70
 562 720 562 720 479 720 c 2,71,-1
 200 720 l 2,72,73
 181 720 181 720 172.5 711.5 c 128,-1,74
 164 703 164 703 164 684 c 2,75,-1
 164 565 l 2,76,77
 164 546 164 546 172.5 537.5 c 128,-1,78
 181 529 181 529 200 529 c 2,79,-1
 386 529 l 2,80,81
 410 529 410 529 417 520 c 128,-1,82
 424 511 424 511 424 499 c 2,83,-1
 424 484 l 2,84,85
 424 472 424 472 417 463 c 128,-1,86
 410 454 410 454 386 454 c 2,87,-1
 281 454 l 2,88,89
 262 454 262 454 253.5 445.5 c 128,-1,90
 245 437 245 437 245 418 c 2,91,-1
 245 311 l 2,92,93
 245 292 245 292 253.5 283.5 c 128,-1,94
 262 275 262 275 281 275 c 2,95,-1
 451 275 l 2,96,97
 475 275 475 275 482 266.5 c 128,-1,98
 489 258 489 258 489 246 c 2,99,-1
 489 219 l 2,100,101
 489 207 489 207 482 198 c 128,-1,102
 475 189 475 189 451 189 c 2,103,-1
 200 189 l 2,49,50
335 359 m 1,104,-1
 335 369 l 1,105,-1
 418 369 l 2,106,107
 456 369 456 369 478 376.5 c 128,-1,108
 500 384 500 384 511.5 396.5 c 128,-1,109
 523 409 523 409 526 425.5 c 128,-1,110
 529 442 529 442 529 460 c 2,111,-1
 529 528 l 2,112,113
 529 567 529 567 505 593.5 c 128,-1,114
 481 620 481 620 408 620 c 2,115,-1
 254 620 l 1,116,-1
 254 630 l 1,117,-1
 408 630 l 2,118,119
 449 630 449 630 475 621.5 c 128,-1,120
 501 613 501 613 515 598.5 c 128,-1,121
 529 584 529 584 534 565 c 128,-1,122
 539 546 539 546 539 524 c 2,123,-1
 539 460 l 2,124,125
 539 432 539 432 528.5 404.5 c 128,-1,126
 518 377 518 377 473 367 c 1,127,-1
 489 367 l 2,128,129
 551 367 551 367 578 339 c 128,-1,130
 605 311 605 311 605 259 c 2,131,-1
 605 190 l 2,132,133
 605 168 605 168 600 149.5 c 128,-1,134
 595 131 595 131 581.5 118 c 128,-1,135
 568 105 568 105 542 97.5 c 128,-1,136
 516 90 516 90 474 90 c 2,137,-1
 254 90 l 1,138,-1
 254 100 l 1,139,-1
 474 100 l 2,140,141
 549 100 549 100 572 124.5 c 128,-1,142
 595 149 595 149 595 190 c 2,143,-1
 595 259 l 2,144,145
 595 309 595 309 569.5 334 c 128,-1,146
 544 359 544 359 487 359 c 2,147,-1
 335 359 l 1,104,-1
EndSplineSet
Validated: 1
Substitution2: "'ss01' Style Set 1 in Latin lookup 22 subtable" three.v
Substitution2: "'vert' Vertical Alternates in Latin lookup 21 subtable" three.v
Substitution2: "'sinf' Scientific Inferiors in Latin lookup 4 subtable" three.sinf
Substitution2: "'sups' Superscript in Latin lookup 3 subtable" three.sups
EndChar

StartChar: four
Encoding: 52 52 23
Width: 809
GlyphClass: 2
Flags: W
LayerCount: 2
Fore
SplineSet
590 -119 m 2,0,-1
 436 -119 l 2,1,2
 412 -119 412 -119 401 -108 c 128,-1,3
 390 -97 390 -97 390 -73 c 2,4,-1
 390 48 l 1,5,-1
 231 48 l 2,6,7
 128 48 128 48 83.5 106 c 128,-1,8
 39 164 39 164 39 254 c 2,9,-1
 39 575 l 2,10,11
 39 588 39 588 42.5 597 c 128,-1,12
 46 606 46 606 53 612 c 2,13,-1
 182 721 l 2,14,15
 187 725 187 725 195.5 727.5 c 128,-1,16
 204 730 204 730 214 730 c 2,17,-1
 369 730 l 2,18,19
 393 730 393 730 404 719 c 128,-1,20
 415 708 415 708 415 684 c 2,21,-1
 415 621 l 1,22,-1
 533 721 l 2,23,24
 538 725 538 725 546.5 727.5 c 128,-1,25
 555 730 555 730 565 730 c 2,26,-1
 719 730 l 2,27,28
 743 730 743 730 754 719 c 128,-1,29
 765 708 765 708 765 684 c 2,30,-1
 765 36 l 2,31,32
 765 23 765 23 761.5 14 c 128,-1,33
 758 5 758 5 751 -1 c 2,34,-1
 621 -109 l 2,35,36
 617 -113 617 -113 608.5 -116 c 128,-1,37
 600 -119 600 -119 590 -119 c 2,0,-1
529 167 m 1,38,-1
 529 36 l 2,39,40
 529 17 529 17 537.5 8.5 c 128,-1,41
 546 0 546 0 565 0 c 2,42,-1
 719 0 l 2,43,44
 738 0 738 0 746.5 8.5 c 128,-1,45
 755 17 755 17 755 36 c 2,46,-1
 755 684 l 2,47,48
 755 703 755 703 746.5 711.5 c 128,-1,49
 738 720 738 720 719 720 c 2,50,-1
 565 720 l 2,51,52
 546 720 546 720 537.5 711.5 c 128,-1,53
 529 703 529 703 529 684 c 2,54,-1
 529 376 l 1,55,-1
 436 376 l 2,56,57
 422 376 422 376 413.5 385 c 128,-1,58
 405 394 405 394 405 410 c 2,59,-1
 405 684 l 2,60,61
 405 703 405 703 396.5 711.5 c 128,-1,62
 388 720 388 720 369 720 c 2,63,-1
 214 720 l 2,64,65
 195 720 195 720 186.5 711.5 c 128,-1,66
 178 703 178 703 178 684 c 2,67,-1
 178 333 l 2,68,69
 178 248 178 248 220.5 207.5 c 128,-1,70
 263 167 263 167 360 167 c 2,71,-1
 529 167 l 1,38,-1
637 90 m 1,72,-1
 637 267 l 1,73,-1
 398 267 l 2,74,75
 341 267 341 267 314 293.5 c 128,-1,76
 287 320 287 320 287 372 c 2,77,-1
 287 630 l 1,78,-1
 297 630 l 1,79,-1
 297 372 l 2,80,81
 297 324 297 324 322 300.5 c 128,-1,82
 347 277 347 277 398 277 c 2,83,-1
 637 277 l 1,84,-1
 637 630 l 1,85,-1
 647 630 l 1,86,-1
 647 90 l 1,87,-1
 637 90 l 1,72,-1
EndSplineSet
Validated: 1
Substitution2: "'ss01' Style Set 1 in Latin lookup 22 subtable" four.v
Substitution2: "'vert' Vertical Alternates in Latin lookup 21 subtable" four.v
Substitution2: "'sinf' Scientific Inferiors in Latin lookup 4 subtable" four.sinf
Substitution2: "'sups' Superscript in Latin lookup 3 subtable" four.sups
EndChar

StartChar: five
Encoding: 53 53 24
Width: 747
GlyphClass: 2
Flags: W
LayerCount: 2
Fore
SplineSet
77 -119 m 2,0,1
 53 -119 53 -119 42 -108 c 128,-1,2
 31 -97 31 -97 31 -73 c 2,3,-1
 31 44 l 2,4,5
 31 57 31 57 34.5 66 c 128,-1,6
 38 75 38 75 45 81 c 2,7,-1
 133 155 l 1,8,-1
 87 155 l 2,9,10
 63 155 63 155 52 166 c 128,-1,11
 41 177 41 177 41 201 c 2,12,-1
 41 575 l 2,13,14
 41 588 41 588 44.5 597 c 128,-1,15
 48 606 48 606 55 612 c 2,16,-1
 184 721 l 2,17,18
 189 725 189 725 197.5 727.5 c 128,-1,19
 206 730 206 730 216 730 c 2,20,-1
 647 730 l 2,21,22
 671 730 671 730 682 719 c 128,-1,23
 693 708 693 708 693 684 c 2,24,-1
 693 565 l 2,25,26
 693 552 693 552 689.5 543 c 128,-1,27
 686 534 686 534 679 528 c 2,28,-1
 607 467 l 1,29,30
 664 454 664 454 696.5 413 c 128,-1,31
 729 372 729 372 729 305 c 2,32,-1
 729 166 l 2,33,34
 729 126 729 126 714.5 92.5 c 128,-1,35
 700 59 700 59 672 36 c 2,36,-1
 542 -73 l 2,37,38
 516 -95 516 -95 478.5 -107 c 128,-1,39
 441 -119 441 -119 395 -119 c 2,40,-1
 77 -119 l 2,0,1
524 0 m 2,41,42
 614 0 614 0 666.5 45 c 128,-1,43
 719 90 719 90 719 166 c 2,44,-1
 719 305 l 2,45,46
 719 384 719 384 672 424 c 128,-1,47
 625 464 625 464 544 464 c 2,48,-1
 407 464 l 1,49,-1
 407 529 l 1,50,-1
 647 529 l 2,51,52
 666 529 666 529 674.5 537.5 c 128,-1,53
 683 546 683 546 683 565 c 2,54,-1
 683 684 l 2,55,56
 683 703 683 703 674.5 711.5 c 128,-1,57
 666 720 666 720 647 720 c 2,58,-1
 216 720 l 2,59,60
 197 720 197 720 188.5 711.5 c 128,-1,61
 180 703 180 703 180 684 c 2,62,-1
 180 310 l 2,63,64
 180 291 180 291 188.5 282.5 c 128,-1,65
 197 274 197 274 216 274 c 2,66,-1
 464 274 l 2,67,68
 476 274 476 274 483.5 268.5 c 128,-1,69
 491 263 491 263 491 251 c 2,70,-1
 491 212 l 2,71,72
 491 200 491 200 483.5 194.5 c 128,-1,73
 476 189 476 189 464 189 c 2,74,-1
 206 189 l 2,75,76
 187 189 187 189 178.5 180.5 c 128,-1,77
 170 172 170 172 170 153 c 2,78,-1
 170 36 l 2,79,80
 170 17 170 17 178.5 8.5 c 128,-1,81
 187 0 187 0 206 0 c 2,82,-1
 524 0 l 2,41,42
260 90 m 1,83,-1
 260 100 l 1,84,-1
 496 100 l 2,85,86
 552 100 552 100 576 121 c 128,-1,87
 600 142 600 142 600 188 c 2,88,-1
 600 276 l 2,89,90
 600 323 600 323 575.5 343.5 c 128,-1,91
 551 364 551 364 505 364 c 2,92,-1
 289 364 l 1,93,-1
 289 630 l 1,94,-1
 593 630 l 1,95,-1
 593 620 l 1,96,-1
 299 620 l 1,97,-1
 299 374 l 1,98,-1
 505 374 l 2,99,100
 557 374 557 374 583.5 350.5 c 128,-1,101
 610 327 610 327 610 276 c 2,102,-1
 610 188 l 2,103,104
 610 137 610 137 584 113.5 c 128,-1,105
 558 90 558 90 496 90 c 2,106,-1
 260 90 l 1,83,-1
EndSplineSet
Validated: 1
Substitution2: "'ss01' Style Set 1 in Latin lookup 22 subtable" five.v
Substitution2: "'vert' Vertical Alternates in Latin lookup 21 subtable" five.v
Substitution2: "'sinf' Scientific Inferiors in Latin lookup 4 subtable" five.sinf
Substitution2: "'sups' Superscript in Latin lookup 3 subtable" five.sups
EndChar

StartChar: six
Encoding: 54 54 25
Width: 793
GlyphClass: 2
Flags: W
LayerCount: 2
Fore
SplineSet
344 -134 m 0,0,1
 248 -134 248 -134 187 -114 c 128,-1,2
 126 -94 126 -94 92 -60.5 c 128,-1,3
 58 -27 58 -27 46 17 c 128,-1,4
 34 61 34 61 34 108 c 2,5,-1
 34 406 l 2,6,7
 34 457 34 457 48.5 499 c 128,-1,8
 63 541 63 541 97 569 c 2,9,-1
 226 678 l 2,10,11
 255 703 255 703 302.5 716.5 c 128,-1,12
 350 730 350 730 419 730 c 2,13,-1
 649 730 l 2,14,15
 674 730 674 730 684.5 719 c 128,-1,16
 695 708 695 708 695 684 c 2,17,-1
 695 566 l 2,18,19
 695 553 695 553 691.5 544 c 128,-1,20
 688 535 688 535 681 529 c 2,21,-1
 608 468 l 1,22,23
 701 455 701 455 736 408 c 128,-1,24
 771 361 771 361 771 283 c 2,25,-1
 771 187 l 2,26,27
 771 140 771 140 758 101 c 128,-1,28
 745 62 745 62 711 34 c 2,29,-1
 581 -75 l 2,30,31
 548 -103 548 -103 490.5 -118.5 c 128,-1,32
 433 -134 433 -134 344 -134 c 0,0,1
473 -15 m 0,33,34
 559 -15 559 -15 615 -0.5 c 128,-1,35
 671 14 671 14 703.5 40.5 c 128,-1,36
 736 67 736 67 748.5 104 c 128,-1,37
 761 141 761 141 761 187 c 2,38,-1
 761 283 l 2,39,40
 761 372 761 372 711 417.5 c 128,-1,41
 661 463 661 463 526 463 c 0,42,43
 486 463 486 463 454.5 459 c 128,-1,44
 423 455 423 455 399 448 c 1,45,-1
 399 470 l 2,46,47
 399 507 399 507 412 518.5 c 128,-1,48
 425 530 425 530 462 530 c 2,49,-1
 649 530 l 2,50,51
 668 530 668 530 676.5 538.5 c 128,-1,52
 685 547 685 547 685 566 c 2,53,-1
 685 684 l 2,54,55
 685 703 685 703 676.5 711.5 c 128,-1,56
 668 720 668 720 649 720 c 2,57,-1
 419 720 l 2,58,59
 278 720 278 720 225.5 663 c 128,-1,60
 173 606 173 606 173 515 c 2,61,-1
 173 187 l 2,62,63
 173 141 173 141 185.5 104 c 128,-1,64
 198 67 198 67 231 40.5 c 128,-1,65
 264 14 264 14 322.5 -0.5 c 128,-1,66
 381 -15 381 -15 473 -15 c 0,33,34
476 71 m 0,67,68
 436 71 436 71 401 74.5 c 128,-1,69
 366 78 366 78 340 90 c 128,-1,70
 314 102 314 102 299.5 125.5 c 128,-1,71
 285 149 285 149 285 187 c 2,72,-1
 285 515 l 2,73,74
 285 581 285 581 320.5 605.5 c 128,-1,75
 356 630 356 630 419 630 c 2,76,-1
 595 630 l 1,77,-1
 595 620 l 1,78,-1
 419 620 l 2,79,80
 362 620 362 620 328.5 598.5 c 128,-1,81
 295 577 295 577 295 515 c 2,82,-1
 295 327 l 1,83,84
 313 367 313 367 363 375 c 128,-1,85
 413 383 413 383 479 383 c 0,86,87
 516 383 516 383 547.5 380.5 c 128,-1,88
 579 378 579 378 602.5 367.5 c 128,-1,89
 626 357 626 357 639.5 335 c 128,-1,90
 653 313 653 313 653 275 c 2,91,-1
 653 187 l 2,92,93
 653 149 653 149 639.5 126 c 128,-1,94
 626 103 626 103 602 91 c 128,-1,95
 578 79 578 79 545.5 75 c 128,-1,96
 513 71 513 71 476 71 c 0,67,68
476 81 m 0,97,98
 510 81 510 81 540.5 84 c 128,-1,99
 571 87 571 87 594 98 c 128,-1,100
 617 109 617 109 630 130.5 c 128,-1,101
 643 152 643 152 643 187 c 2,102,-1
 643 275 l 2,103,104
 643 311 643 311 629.5 331 c 128,-1,105
 616 351 616 351 594 360.5 c 128,-1,106
 572 370 572 370 542 371.5 c 128,-1,107
 512 373 512 373 479 373 c 256,108,109
 446 373 446 373 413 372 c 128,-1,110
 380 371 380 371 354 362 c 128,-1,111
 328 353 328 353 311.5 333.5 c 128,-1,112
 295 314 295 314 295 278 c 2,113,-1
 295 187 l 2,114,115
 295 151 295 151 309.5 129.5 c 128,-1,116
 324 108 324 108 348.5 97.5 c 128,-1,117
 373 87 373 87 406 84 c 128,-1,118
 439 81 439 81 476 81 c 0,97,98
399 262 m 2,119,120
 399 277 399 277 411 287.5 c 128,-1,121
 423 298 423 298 466 298 c 0,122,123
 511 298 511 298 523 287.5 c 128,-1,124
 535 277 535 277 535 262 c 2,125,-1
 535 203 l 2,126,127
 535 187 535 187 523 176.5 c 128,-1,128
 511 166 511 166 466 166 c 0,129,130
 423 166 423 166 411 176.5 c 128,-1,131
 399 187 399 187 399 203 c 2,132,-1
 399 262 l 2,119,120
EndSplineSet
Validated: 1
Substitution2: "'ss01' Style Set 1 in Latin lookup 22 subtable" six.v
Substitution2: "'vert' Vertical Alternates in Latin lookup 21 subtable" six.v
Substitution2: "'sinf' Scientific Inferiors in Latin lookup 4 subtable" six.sinf
Substitution2: "'sups' Superscript in Latin lookup 3 subtable" six.sups
EndChar

StartChar: seven
Encoding: 55 55 26
Width: 727
GlyphClass: 2
Flags: W
LayerCount: 2
Fore
SplineSet
295 -119 m 2,0,-1
 133 -119 l 2,1,2
 109 -119 109 -119 98 -108 c 128,-1,3
 87 -97 87 -97 87 -73 c 2,4,-1
 87 108 l 2,5,6
 87 167 87 167 101.5 204.5 c 128,-1,7
 116 242 116 242 144 266 c 2,8,-1
 273 375 l 2,9,10
 283 383 283 383 296 390.5 c 128,-1,11
 309 398 309 398 324 405 c 1,12,-1
 324 408 l 1,13,-1
 60 408 l 2,14,15
 36 408 36 408 25 419 c 128,-1,16
 14 430 14 430 14 454 c 2,17,-1
 14 575 l 2,18,19
 14 588 14 588 17.5 597 c 128,-1,20
 21 606 21 606 28 612 c 2,21,-1
 157 721 l 2,22,23
 162 725 162 725 170.5 727.5 c 128,-1,24
 179 730 179 730 189 730 c 2,25,-1
 654 730 l 2,26,27
 678 730 678 730 689 719 c 128,-1,28
 700 708 700 708 700 684 c 2,29,-1
 700 431 l 2,30,31
 700 372 700 372 685.5 335 c 128,-1,32
 671 298 671 298 643 273 c 2,33,-1
 513 165 l 2,34,35
 504 158 504 158 493.5 151 c 128,-1,36
 483 144 483 144 470 138 c 1,37,-1
 470 36 l 2,38,39
 470 23 470 23 466.5 14 c 128,-1,40
 463 5 463 5 456 -1 c 2,41,-1
 326 -109 l 2,42,43
 322 -113 322 -113 313.5 -116 c 128,-1,44
 305 -119 305 -119 295 -119 c 2,0,-1
654 720 m 2,45,-1
 189 720 l 2,46,47
 170 720 170 720 161.5 711.5 c 128,-1,48
 153 703 153 703 153 684 c 2,49,-1
 153 563 l 2,50,51
 153 544 153 544 161.5 535.5 c 128,-1,52
 170 527 170 527 189 527 c 2,53,-1
 463 527 l 1,54,-1
 463 437 l 1,55,-1
 382 415 l 2,56,57
 342 403 342 403 312.5 388.5 c 128,-1,58
 283 374 283 374 264 352 c 128,-1,59
 245 330 245 330 235.5 297 c 128,-1,60
 226 264 226 264 226 217 c 2,61,-1
 226 36 l 2,62,63
 226 17 226 17 234.5 8.5 c 128,-1,64
 243 0 243 0 262 0 c 2,65,-1
 424 0 l 2,66,67
 443 0 443 0 451.5 8.5 c 128,-1,68
 460 17 460 17 460 36 c 2,69,-1
 460 211 l 1,70,-1
 534 233 l 2,71,72
 574 245 574 245 603.5 259.5 c 128,-1,73
 633 274 633 274 652 296 c 128,-1,74
 671 318 671 318 680.5 351 c 128,-1,75
 690 384 690 384 690 431 c 2,76,-1
 690 684 l 2,77,78
 690 703 690 703 681.5 711.5 c 128,-1,79
 673 720 673 720 654 720 c 2,45,-1
338 90 m 1,80,-1
 338 240 l 2,81,82
 338 263 338 263 347.5 276 c 128,-1,83
 357 289 357 289 373 296 c 2,84,-1
 543 364 l 2,85,86
 558 370 558 370 565 380.5 c 128,-1,87
 572 391 572 391 572 410 c 2,88,-1
 572 620 l 1,89,-1
 243 620 l 1,90,-1
 243 630 l 1,91,-1
 582 630 l 1,92,-1
 582 410 l 2,93,94
 582 387 582 387 573.5 374 c 128,-1,95
 565 361 565 361 547 354 c 2,96,-1
 377 286 l 2,97,98
 364 281 364 281 356 270 c 128,-1,99
 348 259 348 259 348 240 c 2,100,-1
 348 90 l 1,101,-1
 338 90 l 1,80,-1
EndSplineSet
Validated: 1
Substitution2: "'ss01' Style Set 1 in Latin lookup 22 subtable" seven.v
Substitution2: "'vert' Vertical Alternates in Latin lookup 21 subtable" seven.v
Substitution2: "'sinf' Scientific Inferiors in Latin lookup 4 subtable" seven.sinf
Substitution2: "'sups' Superscript in Latin lookup 3 subtable" seven.sups
EndChar

StartChar: eight
Encoding: 56 56 27
Width: 811
GlyphClass: 2
Flags: W
LayerCount: 2
Fore
SplineSet
342 -134 m 0,0,1
 247 -134 247 -134 185 -117 c 128,-1,2
 123 -100 123 -100 87 -72 c 128,-1,3
 51 -44 51 -44 37 -7 c 128,-1,4
 23 30 23 30 23 70 c 2,5,-1
 23 147 l 2,6,7
 23 196 23 196 37.5 230 c 128,-1,8
 52 264 52 264 76 284 c 2,9,-1
 107 310 l 1,10,11
 87 327 87 327 78.5 352.5 c 128,-1,12
 70 378 70 378 70 410 c 2,13,-1
 70 468 l 2,14,15
 70 503 70 503 81 532.5 c 128,-1,16
 92 562 92 562 118 583 c 2,17,-1
 247 692 l 2,18,19
 277 717 277 717 331.5 731 c 128,-1,20
 386 745 386 745 472 745 c 0,21,22
 552 745 552 745 604.5 733 c 128,-1,23
 657 721 657 721 687.5 699 c 128,-1,24
 718 677 718 677 730 646 c 128,-1,25
 742 615 742 615 742 577 c 2,26,-1
 742 519 l 2,27,28
 742 486 742 486 733 460.5 c 128,-1,29
 724 435 724 435 704 418 c 2,30,-1
 699 414 l 1,31,32
 738 399 738 399 763.5 360.5 c 128,-1,33
 789 322 789 322 789 256 c 2,34,-1
 789 159 l 2,35,36
 789 122 789 122 777 91 c 128,-1,37
 765 60 765 60 737 36 c 2,38,-1
 608 -72 l 2,39,40
 574 -101 574 -101 509.5 -117.5 c 128,-1,41
 445 -134 445 -134 342 -134 c 0,0,1
779 256 m 2,42,43
 779 326 779 326 748.5 364 c 128,-1,44
 718 402 718 402 673 411 c 1,45,46
 706 425 706 425 719 453 c 128,-1,47
 732 481 732 481 732 519 c 2,48,-1
 732 577 l 2,49,50
 732 614 732 614 719.5 643 c 128,-1,51
 707 672 707 672 677.5 692.5 c 128,-1,52
 648 713 648 713 597.5 724 c 128,-1,53
 547 735 547 735 472 735 c 256,54,55
 397 735 397 735 346 724 c 128,-1,56
 295 713 295 713 265 692.5 c 128,-1,57
 235 672 235 672 222 643 c 128,-1,58
 209 614 209 614 209 577 c 2,59,-1
 209 519 l 2,60,61
 209 481 209 481 222 453 c 128,-1,62
 235 425 235 425 268 411 c 1,63,64
 223 402 223 402 192.5 364 c 128,-1,65
 162 326 162 326 162 256 c 2,66,-1
 162 159 l 2,67,68
 162 120 162 120 176.5 88 c 128,-1,69
 191 56 191 56 226 33 c 128,-1,70
 261 10 261 10 321 -2.5 c 128,-1,71
 381 -15 381 -15 471 -15 c 256,72,73
 561 -15 561 -15 620.5 -2.5 c 128,-1,74
 680 10 680 10 715 33 c 128,-1,75
 750 56 750 56 764.5 88 c 128,-1,76
 779 120 779 120 779 159 c 2,77,-1
 779 256 l 2,42,43
471 67 m 256,78,79
 411 67 411 67 371.5 75 c 128,-1,80
 332 83 332 83 309 97 c 128,-1,81
 286 111 286 111 277 130.5 c 128,-1,82
 268 150 268 150 268 173 c 2,83,-1
 268 265 l 2,84,85
 268 303 268 303 295.5 331 c 128,-1,86
 323 359 323 359 395 369 c 1,87,88
 347 377 347 377 325.5 398.5 c 128,-1,89
 304 420 304 420 304 455 c 2,90,-1
 304 558 l 2,91,92
 304 604 304 604 344 628 c 128,-1,93
 384 652 384 652 471 652 c 256,94,95
 558 652 558 652 597.5 627 c 128,-1,96
 637 602 637 602 637 550 c 2,97,-1
 637 455 l 2,98,99
 637 420 637 420 616 398.5 c 128,-1,100
 595 377 595 377 547 369 c 1,101,102
 619 359 619 359 646 331.5 c 128,-1,103
 673 304 673 304 673 266 c 2,104,-1
 673 173 l 2,105,106
 673 150 673 150 664 130.5 c 128,-1,107
 655 111 655 111 632.5 97 c 128,-1,108
 610 83 610 83 570.5 75 c 128,-1,109
 531 67 531 67 471 67 c 256,78,79
314 558 m 2,110,-1
 314 455 l 2,111,112
 314 412 314 412 353 393 c 128,-1,113
 392 374 392 374 471 374 c 256,114,115
 550 374 550 374 588.5 393 c 128,-1,116
 627 412 627 412 627 455 c 2,117,-1
 627 550 l 2,118,119
 627 599 627 599 588 620.5 c 128,-1,120
 549 642 549 642 471 642 c 256,121,122
 393 642 393 642 353.5 621.5 c 128,-1,123
 314 601 314 601 314 558 c 2,110,-1
408 480 m 2,124,-1
 408 524 l 2,125,126
 408 539 408 539 418.5 549.5 c 128,-1,127
 429 560 429 560 471 560 c 0,128,129
 514 560 514 560 523.5 549.5 c 128,-1,130
 533 539 533 539 533 524 c 2,131,-1
 533 480 l 2,132,133
 533 464 533 464 523.5 453.5 c 128,-1,134
 514 443 514 443 471 443 c 0,135,136
 429 443 429 443 418.5 453.5 c 128,-1,137
 408 464 408 464 408 480 c 2,124,-1
278 265 m 2,138,-1
 278 173 l 2,139,140
 278 130 278 130 320.5 103.5 c 128,-1,141
 363 77 363 77 471 77 c 256,142,143
 579 77 579 77 621 103.5 c 128,-1,144
 663 130 663 130 663 173 c 2,145,-1
 663 266 l 2,146,147
 663 309 663 309 620.5 336.5 c 128,-1,148
 578 364 578 364 471 364 c 256,149,150
 364 364 364 364 321 336 c 128,-1,151
 278 308 278 308 278 265 c 2,138,-1
383 197 m 2,152,-1
 383 250 l 2,153,154
 383 265 383 265 400 275.5 c 128,-1,155
 417 286 417 286 471 286 c 256,156,157
 525 286 525 286 541.5 275.5 c 128,-1,158
 558 265 558 265 558 250 c 2,159,-1
 558 197 l 2,160,161
 558 181 558 181 541.5 170.5 c 128,-1,162
 525 160 525 160 471 160 c 256,163,164
 417 160 417 160 400 170.5 c 128,-1,165
 383 181 383 181 383 197 c 2,152,-1
EndSplineSet
Validated: 1
Substitution2: "'ss01' Style Set 1 in Latin lookup 22 subtable" eight.v
Substitution2: "'vert' Vertical Alternates in Latin lookup 21 subtable" eight.v
Substitution2: "'sinf' Scientific Inferiors in Latin lookup 4 subtable" eight.sinf
Substitution2: "'sups' Superscript in Latin lookup 3 subtable" eight.sups
EndChar

StartChar: nine
Encoding: 57 57 28
Width: 793
GlyphClass: 2
Flags: W
LayerCount: 2
Fore
SplineSet
145 -119 m 2,0,1
 120 -119 120 -119 109.5 -108 c 128,-1,2
 99 -97 99 -97 99 -73 c 2,3,-1
 99 45 l 2,4,5
 99 58 99 58 102.5 67 c 128,-1,6
 106 76 106 76 113 82 c 2,7,-1
 186 144 l 1,8,9
 93 157 93 157 58 203.5 c 128,-1,10
 23 250 23 250 23 328 c 2,11,-1
 23 424 l 2,12,13
 23 472 23 472 36 511 c 128,-1,14
 49 550 49 550 83 578 c 2,15,-1
 212 686 l 2,16,17
 245 714 245 714 302.5 729.5 c 128,-1,18
 360 745 360 745 450 745 c 0,19,20
 546 745 546 745 607 729.5 c 128,-1,21
 668 714 668 714 702 686 c 128,-1,22
 736 658 736 658 748 619 c 128,-1,23
 760 580 760 580 760 533 c 2,24,-1
 760 205 l 2,25,26
 760 154 760 154 745.5 112.5 c 128,-1,27
 731 71 731 71 697 42 c 2,28,-1
 567 -66 l 2,29,30
 538 -91 538 -91 490.5 -105 c 128,-1,31
 443 -119 443 -119 375 -119 c 2,32,-1
 145 -119 l 2,0,1
504 0 m 2,33,34
 645 0 645 0 697.5 57 c 128,-1,35
 750 114 750 114 750 205 c 2,36,-1
 750 533 l 2,37,38
 750 579 750 579 737.5 616 c 128,-1,39
 725 653 725 653 692 679.5 c 128,-1,40
 659 706 659 706 600.5 720.5 c 128,-1,41
 542 735 542 735 450 735 c 0,42,43
 364 735 364 735 308 720.5 c 128,-1,44
 252 706 252 706 219.5 679.5 c 128,-1,45
 187 653 187 653 174.5 616 c 128,-1,46
 162 579 162 579 162 533 c 2,47,-1
 162 437 l 2,48,49
 162 348 162 348 212 302.5 c 128,-1,50
 262 257 262 257 397 257 c 0,51,52
 437 257 437 257 468.5 261 c 128,-1,53
 500 265 500 265 524 272 c 1,54,-1
 524 250 l 2,55,56
 524 213 524 213 511 201.5 c 128,-1,57
 498 190 498 190 461 190 c 2,58,-1
 274 190 l 2,59,60
 255 190 255 190 246.5 181.5 c 128,-1,61
 238 173 238 173 238 154 c 2,62,-1
 238 36 l 2,63,64
 238 17 238 17 246.5 8.5 c 128,-1,65
 255 0 255 0 274 0 c 2,66,-1
 504 0 l 2,33,34
328 90 m 1,67,-1
 328 100 l 1,68,-1
 504 100 l 2,69,70
 561 100 561 100 594.5 121.5 c 128,-1,71
 628 143 628 143 628 205 c 2,72,-1
 628 393 l 1,73,74
 610 353 610 353 560 345 c 128,-1,75
 510 337 510 337 444 337 c 0,76,77
 407 337 407 337 375.5 339.5 c 128,-1,78
 344 342 344 342 320.5 352.5 c 128,-1,79
 297 363 297 363 283.5 385 c 128,-1,80
 270 407 270 407 270 445 c 2,81,-1
 270 533 l 2,82,83
 270 571 270 571 283.5 594 c 128,-1,84
 297 617 297 617 321 629 c 128,-1,85
 345 641 345 641 377.5 645 c 128,-1,86
 410 649 410 649 447 649 c 0,87,88
 487 649 487 649 522 645.5 c 128,-1,89
 557 642 557 642 583 630 c 128,-1,90
 609 618 609 618 623.5 594.5 c 128,-1,91
 638 571 638 571 638 533 c 2,92,-1
 638 205 l 2,93,94
 638 139 638 139 602.5 114.5 c 128,-1,95
 567 90 567 90 504 90 c 2,96,-1
 328 90 l 1,67,-1
444 347 m 256,97,98
 477 347 477 347 510 348 c 128,-1,99
 543 349 543 349 569 358 c 128,-1,100
 595 367 595 367 611.5 386.5 c 128,-1,101
 628 406 628 406 628 442 c 2,102,-1
 628 533 l 2,103,104
 628 569 628 569 613.5 590.5 c 128,-1,105
 599 612 599 612 574.5 622.5 c 128,-1,106
 550 633 550 633 517 636 c 128,-1,107
 484 639 484 639 447 639 c 0,108,109
 413 639 413 639 382.5 636 c 128,-1,110
 352 633 352 633 329 622 c 128,-1,111
 306 611 306 611 293 589.5 c 128,-1,112
 280 568 280 568 280 533 c 2,113,-1
 280 445 l 2,114,115
 280 409 280 409 293.5 389 c 128,-1,116
 307 369 307 369 329 359.5 c 128,-1,117
 351 350 351 350 381 348.5 c 128,-1,118
 411 347 411 347 444 347 c 256,97,98
524 458 m 2,119,120
 524 443 524 443 512 432.5 c 128,-1,121
 500 422 500 422 457 422 c 0,122,123
 412 422 412 422 400 432.5 c 128,-1,124
 388 443 388 443 388 458 c 2,125,-1
 388 517 l 2,126,127
 388 533 388 533 400 543.5 c 128,-1,128
 412 554 412 554 457 554 c 0,129,130
 500 554 500 554 512 543.5 c 128,-1,131
 524 533 524 533 524 517 c 2,132,-1
 524 458 l 2,119,120
EndSplineSet
Validated: 1
Substitution2: "'ss01' Style Set 1 in Latin lookup 22 subtable" nine.v
Substitution2: "'vert' Vertical Alternates in Latin lookup 21 subtable" nine.v
Substitution2: "'sinf' Scientific Inferiors in Latin lookup 4 subtable" nine.sinf
Substitution2: "'sups' Superscript in Latin lookup 3 subtable" nine.sups
EndChar

StartChar: colon
Encoding: 58 58 29
Width: 484
GlyphClass: 2
Flags: W
LayerCount: 2
Fore
SplineSet
279 -119 m 2,0,-1
 77 -119 l 2,1,2
 53 -119 53 -119 42 -108 c 128,-1,3
 31 -97 31 -97 31 -73 c 2,4,-1
 31 130 l 2,5,6
 31 143 31 143 34.5 152.5 c 128,-1,7
 38 162 38 162 44 167 c 2,8,-1
 126 236 l 1,9,-1
 77 236 l 2,10,11
 53 236 53 236 42 247 c 128,-1,12
 31 258 31 258 31 282 c 2,13,-1
 31 485 l 2,14,15
 31 498 31 498 34.5 507.5 c 128,-1,16
 38 517 38 517 44 522 c 2,17,-1
 174 631 l 2,18,19
 179 635 179 635 187 637.5 c 128,-1,20
 195 640 195 640 206 640 c 2,21,-1
 408 640 l 2,22,23
 432 640 432 640 443 629.5 c 128,-1,24
 454 619 454 619 454 594 c 2,25,-1
 454 391 l 2,26,27
 454 378 454 378 450.5 369 c 128,-1,28
 447 360 447 360 440 354 c 2,29,-1
 357 285 l 1,30,-1
 408 285 l 2,31,32
 432 285 432 285 443 274.5 c 128,-1,33
 454 264 454 264 454 239 c 2,34,-1
 454 36 l 2,35,36
 454 23 454 23 450.5 14 c 128,-1,37
 447 5 447 5 440 -1 c 2,38,-1
 310 -109 l 2,39,40
 306 -113 306 -113 297.5 -116 c 128,-1,41
 289 -119 289 -119 279 -119 c 2,0,-1
408 355 m 2,42,43
 427 355 427 355 435.5 363.5 c 128,-1,44
 444 372 444 372 444 391 c 2,45,-1
 444 594 l 2,46,47
 444 613 444 613 435.5 621.5 c 128,-1,48
 427 630 427 630 408 630 c 2,49,-1
 206 630 l 2,50,51
 187 630 187 630 178.5 621.5 c 128,-1,52
 170 613 170 613 170 594 c 2,53,-1
 170 391 l 2,54,55
 170 372 170 372 178.5 363.5 c 128,-1,56
 187 355 187 355 206 355 c 2,57,-1
 408 355 l 2,42,43
302 445 m 1,58,-1
 302 540 l 1,59,-1
 312 540 l 1,60,-1
 312 445 l 1,61,-1
 302 445 l 1,58,-1
408 0 m 2,62,63
 427 0 427 0 435.5 8.5 c 128,-1,64
 444 17 444 17 444 36 c 2,65,-1
 444 239 l 2,66,67
 444 258 444 258 435.5 266.5 c 128,-1,68
 427 275 427 275 408 275 c 2,69,-1
 206 275 l 2,70,71
 187 275 187 275 178.5 266.5 c 128,-1,72
 170 258 170 258 170 239 c 2,73,-1
 170 36 l 2,74,75
 170 17 170 17 178.5 8.5 c 128,-1,76
 187 0 187 0 206 0 c 2,77,-1
 408 0 l 2,62,63
302 90 m 1,78,-1
 302 185 l 1,79,-1
 312 185 l 1,80,-1
 312 90 l 1,81,-1
 302 90 l 1,78,-1
EndSplineSet
Validated: 1
Substitution2: "'ss01' Style Set 1 in Latin lookup 22 subtable" colon.v
Substitution2: "'vert' Vertical Alternates in Latin lookup 21 subtable" colon.v
EndChar

StartChar: semicolon
Encoding: 59 59 30
Width: 484
GlyphClass: 2
Flags: W
LayerCount: 2
Fore
SplineSet
167 -219 m 2,0,-1
 90 -219 l 2,1,2
 66 -219 66 -219 55 -208.5 c 128,-1,3
 44 -198 44 -198 44 -173 c 2,4,-1
 44 -133 l 2,5,6
 44 -120 44 -120 47.5 -111 c 128,-1,7
 51 -102 51 -102 58 -96 c 2,8,-1
 96 -64 l 1,9,-1
 77 -64 l 2,10,11
 53 -64 53 -64 42 -53 c 128,-1,12
 31 -42 31 -42 31 -18 c 2,13,-1
 31 130 l 2,14,15
 31 143 31 143 34.5 152 c 128,-1,16
 38 161 38 161 45 167 c 2,17,-1
 127 236 l 1,18,-1
 77 236 l 2,19,20
 53 236 53 236 42 247 c 128,-1,21
 31 258 31 258 31 282 c 2,22,-1
 31 485 l 2,23,24
 31 498 31 498 34.5 507.5 c 128,-1,25
 38 517 38 517 44 522 c 2,26,-1
 174 631 l 2,27,28
 179 635 179 635 187 637.5 c 128,-1,29
 195 640 195 640 206 640 c 2,30,-1
 408 640 l 2,31,32
 432 640 432 640 443 629.5 c 128,-1,33
 454 619 454 619 454 594 c 2,34,-1
 454 391 l 2,35,36
 454 378 454 378 450.5 369 c 128,-1,37
 447 360 447 360 440 354 c 2,38,-1
 357 285 l 1,39,-1
 408 285 l 2,40,41
 432 285 432 285 443 274 c 128,-1,42
 454 263 454 263 454 239 c 2,43,-1
 454 51 l 2,44,45
 454 7 454 7 440.5 -24.5 c 128,-1,46
 427 -56 427 -56 404 -76 c 2,47,-1
 274 -185 l 2,48,49
 255 -201 255 -201 227.5 -210 c 128,-1,50
 200 -219 200 -219 167 -219 c 2,0,-1
408 355 m 2,51,52
 427 355 427 355 435.5 363.5 c 128,-1,53
 444 372 444 372 444 391 c 2,54,-1
 444 594 l 2,55,56
 444 613 444 613 435.5 621.5 c 128,-1,57
 427 630 427 630 408 630 c 2,58,-1
 206 630 l 2,59,60
 187 630 187 630 178.5 621.5 c 128,-1,61
 170 613 170 613 170 594 c 2,62,-1
 170 391 l 2,63,64
 170 372 170 372 178.5 363.5 c 128,-1,65
 187 355 187 355 206 355 c 2,66,-1
 408 355 l 2,51,52
302 445 m 1,67,-1
 302 540 l 1,68,-1
 312 540 l 1,69,-1
 312 445 l 1,70,-1
 302 445 l 1,67,-1
296 -100 m 2,71,72
 363 -100 363 -100 403.5 -62.5 c 128,-1,73
 444 -25 444 -25 444 51 c 2,74,-1
 444 239 l 2,75,76
 444 258 444 258 435.5 266.5 c 128,-1,77
 427 275 427 275 408 275 c 2,78,-1
 206 275 l 2,79,80
 187 275 187 275 178.5 266.5 c 128,-1,81
 170 258 170 258 170 239 c 2,82,-1
 170 91 l 2,83,84
 170 72 170 72 178.5 63.5 c 128,-1,85
 187 55 187 55 206 55 c 2,86,-1
 315 55 l 1,87,-1
 315 40 l 2,88,89
 315 27 315 27 308 19.5 c 128,-1,90
 301 12 301 12 288 12 c 2,91,-1
 219 12 l 2,92,93
 200 12 200 12 191.5 3.5 c 128,-1,94
 183 -5 183 -5 183 -24 c 2,95,-1
 183 -64 l 2,96,97
 183 -83 183 -83 191.5 -91.5 c 128,-1,98
 200 -100 200 -100 219 -100 c 2,99,-1
 296 -100 l 2,71,72
374 170 m 1,100,-1
 374 51 l 2,101,102
 374 5 374 5 350 -17.5 c 128,-1,103
 326 -40 326 -40 286 -40 c 2,104,-1
 240 -40 l 1,105,-1
 240 -30 l 1,106,-1
 286 -30 l 2,107,108
 322 -30 322 -30 343 -9.5 c 128,-1,109
 364 11 364 11 364 51 c 2,110,-1
 364 160 l 1,111,-1
 240 160 l 1,112,-1
 240 170 l 1,113,-1
 374 170 l 1,100,-1
EndSplineSet
Validated: 1
Substitution2: "'ss01' Style Set 1 in Latin lookup 22 subtable" semicolon.v
Substitution2: "'vert' Vertical Alternates in Latin lookup 21 subtable" semicolon.v
EndChar

StartChar: less
Encoding: 60 60 31
Width: 814
GlyphClass: 2
Flags: W
LayerCount: 2
Fore
SplineSet
607 -54 m 2,0,1
 602 -58 602 -58 593 -60 c 128,-1,2
 584 -62 584 -62 572 -60 c 2,3,-1
 190 49 l 2,4,5
 124 68 124 68 90 102 c 128,-1,6
 56 136 56 136 56 214 c 2,7,-1
 56 286 l 2,8,9
 56 332 56 332 68 361.5 c 128,-1,10
 80 391 80 391 103 410 c 2,11,-1
 232 519 l 2,12,13
 248 532 248 532 270 542 c 128,-1,14
 292 552 292 552 319 560 c 2,15,-1
 701 669 l 2,16,17
 726 673 726 673 737.5 663.5 c 128,-1,18
 749 654 749 654 749 628 c 2,19,-1
 749 496 l 2,20,21
 749 482 749 482 745 472.5 c 128,-1,22
 741 463 741 463 734 457 c 2,23,-1
 604 348 l 2,24,25
 599 344 599 344 592 341 c 128,-1,26
 585 338 585 338 577 336 c 2,27,-1
 522 322 l 1,28,-1
 705 273 l 2,29,30
 728 269 728 269 738.5 257.5 c 128,-1,31
 749 246 749 246 749 222 c 2,32,-1
 749 90 l 2,33,34
 749 77 749 77 745.5 68.5 c 128,-1,35
 742 60 742 60 736 55 c 2,36,-1
 607 -54 l 2,0,1
703 59 m 2,37,38
 722 55 722 55 730.5 63 c 128,-1,39
 739 71 739 71 739 90 c 2,40,-1
 739 222 l 2,41,42
 739 241 739 241 730.5 250.5 c 128,-1,43
 722 260 722 260 703 263 c 2,44,-1
 416 340 l 2,45,46
 406 342 406 342 402.5 346 c 128,-1,47
 399 350 399 350 399 359 c 256,48,49
 399 368 399 368 402.5 372 c 128,-1,50
 406 376 406 376 416 378 c 2,51,-1
 703 455 l 2,52,53
 722 458 722 458 730.5 467.5 c 128,-1,54
 739 477 739 477 739 496 c 2,55,-1
 739 628 l 2,56,57
 739 647 739 647 730.5 655 c 128,-1,58
 722 663 722 663 703 659 c 2,59,-1
 322 550 l 2,60,61
 260 532 260 532 227.5 500.5 c 128,-1,62
 195 469 195 469 195 395 c 2,63,-1
 195 323 l 2,64,65
 195 249 195 249 227.5 217.5 c 128,-1,66
 260 186 260 186 322 168 c 2,67,-1
 703 59 l 2,37,38
649 176 m 1,68,-1
 649 166 l 1,69,-1
 349 252 l 2,70,71
 324 259 324 259 307.5 274.5 c 128,-1,72
 291 290 291 290 291 323 c 2,73,-1
 291 395 l 2,74,75
 291 428 291 428 307.5 442 c 128,-1,76
 324 456 324 456 349 463 c 2,77,-1
 649 549 l 1,78,-1
 649 539 l 1,79,-1
 351 453 l 2,80,81
 330 447 330 447 315.5 435 c 128,-1,82
 301 423 301 423 301 395 c 2,83,-1
 301 323 l 2,84,85
 301 295 301 295 315.5 281.5 c 128,-1,86
 330 268 330 268 351 262 c 2,87,-1
 649 176 l 1,68,-1
EndSplineSet
Validated: 33
EndChar

StartChar: equal
Encoding: 61 61 32
Width: 834
GlyphClass: 2
Flags: W
LayerCount: 2
Fore
SplineSet
614 -2 m 2,0,-1
 92 -2 l 2,1,2
 68 -2 68 -2 57 8.5 c 128,-1,3
 46 19 46 19 46 44 c 2,4,-1
 46 158 l 2,5,6
 46 171 46 171 49.5 180 c 128,-1,7
 53 189 53 189 60 195 c 2,8,-1
 182 298 l 1,9,-1
 92 298 l 2,10,11
 68 298 68 298 57 308.5 c 128,-1,12
 46 319 46 319 46 344 c 2,13,-1
 46 458 l 2,14,15
 46 471 46 471 49.5 480 c 128,-1,16
 53 489 53 489 60 495 c 2,17,-1
 189 604 l 2,18,19
 194 608 194 608 202.5 610.5 c 128,-1,20
 211 613 211 613 221 613 c 2,21,-1
 743 613 l 2,22,23
 767 613 767 613 778 602.5 c 128,-1,24
 789 592 789 592 789 567 c 2,25,-1
 789 453 l 2,26,27
 789 440 789 440 785.5 431 c 128,-1,28
 782 422 782 422 775 416 c 2,29,-1
 653 313 l 1,30,-1
 743 313 l 2,31,32
 767 313 767 313 778 302.5 c 128,-1,33
 789 292 789 292 789 267 c 2,34,-1
 789 153 l 2,35,36
 789 140 789 140 785.5 131 c 128,-1,37
 782 122 782 122 775 116 c 2,38,-1
 646 7 l 2,39,40
 640 3 640 3 632 0.5 c 128,-1,41
 624 -2 624 -2 614 -2 c 2,0,-1
221 417 m 2,42,-1
 743 417 l 2,43,44
 762 417 762 417 770.5 425.5 c 128,-1,45
 779 434 779 434 779 453 c 2,46,-1
 779 567 l 2,47,48
 779 586 779 586 770.5 594.5 c 128,-1,49
 762 603 762 603 743 603 c 2,50,-1
 221 603 l 2,51,52
 202 603 202 603 193.5 594.5 c 128,-1,53
 185 586 185 586 185 567 c 2,54,-1
 185 453 l 2,55,56
 185 434 185 434 193.5 425.5 c 128,-1,57
 202 417 202 417 221 417 c 2,42,-1
275 505 m 1,58,-1
 275 515 l 1,59,-1
 689 515 l 1,60,-1
 689 505 l 1,61,-1
 275 505 l 1,58,-1
221 117 m 2,62,-1
 743 117 l 2,63,64
 762 117 762 117 770.5 125.5 c 128,-1,65
 779 134 779 134 779 153 c 2,66,-1
 779 267 l 2,67,68
 779 286 779 286 770.5 294.5 c 128,-1,69
 762 303 762 303 743 303 c 2,70,-1
 221 303 l 2,71,72
 202 303 202 303 193.5 294.5 c 128,-1,73
 185 286 185 286 185 267 c 2,74,-1
 185 153 l 2,75,76
 185 134 185 134 193.5 125.5 c 128,-1,77
 202 117 202 117 221 117 c 2,62,-1
275 205 m 1,78,-1
 275 215 l 1,79,-1
 689 215 l 1,80,-1
 689 205 l 1,81,-1
 275 205 l 1,78,-1
EndSplineSet
Validated: 1
EndChar

StartChar: greater
Encoding: 62 62 33
Width: 814
GlyphClass: 2
Flags: W
LayerCount: 2
Fore
SplineSet
114 -60 m 2,0,1
 89 -64 89 -64 77.5 -54.5 c 128,-1,2
 66 -45 66 -45 66 -19 c 2,3,-1
 66 113 l 2,4,5
 66 127 66 127 70 136.5 c 128,-1,6
 74 146 74 146 81 153 c 2,7,-1
 210 261 l 2,8,9
 215 265 215 265 222 268 c 128,-1,10
 229 271 229 271 238 273 c 2,11,-1
 293 287 l 1,12,-1
 110 336 l 2,13,14
 87 340 87 340 76.5 351.5 c 128,-1,15
 66 363 66 363 66 387 c 2,16,-1
 66 519 l 2,17,18
 66 532 66 532 69 541 c 128,-1,19
 72 550 72 550 78 555 c 2,20,-1
 208 663 l 2,21,22
 213 667 213 667 222 669 c 128,-1,23
 231 671 231 671 243 669 c 2,24,-1
 244 669 l 1,25,-1
 625 560 l 2,26,27
 691 541 691 541 725 507 c 128,-1,28
 759 473 759 473 759 395 c 2,29,-1
 759 323 l 2,30,31
 759 277 759 277 746.5 247.5 c 128,-1,32
 734 218 734 218 712 199 c 2,33,-1
 582 90 l 2,34,35
 567 77 567 77 545.5 67.5 c 128,-1,36
 524 58 524 58 496 49 c 2,37,-1
 114 -60 l 2,0,1
622 168 m 2,38,39
 684 186 684 186 716.5 217.5 c 128,-1,40
 749 249 749 249 749 323 c 2,41,-1
 749 395 l 2,42,43
 749 469 749 469 716.5 500.5 c 128,-1,44
 684 532 684 532 622 550 c 2,45,-1
 241 659 l 2,46,47
 222 663 222 663 213.5 655 c 128,-1,48
 205 647 205 647 205 628 c 2,49,-1
 205 496 l 2,50,51
 205 477 205 477 213.5 467.5 c 128,-1,52
 222 458 222 458 241 455 c 2,53,-1
 528 378 l 2,54,55
 538 376 538 376 541.5 372 c 128,-1,56
 545 368 545 368 545 359 c 256,57,58
 545 350 545 350 541.5 346 c 128,-1,59
 538 342 538 342 528 340 c 2,60,-1
 241 263 l 2,61,62
 222 260 222 260 213.5 250.5 c 128,-1,63
 205 241 205 241 205 222 c 2,64,-1
 205 90 l 2,65,66
 205 71 205 71 213.5 63 c 128,-1,67
 222 55 222 55 241 59 c 2,68,-1
 622 168 l 2,38,39
595 252 m 2,69,-1
 295 166 l 1,70,-1
 295 176 l 1,71,-1
 593 262 l 2,72,73
 614 268 614 268 628.5 281.5 c 128,-1,74
 643 295 643 295 643 323 c 2,75,-1
 643 395 l 2,76,77
 643 423 643 423 628.5 435 c 128,-1,78
 614 447 614 447 593 453 c 2,79,-1
 295 539 l 1,80,-1
 295 549 l 1,81,-1
 595 463 l 2,82,83
 620 456 620 456 636.5 442 c 128,-1,84
 653 428 653 428 653 395 c 2,85,-1
 653 323 l 2,86,87
 653 290 653 290 636.5 274.5 c 128,-1,88
 620 259 620 259 595 252 c 2,69,-1
EndSplineSet
Validated: 33
EndChar

StartChar: question
Encoding: 63 63 34
Width: 756
GlyphClass: 2
Flags: W
LayerCount: 2
Fore
SplineSet
330 -119 m 2,0,-1
 147 -119 l 2,1,2
 122 -119 122 -119 111.5 -108 c 128,-1,3
 101 -97 101 -97 101 -73 c 2,4,-1
 101 58 l 2,5,6
 101 72 101 72 104 81.5 c 128,-1,7
 107 91 107 91 114 95 c 2,8,-1
 143 120 l 1,9,10
 135 124 135 124 129.5 132.5 c 128,-1,11
 124 141 124 141 122 156 c 2,12,-1
 101 288 l 2,13,14
 98 303 98 303 101.5 313.5 c 128,-1,15
 105 324 105 324 113 331 c 2,16,-1
 205 408 l 1,17,-1
 67 408 l 2,18,19
 43 408 43 408 32 418.5 c 128,-1,20
 21 429 21 429 21 454 c 2,21,-1
 21 575 l 2,22,23
 21 588 21 588 24.5 597 c 128,-1,24
 28 606 28 606 35 612 c 2,25,-1
 164 721 l 2,26,27
 169 725 169 725 177.5 727.5 c 128,-1,28
 186 730 186 730 196 730 c 2,29,-1
 519 730 l 2,30,31
 621 730 621 730 678.5 682 c 128,-1,32
 736 634 736 634 736 544 c 2,33,-1
 736 439 l 2,34,35
 736 391 736 391 722.5 358.5 c 128,-1,36
 709 326 709 326 684 305 c 2,37,-1
 555 197 l 2,38,39
 544 188 544 188 531.5 181 c 128,-1,40
 519 174 519 174 505 169 c 1,41,-1
 505 36 l 2,42,43
 505 23 505 23 501.5 14 c 128,-1,44
 498 5 498 5 491 -1 c 2,45,-1
 361 -109 l 2,46,47
 357 -113 357 -113 348.5 -116 c 128,-1,48
 340 -119 340 -119 330 -119 c 2,0,-1
571 273 m 2,49,50
 642 283 642 283 684 319 c 128,-1,51
 726 355 726 355 726 439 c 2,52,-1
 726 544 l 2,53,54
 726 629 726 629 671 674.5 c 128,-1,55
 616 720 616 720 519 720 c 2,56,-1
 196 720 l 2,57,58
 177 720 177 720 168.5 711.5 c 128,-1,59
 160 703 160 703 160 684 c 2,60,-1
 160 563 l 2,61,62
 160 544 160 544 168.5 535.5 c 128,-1,63
 177 527 177 527 196 527 c 2,64,-1
 472 527 l 2,65,66
 485 527 485 527 492 520 c 128,-1,67
 499 513 499 513 499 499 c 0,68,69
 499 484 499 484 493 477 c 128,-1,70
 487 470 487 470 472 468 c 2,71,-1
 273 440 l 2,72,73
 254 438 254 438 245.5 428 c 128,-1,74
 237 418 237 418 240 399 c 2,75,-1
 261 267 l 2,76,77
 264 248 264 248 272.5 241 c 128,-1,78
 281 234 281 234 300 236 c 2,79,-1
 571 273 l 2,49,50
340 340 m 1,80,-1
 338 351 l 1,81,-1
 554 380 l 2,82,83
 573 383 573 383 588 390.5 c 128,-1,84
 603 398 603 398 603 424 c 2,85,-1
 603 537 l 2,86,87
 603 586 603 586 576.5 602 c 128,-1,88
 550 618 550 618 519 618 c 2,89,-1
 250 618 l 1,90,-1
 250 628 l 1,91,-1
 519 628 l 2,92,93
 553 628 553 628 583 609.5 c 128,-1,94
 613 591 613 591 613 537 c 2,95,-1
 613 424 l 2,96,97
 613 393 613 393 596 383 c 128,-1,98
 579 373 579 373 556 370 c 2,99,-1
 340 340 l 1,80,-1
459 0 m 2,100,101
 478 0 478 0 486.5 8.5 c 128,-1,102
 495 17 495 17 495 36 c 2,103,-1
 495 167 l 2,104,105
 495 186 495 186 486.5 194.5 c 128,-1,106
 478 203 478 203 459 203 c 2,107,-1
 276 203 l 2,108,109
 257 203 257 203 248.5 194.5 c 128,-1,110
 240 186 240 186 240 167 c 2,111,-1
 240 36 l 2,112,113
 240 17 240 17 248.5 8.5 c 128,-1,114
 257 0 257 0 276 0 c 2,115,-1
 459 0 l 2,100,101
363 80 m 1,116,-1
 363 123 l 1,117,-1
 373 123 l 1,118,-1
 373 80 l 1,119,-1
 363 80 l 1,116,-1
EndSplineSet
Validated: 1
Substitution2: "'ss01' Style Set 1 in Latin lookup 22 subtable" question.v
Substitution2: "'vert' Vertical Alternates in Latin lookup 21 subtable" question.v
EndChar

StartChar: at
Encoding: 64 64 35
Width: 967
GlyphClass: 2
Flags: W
LayerCount: 2
Fore
SplineSet
285 568 m 2,0,-1
 285 487 l 1,1,-1
 369 558 l 2,2,3
 386 572 386 572 412 582 c 128,-1,4
 438 592 438 592 475 595 c 1,5,6
 462 596 462 596 448.5 596 c 128,-1,7
 435 596 435 596 420 596 c 0,8,9
 380 596 380 596 346 593.5 c 128,-1,10
 312 591 312 591 286 586 c 0,11,12
 285 582 285 582 285 577 c 128,-1,13
 285 572 285 572 285 568 c 2,0,-1
739 -91 m 2,14,15
 758 -91 758 -91 765.5 -83.5 c 128,-1,16
 773 -76 773 -76 773 -57 c 2,17,-1
 773 -29 l 2,18,19
 773 -10 773 -10 765.5 -2.5 c 128,-1,20
 758 5 758 5 739 5 c 2,21,-1
 549 5 l 2,22,23
 467 5 467 5 413.5 15.5 c 128,-1,24
 360 26 360 26 329.5 45 c 128,-1,25
 299 64 299 64 287 91 c 128,-1,26
 275 118 275 118 275 150 c 2,27,-1
 275 568 l 2,28,29
 275 600 275 600 287 627.5 c 128,-1,30
 299 655 299 655 329.5 674 c 128,-1,31
 360 693 360 693 413.5 704 c 128,-1,32
 467 715 467 715 549 715 c 256,33,34
 631 715 631 715 684.5 704 c 128,-1,35
 738 693 738 693 768 674 c 128,-1,36
 798 655 798 655 810 627.5 c 128,-1,37
 822 600 822 600 822 568 c 2,38,-1
 822 302 l 2,39,40
 822 262 822 262 810.5 236.5 c 128,-1,41
 799 211 799 211 760 211 c 1,42,-1
 760 560 l 2,43,44
 760 573 760 573 753.5 579.5 c 128,-1,45
 747 586 747 586 734 586 c 2,46,-1
 509 586 l 2,47,48
 408 586 408 586 370.5 545.5 c 128,-1,49
 333 505 333 505 333 439 c 2,50,-1
 333 246 l 2,51,52
 333 181 333 181 370.5 140.5 c 128,-1,53
 408 100 408 100 509 100 c 2,54,-1
 698 100 l 2,55,56
 768 100 768 100 812 115 c 128,-1,57
 856 130 856 130 880.5 156.5 c 128,-1,58
 905 183 905 183 913.5 220.5 c 128,-1,59
 922 258 922 258 922 304 c 2,60,-1
 922 564 l 2,61,62
 922 619 922 619 906 664.5 c 128,-1,63
 890 710 890 710 848.5 742.5 c 128,-1,64
 807 775 807 775 734 793 c 128,-1,65
 661 811 661 811 549 811 c 256,66,67
 437 811 437 811 364 793 c 128,-1,68
 291 775 291 775 249.5 742.5 c 128,-1,69
 208 710 208 710 191.5 664.5 c 128,-1,70
 175 619 175 619 175 564 c 2,71,-1
 175 154 l 2,72,73
 175 100 175 100 191.5 54.5 c 128,-1,74
 208 9 208 9 249.5 -23 c 128,-1,75
 291 -55 291 -55 364 -73 c 128,-1,76
 437 -91 437 -91 549 -91 c 2,77,-1
 739 -91 l 2,14,15
549 -50 m 2,78,79
 440 -50 440 -50 374.5 -33.5 c 128,-1,80
 309 -17 309 -17 275 11 c 128,-1,81
 241 39 241 39 230.5 75 c 128,-1,82
 220 111 220 111 220 150 c 2,83,-1
 220 568 l 2,84,85
 220 607 220 607 230.5 643.5 c 128,-1,86
 241 680 241 680 275 707.5 c 128,-1,87
 309 735 309 735 374.5 751.5 c 128,-1,88
 440 768 440 768 549 768 c 256,89,90
 658 768 658 768 723.5 751.5 c 128,-1,91
 789 735 789 735 822.5 707.5 c 128,-1,92
 856 680 856 680 866.5 643.5 c 128,-1,93
 877 607 877 607 877 568 c 2,94,-1
 877 302 l 2,95,96
 877 227 877 227 850 193.5 c 128,-1,97
 823 160 823 160 760 160 c 2,98,-1
 498 160 l 2,99,100
 449 160 449 160 429 183.5 c 128,-1,101
 409 207 409 207 409 261 c 2,102,-1
 409 422 l 2,103,104
 409 442 409 442 411 461 c 128,-1,105
 413 480 413 480 425.5 494.5 c 128,-1,106
 438 509 438 509 464.5 518 c 128,-1,107
 491 527 491 527 540 527 c 2,108,-1
 684 527 l 1,109,-1
 684 170 l 1,110,-1
 760 170 l 2,111,112
 818 170 818 170 842.5 201.5 c 128,-1,113
 867 233 867 233 867 302 c 2,114,-1
 867 568 l 2,115,116
 867 606 867 606 856.5 640.5 c 128,-1,117
 846 675 846 675 812.5 701 c 128,-1,118
 779 727 779 727 716 742.5 c 128,-1,119
 653 758 653 758 549 758 c 256,120,121
 445 758 445 758 382 742.5 c 128,-1,122
 319 727 319 727 285.5 701 c 128,-1,123
 252 675 252 675 241 640.5 c 128,-1,124
 230 606 230 606 230 568 c 2,125,-1
 230 150 l 2,126,127
 230 113 230 113 240.5 78.5 c 128,-1,128
 251 44 251 44 284.5 17.5 c 128,-1,129
 318 -9 318 -9 381.5 -24.5 c 128,-1,130
 445 -40 445 -40 549 -40 c 2,131,-1
 723 -40 l 1,132,-1
 723 -50 l 1,133,-1
 549 -50 l 2,78,79
498 170 m 2,134,-1
 674 170 l 1,135,-1
 674 517 l 1,136,-1
 540 517 l 2,137,138
 496 517 496 517 471.5 509 c 128,-1,139
 447 501 447 501 435.5 488 c 128,-1,140
 424 475 424 475 421.5 457.5 c 128,-1,141
 419 440 419 440 419 422 c 2,142,-1
 419 261 l 2,143,144
 419 213 419 213 436.5 191.5 c 128,-1,145
 454 170 454 170 498 170 c 2,134,-1
530 237 m 2,146,147
 510 237 510 237 503 246.5 c 128,-1,148
 496 256 496 256 496 271 c 2,149,-1
 496 422 l 2,150,151
 496 435 496 435 504 446.5 c 128,-1,152
 512 458 512 458 540 458 c 2,153,-1
 597 458 l 1,154,-1
 597 237 l 1,155,-1
 530 237 l 2,146,147
775.590457298 27.525356275 m 1,156,157
 802.996078211 13.3150756588 802.996078211 13.3150756588 802.996078211 -29 c 2,158,-1
 802.996078211 -57 l 2,159,160
 802.996078211 -90.9316603289 802.996078211 -90.9316603289 784.190014114 -107.03952996 c 2,161,-1
 653.830152471 -216.343732486 l 2,162,163
 636.779111752 -229.996078211 636.779111752 -229.996078211 610 -229.996078211 c 2,164,-1
 420 -229.996078211 l 2,165,166
 300.737173525 -229.996078211 300.737173525 -229.996078211 220.39291019 -203.214657099 c 128,-1,167
 140.048646856 -176.433235988 140.048646856 -176.433235988 92.5726536729 -128.958190743 c 0,168,169
 49.474302759 -85.8598398292 49.474302759 -85.8598398292 32.7391122741 -29.9015466453 c 128,-1,170
 16.0039217892 26.0567465385 16.0039217892 26.0567465385 16.0039217892 85 c 2,171,-1
 16.0039217892 455 l 2,172,173
 16.0039217892 513.36204235 16.0039217892 513.36204235 33.0934954784 563.028615884 c 0,174,175
 50.868710186 614.687833628 50.868710186 614.687833628 95.1642716497 652.339060873 c 2,176,-1
 225.210709449 761.377997181 l 2,177,178
 270.582692893 799.187983385 270.582692893 799.187983385 348.973033271 820.092030798 c 128,-1,179
 427.36337365 840.996078211 427.36337365 840.996078211 547.968156295 840.996078211 c 128,-1,180
 668.509252861 840.996078211 668.509252861 840.996078211 746.841155083 821.151996315 c 128,-1,181
 825.173057305 801.307914418 825.173057305 801.307914418 870.568941283 764.558865483 c 0,182,183
 917.100984526 726.890068572 917.100984526 726.890068572 934.548531369 675.092663884 c 128,-1,184
 951.996078211 623.295259197 951.996078211 623.295259197 951.996078211 564 c 2,185,-1
 951.996078211 304 l 2,186,187
 951.996078211 247.245494342 951.996078211 247.245494342 939.905767227 203.921879983 c 0,188,189
 925.572732682 152.561839532 925.572732682 152.561839532 886.82440525 120.651452235 c 2,190,-1
 775.590457298 27.525356275 l 1,156,157
783 -57 m 2,191,-1
 783 -29 l 2,192,193
 783 -5 783 -5 773 5 c 0,194,195
 766.425014646 11.5749853539 766.425014646 11.5749853539 753.663460981 13.8367265347 c 0,196,197
 750.573195569 14.3844169434 750.573195569 14.3844169434 747.692931364 17.2646811482 c 128,-1,198
 744.812667159 20.144945353 744.812667159 20.144945353 744.812667159 23.6804792589 c 0,199,200
 744.812667159 27.8472323839 744.812667159 27.8472323839 749.007066252 31.3547531416 c 2,201,-1
 874 136 l 2,202,203
 908 164 908 164 920.806591921 209.890287718 c 0,204,205
 932 250 932 250 932 304 c 2,206,-1
 932 564 l 2,207,208
 932 620 932 620 915.800167868 668.093251642 c 0,209,210
 900 715 900 715 858 749 c 128,-1,211
 816 783 816 783 741 802 c 128,-1,212
 666 821 666 821 547.968156295 821 c 128,-1,213
 429.999998668 821 429.999998668 821 354.999998811 800.999999564 c 128,-1,214
 279.999998954 780.999999128 279.999998954 780.999999128 238 746 c 2,215,-1
 108 637 l 2,216,217
 68 603 68 603 52 556.5 c 128,-1,218
 36 510 36 510 36 455 c 2,219,-1
 36 85 l 2,220,221
 36 29 36 29 51.5949367089 -23.1455696203 c 0,222,223
 85.7162629758 -137.238754325 85.7162629758 -137.238754325 228.716780935 -184.905593645 c 0,224,225
 304 -210 304 -210 420 -210 c 2,226,-1
 610 -210 l 2,227,228
 629.682674881 -210 629.682674881 -210 641.087016527 -200.927034684 c 0,229,230
 771.952857352 -91.1985784784 771.952857352 -91.1985784784 772.738804437 -90.4126313936 c 0,231,232
 783 -80.1514358302 783 -80.1514358302 783 -57 c 2,191,-1
EndSplineSet
Validated: 524297
EndChar

StartChar: A
Encoding: 65 65 36
Width: 830
GlyphClass: 2
Flags: W
LayerCount: 2
Fore
SplineSet
285 303 m 2,0,-1
 285 272 l 1,1,-1
 675 272 l 1,2,-1
 675 303 l 2,3,4
 675 330 675 330 670.5 353 c 128,-1,5
 666 376 666 376 659 396 c 2,6,-1
 590 559 l 2,7,8
 579 585 579 585 567 602.5 c 128,-1,9
 555 620 555 620 527 620 c 2,10,-1
 429 620 l 2,11,12
 399 620 399 620 387 602.5 c 128,-1,13
 375 585 375 585 365 560 c 2,14,-1
 301 396 l 2,15,16
 294 376 294 376 289.5 353 c 128,-1,17
 285 330 285 330 285 303 c 2,0,-1
445 510 m 2,18,19
 449 519 449 519 453.5 523 c 128,-1,20
 458 527 458 527 464 527 c 2,21,-1
 489 527 l 2,22,23
 495 527 495 527 499.5 523 c 128,-1,24
 504 519 504 519 508 510 c 2,25,-1
 555 358 l 1,26,-1
 398 358 l 1,27,-1
 445 510 l 2,18,19
675 90 m 1,28,-1
 675 262 l 1,29,-1
 285 262 l 1,30,-1
 285 90 l 1,31,-1
 275 90 l 1,32,-1
 275 303 l 2,33,34
 275 331 275 331 279.5 354.5 c 128,-1,35
 284 378 284 378 292 400 c 2,36,-1
 356 564 l 2,37,38
 367 592 367 592 381 611 c 128,-1,39
 395 630 395 630 429 630 c 2,40,-1
 527 630 l 2,41,42
 560 630 560 630 573.5 611 c 128,-1,43
 587 592 587 592 599 563 c 2,44,-1
 668 400 l 2,45,46
 676 378 676 378 680.5 354.5 c 128,-1,47
 685 331 685 331 685 303 c 2,48,-1
 685 90 l 1,49,-1
 675 90 l 1,28,-1
388 36 m 2,50,-1
 388 176 l 1,51,-1
 565 176 l 1,52,-1
 565 36 l 2,53,54
 565 17 565 17 574.5 8.5 c 128,-1,55
 584 0 584 0 604 0 c 2,56,-1
 755 0 l 2,57,58
 774 0 774 0 782.5 8.5 c 128,-1,59
 791 17 791 17 791 36 c 2,60,-1
 791 300 l 2,61,62
 791 330 791 330 781.5 369 c 128,-1,63
 772 408 772 408 752 460 c 2,64,-1
 665 687 l 2,65,66
 659 704 659 704 646.5 712 c 128,-1,67
 634 720 634 720 615 720 c 2,68,-1
 346 720 l 2,69,70
 326 720 326 720 313.5 712 c 128,-1,71
 301 704 301 704 295 687 c 2,72,-1
 208 460 l 2,73,74
 188 408 188 408 178.5 369 c 128,-1,75
 169 330 169 330 169 300 c 2,76,-1
 169 36 l 2,77,78
 169 17 169 17 177.5 8.5 c 128,-1,79
 186 0 186 0 205 0 c 2,80,-1
 352 0 l 2,81,82
 371 0 371 0 379.5 8.5 c 128,-1,83
 388 17 388 17 388 36 c 2,50,-1
76 -139 m 2,84,85
 44 -139 44 -139 27 -122 c 128,-1,86
 10 -105 10 -105 10 -73 c 2,87,-1
 10 191 l 2,88,89
 10 224 10 224 20 265.5 c 128,-1,90
 30 307 30 307 51 362 c 2,91,-1
 137 588 l 2,92,93
 144 607 144 607 160 623 c 2,94,95
 160 623 160 623 289 731 c 0,96,97
 311 750 311 750 346 750 c 2,98,-1
 615 750 l 2,99,100
 653 750 653 750 674 728 c 0,101,102
 686 716 686 716 693 698 c 2,103,-1
 780 471 l 2,104,105
 801 416 801 416 811 374.5 c 128,-1,106
 821 333 821 333 821 300 c 2,107,-1
 821 36 l 2,108,109
 821 2 821 2 800 -16 c 0,110,111
 735 -70 735 -70 670 -124 c 0,112,113
 663 -131 663 -131 651 -135 c 128,-1,114
 639 -139 639 -139 626 -139 c 2,115,-1
 475 -139 l 2,116,117
 441 -139 441 -139 423.5 -121.5 c 128,-1,118
 406 -104 406 -104 406 -73 c 2,119,-1
 406 -6 l 1,120,121
 402 -12 402 -12 397 -16 c 0,122,123
 332 -70 332 -70 267 -124 c 0,124,125
 260 -131 260 -131 248 -135 c 128,-1,126
 236 -139 236 -139 223 -139 c 2,127,-1
 76 -139 l 2,84,85
76 -119 m 2,128,-1
 223 -119 l 2,129,130
 233 -119 233 -119 241.5 -116 c 128,-1,131
 250 -113 250 -113 254 -109 c 0,132,133
 385 0 385 0 386 1 c 0,134,135
 398 13 398 13 398 36 c 2,136,-1
 398 47 l 2,137,138
 398 51 398 51 401 54 c 128,-1,139
 404 57 404 57 408 57 c 2,140,-1
 416 57 l 2,141,142
 420 57 420 57 423 54 c 128,-1,143
 426 51 426 51 426 47 c 2,144,-1
 426 -73 l 2,145,146
 426 -96 426 -96 437.5 -107.5 c 128,-1,147
 449 -119 449 -119 475 -119 c 2,148,-1
 626 -119 l 2,149,150
 636 -119 636 -119 644.5 -116 c 128,-1,151
 653 -113 653 -113 657 -109 c 0,152,153
 788 0 788 0 789 1 c 0,154,155
 801 13 801 13 801 36 c 2,156,-1
 801 300 l 2,157,158
 801 361 801 361 761 464 c 2,159,-1
 674 691 l 2,160,161
 669 705 669 705 660 714 c 0,162,163
 644 730 644 730 615 730 c 2,164,-1
 346 730 l 2,165,166
 318 730 318 730 302 716 c 2,167,-1
 174 609 l 2,168,169
 161 596 161 596 156 581 c 2,170,-1
 70 355 l 2,171,172
 30 252 30 252 30 191 c 2,173,-1
 30 -73 l 2,174,175
 30 -97 30 -97 41 -108 c 128,-1,176
 52 -119 52 -119 76 -119 c 2,128,-1
EndSplineSet
Validated: 9
Substitution2: "'ss01' Style Set 1 in Latin lookup 22 subtable" A.v
Substitution2: "'vert' Vertical Alternates in Latin lookup 21 subtable" A.v
Substitution2: "'ss02' Style Set 2 in Latin lookup 5 subtable" A.salt
EndChar

StartChar: B
Encoding: 66 66 37
Width: 825
GlyphClass: 2
Flags: W
LayerCount: 2
Fore
SplineSet
604 0 m 2,0,1
 703 0 703 0 750.5 40 c 128,-1,2
 798 80 798 80 798 164 c 2,3,-1
 798 256 l 2,4,5
 798 329 798 329 767 367 c 128,-1,6
 736 405 736 405 672 411 c 1,7,8
 702 424 702 424 716.5 450.5 c 128,-1,9
 731 477 731 477 731 519 c 2,10,-1
 731 567 l 2,11,12
 731 645 731 645 684 682.5 c 128,-1,13
 637 720 637 720 539 720 c 2,14,-1
 220 720 l 2,15,16
 201 720 201 720 192.5 711.5 c 128,-1,17
 184 703 184 703 184 684 c 2,18,-1
 184 36 l 2,19,20
 184 17 184 17 192.5 8.5 c 128,-1,21
 201 0 201 0 220 0 c 2,22,-1
 604 0 l 2,0,1
564 90 m 2,23,-1
 295 90 l 1,24,-1
 295 630 l 1,25,-1
 498 630 l 2,26,27
 539 630 539 630 565 621.5 c 128,-1,28
 591 613 591 613 605 598.5 c 128,-1,29
 619 584 619 584 624 565 c 128,-1,30
 629 546 629 546 629 524 c 2,31,-1
 629 460 l 2,32,33
 629 430 629 430 618.5 405 c 128,-1,34
 608 380 608 380 565 369 c 1,35,36
 606 369 606 369 632 360.5 c 128,-1,37
 658 352 658 352 672 336.5 c 128,-1,38
 686 321 686 321 690.5 300 c 128,-1,39
 695 279 695 279 695 254 c 2,40,-1
 695 190 l 2,41,42
 695 168 695 168 690 149.5 c 128,-1,43
 685 131 685 131 671.5 118 c 128,-1,44
 658 105 658 105 632 97.5 c 128,-1,45
 606 90 606 90 564 90 c 2,23,-1
498 620 m 2,46,-1
 305 620 l 1,47,-1
 305 369 l 1,48,-1
 498 369 l 2,49,50
 539 369 539 369 563 376.5 c 128,-1,51
 587 384 587 384 599.5 396.5 c 128,-1,52
 612 409 612 409 615.5 425.5 c 128,-1,53
 619 442 619 442 619 460 c 2,54,-1
 619 524 l 2,55,56
 619 564 619 564 596 592 c 128,-1,57
 573 620 573 620 498 620 c 2,46,-1
409 550 m 1,58,-1
 494 550 l 2,59,60
 513 550 513 550 522.5 540 c 128,-1,61
 532 530 532 530 532 510 c 2,62,-1
 532 482 l 2,63,64
 532 462 532 462 522.5 452 c 128,-1,65
 513 442 513 442 494 442 c 2,66,-1
 409 442 l 1,67,-1
 409 550 l 1,58,-1
565 359 m 2,68,-1
 305 359 l 1,69,-1
 305 100 l 1,70,-1
 564 100 l 2,71,72
 639 100 639 100 662 124.5 c 128,-1,73
 685 149 685 149 685 190 c 2,74,-1
 685 254 l 2,75,76
 685 299 685 299 662.5 329 c 128,-1,77
 640 359 640 359 565 359 c 2,68,-1
409 288 m 1,78,-1
 539 288 l 2,79,80
 558 288 558 288 567.5 278.5 c 128,-1,81
 577 269 577 269 577 249 c 2,82,-1
 577 210 l 2,83,84
 577 190 577 190 567.5 180 c 128,-1,85
 558 170 558 170 539 170 c 2,86,-1
 409 170 l 1,87,-1
 409 288 l 1,78,-1
737 426 m 1,88,89
 828 387 828 387 828 256 c 2,90,-1
 828 164 l 2,91,92
 828 115 828 115 815 82 c 0,93,94
 799 42 799 42 769 17 c 2,95,-1
 640 -92 l 2,96,97
 584 -139 584 -139 475 -139 c 2,98,-1
 91 -139 l 2,99,100
 59 -139 59 -139 42 -122 c 128,-1,101
 25 -105 25 -105 25 -73 c 2,102,-1
 25 575 l 2,103,104
 25 609 25 609 46 627 c 2,105,-1
 175 736 l 2,106,107
 192 750 192 750 220 750 c 2,108,-1
 539 750 l 2,109,110
 661 750 661 750 715 696 c 0,111,112
 761 650 761 650 761 567 c 2,113,-1
 761 519 l 2,114,115
 761 461 761 461 737 426 c 1,88,89
741 519 m 2,116,-1
 741 567 l 2,117,118
 741 641 741 641 701 682 c 0,119,120
 652 730 652 730 539 730 c 2,121,-1
 220 730 l 2,122,123
 199 730 199 730 188 721 c 0,124,125
 58 611 58 611 57 610 c 0,126,127
 45 598 45 598 45 575 c 2,128,-1
 45 -73 l 2,129,130
 45 -97 45 -97 56 -108 c 128,-1,131
 67 -119 67 -119 91 -119 c 2,132,-1
 475 -119 l 2,133,134
 577 -119 577 -119 627 -77 c 2,135,-1
 756 32 l 2,136,137
 808 76 808 76 808 164 c 2,138,-1
 808 256 l 2,139,140
 808 382 808 382 717 412 c 0,141,142
 715 413 715 413 713 415 c 0,143,144
 707 421 707 421 713 428 c 0,145,146
 741 459 741 459 741 519 c 2,116,-1
EndSplineSet
Validated: 9
Substitution2: "'ss01' Style Set 1 in Latin lookup 22 subtable" B.v
Substitution2: "'vert' Vertical Alternates in Latin lookup 21 subtable" B.v
EndChar

StartChar: C
Encoding: 67 67 38
Width: 728
GlyphClass: 2
Flags: W
LayerCount: 2
Fore
SplineSet
663 0 m 2,0,1
 682 0 682 0 690.5 8.5 c 128,-1,2
 699 17 699 17 699 36 c 2,3,-1
 699 155 l 2,4,5
 699 174 699 174 690.5 182.5 c 128,-1,6
 682 191 682 191 663 191 c 2,7,-1
 462 191 l 2,8,9
 431 191 431 191 416 202.5 c 128,-1,10
 401 214 401 214 401 239 c 2,11,-1
 401 477 l 2,12,13
 401 502 401 502 416 514.5 c 128,-1,14
 431 527 431 527 462 527 c 2,15,-1
 663 527 l 2,16,17
 682 527 682 527 690.5 535.5 c 128,-1,18
 699 544 699 544 699 563 c 2,19,-1
 699 684 l 2,20,21
 699 703 699 703 690.5 711.5 c 128,-1,22
 682 720 682 720 663 720 c 2,23,-1
 419 720 l 2,24,25
 294 720 294 720 233.5 669.5 c 128,-1,26
 173 619 173 619 173 515 c 2,27,-1
 173 204 l 2,28,29
 173 100 173 100 233.5 50 c 128,-1,30
 294 0 294 0 419 0 c 2,31,-1
 663 0 l 2,0,1
608 100 m 1,32,-1
 608 90 l 1,33,-1
 441 90 l 2,34,35
 344 90 344 90 312.5 120 c 128,-1,36
 281 150 281 150 281 219 c 2,37,-1
 281 499 l 2,38,39
 281 570 281 570 313 600 c 128,-1,40
 345 630 345 630 441 630 c 2,41,-1
 608 630 l 1,42,-1
 608 620 l 1,43,-1
 441 620 l 2,44,45
 353 620 353 620 322 592.5 c 128,-1,46
 291 565 291 565 291 499 c 2,47,-1
 291 219 l 2,48,49
 291 154 291 154 321 127 c 128,-1,50
 351 100 351 100 441 100 c 2,51,-1
 608 100 l 1,32,-1
663 221 m 2,52,53
 695 221 695 221 712 204 c 128,-1,54
 729 187 729 187 729 155 c 2,55,-1
 729 36 l 2,56,57
 729 2 729 2 708 -16 c 0,58,59
 643 -70 643 -70 578 -124 c 0,60,61
 571 -131 571 -131 559 -135 c 128,-1,62
 547 -139 547 -139 534 -139 c 2,63,-1
 290 -139 l 2,64,65
 150 -139 150 -139 82 -65 c 128,-1,66
 14 9 14 9 14 125 c 2,67,-1
 14 406 l 2,68,69
 14 465 14 465 30 506 c 0,70,71
 49 554 49 554 84 584 c 2,72,-1
 214 693 l 2,73,74
 282 750 282 750 419 750 c 2,75,-1
 663 750 l 2,76,77
 695 750 695 750 712 733 c 128,-1,78
 729 716 729 716 729 684 c 2,79,-1
 729 563 l 2,80,81
 729 529 729 529 708 511 c 0,82,83
 643 457 643 457 578 403 c 0,84,85
 571 396 571 396 559 392 c 128,-1,86
 547 388 547 388 534 388 c 2,87,-1
 431 388 l 1,88,-1
 431 239 l 2,89,90
 431 229 431 229 435 226 c 0,91,92
 443 221 443 221 462 221 c 2,93,-1
 663 221 l 2,52,53
663 201 m 2,94,-1
 462 201 l 2,95,96
 432 201 432 201 420 213 c 0,97,98
 411 222 411 222 411 239 c 2,99,-1
 411 398 l 2,100,101
 411 402 411 402 414 405 c 128,-1,102
 417 408 417 408 421 408 c 2,103,-1
 534 408 l 2,104,105
 544 408 544 408 552.5 411 c 128,-1,106
 561 414 561 414 565 418 c 0,107,108
 696 527 696 527 697 528 c 0,109,110
 709 540 709 540 709 563 c 2,111,-1
 709 684 l 2,112,113
 709 708 709 708 698 719 c 128,-1,114
 687 730 687 730 663 730 c 2,115,-1
 419 730 l 2,116,117
 289 730 289 730 227 678 c 2,118,-1
 97 569 l 2,119,120
 34 514 34 514 34 406 c 2,121,-1
 34 125 l 2,122,123
 34 17 34 17 97 -51 c 0,124,125
 159 -119 159 -119 290 -119 c 2,126,-1
 534 -119 l 2,127,128
 544 -119 544 -119 552.5 -116 c 128,-1,129
 561 -113 561 -113 565 -109 c 0,130,131
 696 0 696 0 697 1 c 0,132,133
 709 13 709 13 709 36 c 2,134,-1
 709 155 l 2,135,136
 709 179 709 179 698 190 c 128,-1,137
 687 201 687 201 663 201 c 2,94,-1
EndSplineSet
Validated: 9
Substitution2: "'ss01' Style Set 1 in Latin lookup 22 subtable" C.v
Substitution2: "'vert' Vertical Alternates in Latin lookup 21 subtable" C.v
EndChar

StartChar: D
Encoding: 68 68 39
Width: 846
GlyphClass: 2
Flags: W
LayerCount: 2
Fore
SplineSet
557 0 m 2,0,1
 682 0 682 0 742.5 50 c 128,-1,2
 803 100 803 100 803 204 c 2,3,-1
 803 516 l 2,4,5
 803 620 803 620 742.5 670 c 128,-1,6
 682 720 682 720 557 720 c 2,7,-1
 220 720 l 2,8,9
 201 720 201 720 192.5 711.5 c 128,-1,10
 184 703 184 703 184 684 c 2,11,-1
 184 36 l 2,12,13
 184 17 184 17 192.5 8.5 c 128,-1,14
 201 0 201 0 220 0 c 2,15,-1
 557 0 l 2,0,1
293 90 m 1,16,-1
 293 630 l 1,17,-1
 535 630 l 2,18,19
 586 630 586 630 617.5 619 c 128,-1,20
 649 608 649 608 666 589.5 c 128,-1,21
 683 571 683 571 689 545.5 c 128,-1,22
 695 520 695 520 695 491 c 2,23,-1
 695 226 l 2,24,25
 695 197 695 197 689.5 172 c 128,-1,26
 684 147 684 147 667 129 c 128,-1,27
 650 111 650 111 618 100.5 c 128,-1,28
 586 90 586 90 535 90 c 2,29,-1
 293 90 l 1,16,-1
535 620 m 2,30,-1
 303 620 l 1,31,-1
 303 100 l 1,32,-1
 535 100 l 2,33,34
 583 100 583 100 612.5 109.5 c 128,-1,35
 642 119 642 119 658 135.5 c 128,-1,36
 674 152 674 152 679.5 175.5 c 128,-1,37
 685 199 685 199 685 226 c 2,38,-1
 685 491 l 2,39,40
 685 518 685 518 679 542 c 128,-1,41
 673 566 673 566 657 583 c 128,-1,42
 641 600 641 600 611.5 610 c 128,-1,43
 582 620 582 620 535 620 c 2,30,-1
411 529 m 1,44,-1
 530 529 l 2,45,46
 554 529 554 529 565.5 517.5 c 128,-1,47
 577 506 577 506 577 481 c 2,48,-1
 577 238 l 2,49,50
 577 213 577 213 565.5 201 c 128,-1,51
 554 189 554 189 530 189 c 2,52,-1
 411 189 l 1,53,-1
 411 529 l 1,44,-1
438 372 m 2,54,55
 438 385 438 385 434 394 c 128,-1,56
 430 403 430 403 421 407 c 1,57,-1
 421 199 l 1,58,-1
 438 199 l 1,59,-1
 438 372 l 2,54,55
91 -139 m 2,60,61
 59 -139 59 -139 42 -122 c 128,-1,62
 25 -105 25 -105 25 -73 c 2,63,-1
 25 575 l 2,64,65
 25 609 25 609 46 627 c 2,66,-1
 175 736 l 2,67,68
 192 750 192 750 220 750 c 2,69,-1
 557 750 l 2,70,71
 707 750 707 750 774 682 c 0,72,73
 833 624 833 624 833 516 c 2,74,-1
 833 204 l 2,75,76
 833 88 833 88 763 27 c 2,77,-1
 633 -81 l 2,78,79
 564 -139 564 -139 428 -139 c 2,80,-1
 91 -139 l 2,60,61
91 -119 m 2,81,-1
 428 -119 l 2,82,83
 557 -119 557 -119 620 -66 c 2,84,-1
 750 42 l 2,85,86
 813 97 813 97 813 204 c 2,87,-1
 813 516 l 2,88,89
 813 615 813 615 760 668 c 0,90,91
 698 730 698 730 557 730 c 2,92,-1
 220 730 l 2,93,94
 199 730 199 730 188 721 c 0,95,96
 58 611 58 611 57 610 c 0,97,98
 45 598 45 598 45 575 c 2,99,-1
 45 -73 l 2,100,101
 45 -97 45 -97 56 -108 c 128,-1,102
 67 -119 67 -119 91 -119 c 2,81,-1
EndSplineSet
Validated: 9
Substitution2: "'ss01' Style Set 1 in Latin lookup 22 subtable" D.v
Substitution2: "'vert' Vertical Alternates in Latin lookup 21 subtable" D.v
EndChar

StartChar: E
Encoding: 69 69 40
Width: 754
GlyphClass: 2
Flags: W
LayerCount: 2
Fore
SplineSet
684 0 m 2,0,1
 703 0 703 0 711.5 8.5 c 128,-1,2
 720 17 720 17 720 36 c 2,3,-1
 720 153 l 2,4,5
 720 172 720 172 711.5 180.5 c 128,-1,6
 703 189 703 189 684 189 c 2,7,-1
 408 189 l 1,8,-1
 408 275 l 1,9,-1
 603 275 l 2,10,11
 622 275 622 275 630.5 283.5 c 128,-1,12
 639 292 639 292 639 311 c 2,13,-1
 639 418 l 2,14,15
 639 437 639 437 630.5 445.5 c 128,-1,16
 622 454 622 454 603 454 c 2,17,-1
 408 454 l 1,18,-1
 408 531 l 1,19,-1
 684 531 l 2,20,21
 703 531 703 531 711.5 539.5 c 128,-1,22
 720 548 720 548 720 567 c 2,23,-1
 720 684 l 2,24,25
 720 703 720 703 711.5 711.5 c 128,-1,26
 703 720 703 720 684 720 c 2,27,-1
 220 720 l 2,28,29
 201 720 201 720 192.5 711.5 c 128,-1,30
 184 703 184 703 184 684 c 2,31,-1
 184 36 l 2,32,33
 184 17 184 17 192.5 8.5 c 128,-1,34
 201 0 201 0 220 0 c 2,35,-1
 684 0 l 2,0,1
630 100 m 1,36,-1
 630 90 l 1,37,-1
 293 90 l 1,38,-1
 293 630 l 1,39,-1
 630 630 l 1,40,-1
 630 620 l 1,41,-1
 303 620 l 1,42,-1
 303 369 l 1,43,-1
 549 369 l 1,44,-1
 549 359 l 1,45,-1
 303 359 l 1,46,-1
 303 100 l 1,47,-1
 630 100 l 1,36,-1
684 218.996078211 m 2,48,49
 716.143116071 218.996078211 716.143116071 218.996078211 733.069597141 202.069597141 c 128,-1,50
 749.996078211 185.143116071 749.996078211 185.143116071 749.996078211 153 c 2,51,-1
 749.996078211 36 l 2,52,53
 749.996078211 1.7952494323 749.996078211 1.7952494323 729.003080782 -16.1987483638 c 0,54,55
 664.228802202 -70.0112259538 664.228802202 -70.0112259538 599.33629321 -123.923475239 c 0,56,57
 592.237367895 -130.598191814 592.237367895 -130.598191814 580.340362167 -134.797135013 c 128,-1,58
 568.443356438 -138.996078211 568.443356438 -138.996078211 555 -138.996078211 c 2,59,-1
 91 -138.996078211 l 2,60,61
 58.856883929 -138.996078211 58.856883929 -138.996078211 41.9304028591 -122.069597141 c 128,-1,62
 25.0039217892 -105.143116071 25.0039217892 -105.143116071 25.0039217892 -73 c 2,63,-1
 25.0039217892 575 l 2,64,65
 25.0039217892 609.202520471 25.0039217892 609.202520471 46.1058165358 627.289858825 c 2,66,-1
 175.105816536 736.289858825 l 2,67,68
 192.218318473 749.996078211 192.218318473 749.996078211 220 749.996078211 c 2,69,-1
 684 749.996078211 l 2,70,71
 716.143116071 749.996078211 716.143116071 749.996078211 733.069597141 733.069597141 c 128,-1,72
 749.996078211 716.143116071 749.996078211 716.143116071 749.996078211 684 c 2,73,-1
 749.996078211 567 l 2,74,75
 749.996078211 532.794560098 749.996078211 532.794560098 729.003411264 514.800845573 c 0,76,77
 694.490637855 486.307741944 694.490637855 486.307741944 659.83586047 457.695178016 c 1,78,79
 668.996078211 442.320737444 668.996078211 442.320737444 668.996078211 418 c 2,80,-1
 668.996078211 311 l 2,81,82
 668.996078211 276.797749902 668.996078211 276.797749902 647.873876894 258.693005916 c 2,83,-1
 600.766856018 218.996078211 l 1,84,-1
 684 218.996078211 l 2,48,49
684 199 m 2,85,-1
 573.383428009 199 l 2,86,87
 569.23933149 199 569.23933149 199 566.008078891 202.2312526 c 128,-1,88
 562.776826291 205.462505199 562.776826291 205.462505199 562.776826291 208.998039105 c 0,89,90
 562.776826291 213.141563279 562.776826291 213.141563279 566.946489562 216.651536148 c 0,91,92
 635.917372116 274.77306639 635.917372116 274.77306639 637.002755728 275.858450002 c 0,93,94
 649 287.855694274 649 287.855694274 649 311 c 2,95,-1
 649 418 l 2,96,97
 649 441.763774214 649 441.763774214 638.867170963 452.496575465 c 0,98,99
 635.583779875 455.974378539 635.583779875 455.974378539 635.583779875 459.405829231 c 0,100,101
 635.583779875 463.614511146 635.583779875 463.614511146 639.782729348 467.076439345 c 0,102,103
 716.888353225 530.733407895 716.888353225 530.733407895 718.049403808 531.894458478 c 0,104,105
 730 543.84505467 730 543.84505467 730 567 c 2,106,-1
 730 684 l 2,107,108
 730 707.854923034 730 707.854923034 718.927461517 718.927461517 c 128,-1,109
 707.854923034 730 707.854923034 730 684 730 c 2,110,-1
 220 730 l 2,111,112
 199.332334207 730 199.332334207 730 187.892245485 720.908951611 c 0,113,114
 58.0604103244 611.206083142 58.0604103244 611.206083142 56.9899738197 610.135646638 c 0,115,116
 45 598.145672818 45 598.145672818 45 575 c 2,117,-1
 45 -73 l 2,118,119
 45 -96.8549230344 45 -96.8549230344 56.0725384828 -107.927461517 c 128,-1,120
 67.1450769656 -119 67.1450769656 -119 91 -119 c 2,121,-1
 555 -119 l 2,122,123
 565 -119 565 -119 573.374548239 -116.044277092 c 128,-1,124
 581.749096478 -113.088554184 581.749096478 -113.088554184 585.77078988 -109.224633298 c 0,125,126
 716.912629471 -0.241590556894 716.912629471 -0.241590556894 718.049220487 0.895000458775 c 0,127,128
 730 12.8457799719 730 12.8457799719 730 36 c 2,129,-1
 730 153 l 2,130,131
 730 176.854923034 730 176.854923034 718.927461517 187.927461517 c 128,-1,132
 707.854923034 199 707.854923034 199 684 199 c 2,85,-1
EndSplineSet
Substitution2: "'ss01' Style Set 1 in Latin lookup 22 subtable" E.v
Substitution2: "'vert' Vertical Alternates in Latin lookup 21 subtable" E.v
Substitution2: "'ss03' Style Set 3 in Latin lookup 11 subtable" E.salt
EndChar

StartChar: F
Encoding: 70 70 41
Width: 718
GlyphClass: 2
Flags: W
LayerCount: 2
Fore
SplineSet
375 0 m 2,0,1
 394 0 394 0 402.5 8.5 c 128,-1,2
 411 17 411 17 411 36 c 2,3,-1
 411 233 l 1,4,-1
 585 233 l 2,5,6
 604 233 604 233 612.5 241.5 c 128,-1,7
 621 250 621 250 621 269 c 2,8,-1
 621 389 l 2,9,10
 621 408 621 408 612.5 416.5 c 128,-1,11
 604 425 604 425 585 425 c 2,12,-1
 411 425 l 1,13,-1
 411 529 l 1,14,-1
 666 529 l 2,15,16
 685 529 685 529 693.5 537.5 c 128,-1,17
 702 546 702 546 702 565 c 2,18,-1
 702 684 l 2,19,20
 702 703 702 703 693.5 711.5 c 128,-1,21
 685 720 685 720 666 720 c 2,22,-1
 220 720 l 2,23,24
 201 720 201 720 192.5 711.5 c 128,-1,25
 184 703 184 703 184 684 c 2,26,-1
 184 36 l 2,27,28
 184 17 184 17 192.5 8.5 c 128,-1,29
 201 0 201 0 220 0 c 2,30,-1
 375 0 l 2,0,1
293 90 m 1,31,-1
 293 630 l 1,32,-1
 612 630 l 1,33,-1
 612 620 l 1,34,-1
 303 620 l 1,35,-1
 303 334 l 1,36,-1
 531 334 l 1,37,-1
 531 324 l 1,38,-1
 303 324 l 1,39,-1
 303 90 l 1,40,-1
 293 90 l 1,31,-1
627.681805363 443.6131874 m 1,41,42
 650.996078211 427.009689029 650.996078211 427.009689029 650.996078211 389 c 2,43,-1
 650.996078211 269 l 2,44,45
 650.996078211 234.795249432 650.996078211 234.795249432 630.003080782 216.801251636 c 0,46,47
 565.228802202 162.988774046 565.228802202 162.988774046 500.33629321 109.076524762 c 0,48,49
 493.237367895 102.401808186 493.237367895 102.401808186 481.340362167 98.2028649875 c 128,-1,50
 469.443356438 94.0039217892 469.443356438 94.0039217892 456 94.0039217892 c 2,51,-1
 440.996078211 94.0039217892 l 1,52,-1
 440.996078211 36 l 2,53,54
 440.996078211 1.7952494323 440.996078211 1.7952494323 420.003080782 -16.1987483638 c 0,55,56
 355.228802202 -70.0112259538 355.228802202 -70.0112259538 290.33629321 -123.923475239 c 0,57,58
 283.237367895 -130.598191814 283.237367895 -130.598191814 271.340362167 -134.797135013 c 128,-1,59
 259.443356438 -138.996078211 259.443356438 -138.996078211 246 -138.996078211 c 2,60,-1
 91 -138.996078211 l 2,61,62
 58.856883929 -138.996078211 58.856883929 -138.996078211 41.9304028591 -122.069597141 c 128,-1,63
 25.0039217892 -105.143116071 25.0039217892 -105.143116071 25.0039217892 -73 c 2,64,-1
 25.0039217892 575 l 2,65,66
 25.0039217892 609.202520471 25.0039217892 609.202520471 46.1058165358 627.289858825 c 2,67,-1
 175.105816536 736.289858825 l 2,68,69
 192.218318473 749.996078211 192.218318473 749.996078211 220 749.996078211 c 2,70,-1
 666 749.996078211 l 2,71,72
 698.143116071 749.996078211 698.143116071 749.996078211 715.069597141 733.069597141 c 128,-1,73
 731.996078211 716.143116071 731.996078211 716.143116071 731.996078211 684 c 2,74,-1
 731.996078211 565 l 2,75,76
 731.996078211 530.795199365 731.996078211 530.795199365 711.003104849 512.801222197 c 0,77,78
 669.402511376 478.25787226 669.402511376 478.25787226 627.681805363 443.6131874 c 1,41,42
598.992849543 441.597174217 m 128,-1,80
 598.992849543 445.132708123 598.992849543 445.132708123 602.528383449 448.668242029 c 0,81,82
 698.912364902 528.758092186 698.912364902 528.758092186 700.049233847 529.894961131 c 0,83,84
 712 541.845727284 712 541.845727284 712 565 c 2,85,-1
 712 684 l 2,86,87
 712 707.854923034 712 707.854923034 700.927461517 718.927461517 c 128,-1,88
 689.854923034 730 689.854923034 730 666 730 c 2,89,-1
 220 730 l 2,90,91
 199.332334207 730 199.332334207 730 187.892245485 720.908951611 c 0,92,93
 58.0604103244 611.206083142 58.0604103244 611.206083142 56.9899738197 610.135646638 c 0,94,95
 45 598.145672818 45 598.145672818 45 575 c 2,96,-1
 45 -73 l 2,97,98
 45 -96.8549230344 45 -96.8549230344 56.0725384828 -107.927461517 c 128,-1,99
 67.1450769656 -119 67.1450769656 -119 91 -119 c 2,100,-1
 246 -119 l 2,101,102
 256 -119 256 -119 264.374548239 -116.044277092 c 128,-1,103
 272.749096478 -113.088554184 272.749096478 -113.088554184 276.77078988 -109.224633298 c 0,104,105
 407.912629471 -0.241590556896 407.912629471 -0.241590556896 409.049220487 0.895000458776 c 0,106,107
 421 12.8457799719 421 12.8457799719 421 36 c 2,108,-1
 421 104.001960895 l 2,109,110
 421 108.146057413 421 108.146057413 423.926971294 111.073028706 c 128,-1,111
 426.853942587 114 426.853942587 114 430.998039105 114 c 2,112,-1
 456 114 l 2,113,114
 466 114 466 114 474.374548239 116.955722908 c 128,-1,115
 482.749096478 119.911445816 482.749096478 119.911445816 486.77078988 123.775366702 c 0,116,117
 617.912629471 232.758409443 617.912629471 232.758409443 619.049220487 233.895000459 c 0,118,119
 631 245.845779972 631 245.845779972 631 269 c 2,120,-1
 631 389 l 2,121,122
 631 423.908438306 631 423.908438306 606.421549822 432.114632439 c 0,123,124
 604.197195225 432.857294629 604.197195225 432.857294629 601.595022384 435.45946747 c 128,-1,79
 598.992849543 438.061640311 598.992849543 438.061640311 598.992849543 441.597174217 c 128,-1,80
EndSplineSet
Substitution2: "'ss01' Style Set 1 in Latin lookup 22 subtable" F.v
Substitution2: "'vert' Vertical Alternates in Latin lookup 21 subtable" F.v
EndChar

StartChar: G
Encoding: 71 71 42
Width: 808
GlyphClass: 2
Flags: W
LayerCount: 2
Fore
SplineSet
734 0 m 2,0,1
 753 0 753 0 761.5 8.5 c 128,-1,2
 770 17 770 17 770 36 c 2,3,-1
 770 345 l 2,4,5
 770 364 770 364 761.5 372.5 c 128,-1,6
 753 381 753 381 734 381 c 2,7,-1
 579 381 l 2,8,9
 560 381 560 381 551.5 372.5 c 128,-1,10
 543 364 543 364 543 345 c 2,11,-1
 543 189 l 1,12,-1
 446 189 l 2,13,14
 423 189 423 189 411.5 201 c 128,-1,15
 400 213 400 213 400 238 c 2,16,-1
 400 477 l 2,17,18
 400 502 400 502 415 514.5 c 128,-1,19
 430 527 430 527 461 527 c 2,20,-1
 669 527 l 2,21,22
 688 527 688 527 696.5 535.5 c 128,-1,23
 705 544 705 544 705 563 c 2,24,-1
 705 684 l 2,25,26
 705 703 705 703 696.5 711.5 c 128,-1,27
 688 720 688 720 669 720 c 2,28,-1
 419 720 l 2,29,30
 294 720 294 720 233.5 670 c 128,-1,31
 173 620 173 620 173 516 c 2,32,-1
 173 204 l 2,33,34
 173 100 173 100 233.5 50 c 128,-1,35
 294 0 294 0 419 0 c 2,36,-1
 734 0 l 2,0,1
462 90 m 2,37,38
 407 90 407 90 372 97 c 128,-1,39
 337 104 337 104 317 119.5 c 128,-1,40
 297 135 297 135 289.5 159.5 c 128,-1,41
 282 184 282 184 282 219 c 2,42,-1
 282 499 l 2,43,44
 282 570 282 570 314 600 c 128,-1,45
 346 630 346 630 442 630 c 2,46,-1
 615 630 l 1,47,-1
 615 620 l 1,48,-1
 442 620 l 2,49,50
 354 620 354 620 323 592.5 c 128,-1,51
 292 565 292 565 292 499 c 2,52,-1
 292 219 l 2,53,54
 292 154 292 154 326.5 127 c 128,-1,55
 361 100 361 100 462 100 c 2,56,-1
 651 100 l 1,57,-1
 651 291 l 1,58,-1
 661 291 l 1,59,-1
 661 90 l 1,60,-1
 462 90 l 2,37,38
429.996078211 388.003921789 m 1,61,-1
 429.996078211 309.321165201 l 1,62,-1
 523.116037842 388.003921789 l 1,63,-1
 429.996078211 388.003921789 l 1,61,-1
734 410.996078211 m 2,64,65
 766.143116071 410.996078211 766.143116071 410.996078211 783.069597141 394.069597141 c 128,-1,66
 799.996078211 377.143116071 799.996078211 377.143116071 799.996078211 345 c 2,67,-1
 799.996078211 36 l 2,68,69
 799.996078211 1.7952494323 799.996078211 1.7952494323 779.003080782 -16.1987483638 c 0,70,71
 714.228802202 -70.0112259538 714.228802202 -70.0112259538 649.33629321 -123.923475239 c 0,72,73
 642.237367895 -130.598191814 642.237367895 -130.598191814 630.340362167 -134.797135013 c 128,-1,74
 618.443356438 -138.996078211 618.443356438 -138.996078211 605 -138.996078211 c 2,75,-1
 290 -138.996078211 l 2,76,77
 150.213888916 -138.996078211 150.213888916 -138.996078211 82.1089052394 -65.0001680229 c 128,-1,78
 14.0039215628 8.99574216505 14.0039215628 8.99574216505 14.0039217892 125 c 2,79,-1
 14.0039217892 407 l 2,80,81
 14.0039217892 465.869315194 14.0039217892 465.869315194 30.3126185662 506.641057137 c 0,82,83
 49.2205826531 553.910967354 49.2205826531 553.910967354 83.8764397795 584.094566857 c 2,84,-1
 213.162030252 693.337181269 l 2,85,86
 280.716868914 749.996078211 280.716868914 749.996078211 419 749.996078211 c 2,87,-1
 669 749.996078211 l 2,88,89
 701.143116071 749.996078211 701.143116071 749.996078211 718.069597141 733.069597141 c 128,-1,90
 734.996078211 716.143116071 734.996078211 716.143116071 734.996078211 684 c 2,91,-1
 734.996078211 563 l 2,92,93
 734.996078211 528.795249432 734.996078211 528.795249432 714.003080782 510.801251636 c 0,94,95
 653.995200111 460.948550771 653.995200111 460.948550771 593.869089029 410.996078211 c 1,96,-1
 734 410.996078211 l 2,64,65
734 391 m 2,97,-1
 579 391 l 2,98,99
 558.332334207 391 558.332334207 391 546.892245485 381.908951611 c 2,100,-1
 426.445130838 280.135808227 l 2,101,102
 423.099068157 277.308514955 423.099068157 277.308514955 419.713597162 277.308514955 c 128,-1,103
 416.328126166 277.308514955 416.328126166 277.308514955 413.164063083 280.654257477 c 128,-1,104
 410 284 410 284 410 287.780737639 c 2,105,-1
 410 398.001960895 l 2,106,107
 410 402.146057413 410 402.146057413 412.926971294 405.073028706 c 0,108,109
 418.224292243 408.024348355 418.224292243 408.024348355 419.057350839 408.024348355 c 128,-1,110
 419.890409436 408.024348355 419.890409436 408.024348355 419.998039105 408 c 2,111,-1
 540 408 l 2,112,113
 550 408 550 408 558.374548239 410.955722908 c 128,-1,114
 566.749096478 413.911445816 566.749096478 413.911445816 570.77078988 417.775366702 c 0,115,116
 701.912629471 526.758409443 701.912629471 526.758409443 703.049220487 527.895000459 c 0,117,118
 715 539.845779972 715 539.845779972 715 563 c 2,119,-1
 715 684 l 2,120,121
 715 707.854923034 715 707.854923034 703.927461517 718.927461517 c 128,-1,122
 692.854923034 730 692.854923034 730 669 730 c 2,123,-1
 419 730 l 2,124,125
 288 730 288 730 226 678 c 2,126,-1
 96.943326579 568.952113234 l 2,127,128
 34 514.079539462 34 514.079539462 34 407 c 2,129,-1
 34 125 l 2,130,131
 34 16.8997583809 34 16.8997583809 96.6685226839 -51.2350280373 c 0,132,133
 158.996900274 -119 158.996900274 -119 290 -119 c 2,134,-1
 605 -119 l 2,135,136
 615 -119 615 -119 623.374548239 -116.044277092 c 128,-1,137
 631.749096478 -113.088554184 631.749096478 -113.088554184 635.77078988 -109.224633298 c 0,138,139
 766.912629471 -0.241590556894 766.912629471 -0.241590556894 768.049220487 0.895000458776 c 0,140,141
 780 12.8457799719 780 12.8457799719 780 36 c 2,142,-1
 780 345 l 2,143,144
 780 368.854923034 780 368.854923034 768.927461517 379.927461517 c 128,-1,145
 757.854923034 391 757.854923034 391 734 391 c 2,97,-1
EndSplineSet
Substitution2: "'ss01' Style Set 1 in Latin lookup 22 subtable" G.v
Substitution2: "'vert' Vertical Alternates in Latin lookup 21 subtable" G.v
EndChar

StartChar: H
Encoding: 72 72 43
Width: 859
GlyphClass: 2
Flags: W
LayerCount: 2
Fore
SplineSet
292 90 m 1,0,-1
 292 630 l 1,1,-1
 302 630 l 1,2,-1
 302 365 l 1,3,-1
 686 365 l 1,4,-1
 686 630 l 1,5,-1
 696 630 l 1,6,-1
 696 90 l 1,7,-1
 686 90 l 1,8,-1
 686 355 l 1,9,-1
 302 355 l 1,10,-1
 302 90 l 1,11,-1
 292 90 l 1,0,-1
375 0 m 2,12,13
 394 0 394 0 402.5 8.5 c 128,-1,14
 411 17 411 17 411 36 c 2,15,-1
 411 258 l 1,16,-1
 578 258 l 1,17,-1
 578 36 l 2,18,19
 578 17 578 17 586.5 8.5 c 128,-1,20
 595 0 595 0 614 0 c 2,21,-1
 769 0 l 2,22,23
 788 0 788 0 796.5 8.5 c 128,-1,24
 805 17 805 17 805 36 c 2,25,-1
 805 684 l 2,26,27
 805 703 805 703 796.5 711.5 c 128,-1,28
 788 720 788 720 769 720 c 2,29,-1
 614 720 l 2,30,31
 595 720 595 720 586.5 711.5 c 128,-1,32
 578 703 578 703 578 684 c 2,33,-1
 578 467 l 1,34,-1
 411 467 l 1,35,-1
 411 684 l 2,36,37
 411 703 411 703 402.5 711.5 c 128,-1,38
 394 720 394 720 375 720 c 2,39,-1
 220 720 l 2,40,41
 201 720 201 720 192.5 711.5 c 128,-1,42
 184 703 184 703 184 684 c 2,43,-1
 184 36 l 2,44,45
 184 17 184 17 192.5 8.5 c 128,-1,46
 201 0 201 0 220 0 c 2,47,-1
 375 0 l 2,12,13
485 -138.996078211 m 2,48,49
 452.856883929 -138.996078211 452.856883929 -138.996078211 435.930402859 -122.069597141 c 128,-1,50
 419.003921789 -105.143116071 419.003921789 -105.143116071 419.003921789 -73 c 2,51,-1
 419.003921789 -17.0303684192 l 1,52,-1
 290.33629321 -123.923475239 l 2,53,54
 283.237367895 -130.598191814 283.237367895 -130.598191814 271.340362167 -134.797135013 c 128,-1,55
 259.443356438 -138.996078211 259.443356438 -138.996078211 246 -138.996078211 c 2,56,-1
 91 -138.996078211 l 2,57,58
 58.856883929 -138.996078211 58.856883929 -138.996078211 41.9304028591 -122.069597141 c 128,-1,59
 25.0039217892 -105.143116071 25.0039217892 -105.143116071 25.0039217892 -73 c 2,60,-1
 25.0039217892 575 l 2,61,62
 25.0039217892 609.202520471 25.0039217892 609.202520471 46.1058165358 627.289858825 c 2,63,-1
 175.105816536 736.289858825 l 2,64,65
 192.218318473 749.996078211 192.218318473 749.996078211 220 749.996078211 c 2,66,-1
 375 749.996078211 l 2,67,68
 407.143116071 749.996078211 407.143116071 749.996078211 424.069597141 733.069597141 c 128,-1,69
 440.996078211 716.143116071 440.996078211 716.143116071 440.996078211 684 c 2,70,-1
 440.996078211 628.042095434 l 1,71,-1
 569.105816536 736.289858825 l 2,72,73
 586.218318473 749.996078211 586.218318473 749.996078211 614 749.996078211 c 2,74,-1
 769 749.996078211 l 2,75,76
 801.143116071 749.996078211 801.143116071 749.996078211 818.069597141 733.069597141 c 128,-1,77
 834.996078211 716.143116071 834.996078211 716.143116071 834.996078211 684 c 2,78,-1
 834.996078211 36 l 2,79,80
 834.996078211 1.79524943229 834.996078211 1.79524943229 814.003080782 -16.1987483638 c 0,81,82
 749.228802201 -70.0112259538 749.228802201 -70.0112259538 684.33629321 -123.923475239 c 0,83,84
 677.237367895 -130.598191814 677.237367895 -130.598191814 665.340362167 -134.797135013 c 128,-1,85
 653.443356438 -138.996078211 653.443356438 -138.996078211 640 -138.996078211 c 2,86,-1
 485 -138.996078211 l 2,48,49
485 -119 m 2,87,-1
 640 -119 l 2,88,89
 650 -119 650 -119 658.374548239 -116.044277092 c 128,-1,90
 666.749096478 -113.088554184 666.749096478 -113.088554184 670.77078988 -109.224633298 c 0,91,92
 801.912629471 -0.241590556887 801.912629471 -0.241590556887 803.049220487 0.895000458782 c 0,93,94
 815 12.8457799719 815 12.8457799719 815 36 c 2,95,-1
 815 684 l 2,96,97
 815 707.854923034 815 707.854923034 803.927461517 718.927461517 c 128,-1,98
 792.854923034 730 792.854923034 730 769 730 c 2,99,-1
 614 730 l 2,100,101
 593.332334207 730 593.332334207 730 581.892245485 720.908951611 c 0,102,103
 452.01911991 611.171194342 452.01911991 611.171194342 450.908218775 610.060293207 c 0,104,105
 443.443614592 602.595689025 443.443614592 602.595689025 440.718449007 591.249336275 c 0,106,107
 440.062752453 588.519313396 440.062752453 588.519313396 437.298162732 585.754723675 c 128,-1,108
 434.533573011 582.990133954 434.533573011 582.990133954 430.998039105 582.990133954 c 2,109,-1
 423.926971294 586.52566786 l 2,110,111
 421 589.452639154 421 589.452639154 421 593.596735672 c 2,112,-1
 421 684 l 2,113,114
 421 707.854923034 421 707.854923034 409.927461517 718.927461517 c 128,-1,115
 398.854923034 730 398.854923034 730 375 730 c 2,116,-1
 220 730 l 2,117,118
 199.332334207 730 199.332334207 730 187.892245485 720.908951611 c 0,119,120
 58.0604103244 611.206083142 58.0604103244 611.206083142 56.9899738197 610.135646638 c 0,121,122
 45 598.145672818 45 598.145672818 45 575 c 2,123,-1
 45 -73 l 2,124,125
 45 -96.8549230344 45 -96.8549230344 56.0725384828 -107.927461517 c 128,-1,126
 67.1450769656 -119 67.1450769656 -119 91 -119 c 2,127,-1
 246 -119 l 2,128,129
 256 -119 256 -119 264.374548239 -116.044277092 c 128,-1,130
 272.749096478 -113.088554184 272.749096478 -113.088554184 276.77078988 -109.224633298 c 0,131,132
 407.946756702 -0.213229775612 407.946756702 -0.213229775612 409.1229177 0.962931222421 c 0,133,134
 416.553884403 8.39389792566 416.553884403 8.39389792566 419.281550993 19.7506637249 c 0,135,136
 419.937247547 22.480686604 419.937247547 22.480686604 422.701837268 25.2452763249 c 128,-1,137
 425.466426989 28.0098660457 425.466426989 28.0098660457 429.001960895 28.0098660457 c 2,138,-1
 436.073028706 24.4743321398 l 2,139,140
 439 22 439 22 439 17.4032643279 c 2,141,-1
 439 -73 l 2,142,143
 439 -96.8549230344 439 -96.8549230344 450.072538483 -107.927461517 c 128,-1,144
 461.145076966 -119 461.145076966 -119 485 -119 c 2,87,-1
EndSplineSet
Substitution2: "'ss01' Style Set 1 in Latin lookup 22 subtable" H.v
Substitution2: "'vert' Vertical Alternates in Latin lookup 21 subtable" H.v
EndChar

StartChar: I
Encoding: 73 73 44
Width: 705
GlyphClass: 2
Flags: W
LayerCount: 2
Fore
SplineSet
204 0 m 2,0,-1
 630 0 l 2,1,2
 649 0 649 0 657.5 8.5 c 128,-1,3
 666 17 666 17 666 36 c 2,4,-1
 666 155 l 2,5,6
 666 174 666 174 657.5 182.5 c 128,-1,7
 649 191 649 191 630 191 c 2,8,-1
 533 191 l 1,9,-1
 533 527 l 1,10,-1
 630 527 l 2,11,12
 649 527 649 527 657.5 535.5 c 128,-1,13
 666 544 666 544 666 563 c 2,14,-1
 666 684 l 2,15,16
 666 703 666 703 657.5 711.5 c 128,-1,17
 649 720 649 720 630 720 c 2,18,-1
 204 720 l 2,19,20
 185 720 185 720 176.5 711.5 c 128,-1,21
 168 703 168 703 168 684 c 2,22,-1
 168 563 l 2,23,24
 168 544 168 544 176.5 535.5 c 128,-1,25
 185 527 185 527 204 527 c 2,26,-1
 303 527 l 1,27,-1
 303 191 l 1,28,-1
 204 191 l 2,29,30
 185 191 185 191 176.5 182.5 c 128,-1,31
 168 174 168 174 168 155 c 2,32,-1
 168 36 l 2,33,34
 168 17 168 17 176.5 8.5 c 128,-1,35
 185 0 185 0 204 0 c 2,0,-1
576 90 m 1,36,-1
 258 90 l 1,37,-1
 258 100 l 1,38,-1
 413 100 l 1,39,-1
 413 620 l 1,40,-1
 258 620 l 1,41,-1
 258 630 l 1,42,-1
 576 630 l 1,43,-1
 576 620 l 1,44,-1
 423 620 l 1,45,-1
 423 100 l 1,46,-1
 576 100 l 1,47,-1
 576 90 l 1,36,-1
630 221 m 2,48,49
 662 221 662 221 679 204 c 128,-1,50
 696 187 696 187 696 155 c 2,51,-1
 696 36 l 2,52,53
 696 2 696 2 675 -16 c 0,54,55
 610 -70 610 -70 545 -124 c 0,56,57
 538 -131 538 -131 526 -135 c 128,-1,58
 514 -139 514 -139 501 -139 c 2,59,-1
 75 -139 l 2,60,61
 43 -139 43 -139 26 -122 c 128,-1,62
 9 -105 9 -105 9 -73 c 2,63,-1
 9 46 l 2,64,65
 9 80 9 80 30 98 c 2,66,-1
 144 194 l 1,67,-1
 144 388 l 1,68,-1
 75 388 l 2,69,70
 43 388 43 388 26 405 c 128,-1,71
 9 422 9 422 9 454 c 2,72,-1
 9 575 l 2,73,74
 9 609 9 609 30 627 c 2,75,-1
 159 736 l 2,76,77
 176 750 176 750 204 750 c 2,78,-1
 630 750 l 2,79,80
 662 750 662 750 679 733 c 128,-1,81
 696 716 696 716 696 684 c 2,82,-1
 696 563 l 2,83,84
 696 529 696 529 675 511 c 2,85,-1
 563 417 l 1,86,-1
 563 221 l 1,87,-1
 630 221 l 2,48,49
630 201 m 2,88,-1
 553 201 l 2,89,90
 549 201 549 201 546 204 c 128,-1,91
 543 207 543 207 543 211 c 2,92,-1
 543 421 l 2,93,94
 543 426 543 426 547 429 c 0,95,96
 663 527 663 527 664 528 c 0,97,98
 676 540 676 540 676 563 c 2,99,-1
 676 684 l 2,100,101
 676 708 676 708 665 719 c 128,-1,102
 654 730 654 730 630 730 c 2,103,-1
 204 730 l 2,104,105
 183 730 183 730 172 721 c 0,106,107
 42 611 42 611 41 610 c 0,108,109
 29 598 29 598 29 575 c 2,110,-1
 29 454 l 2,111,112
 29 430 29 430 40 419 c 128,-1,113
 51 408 51 408 75 408 c 2,114,-1
 154 408 l 2,115,116
 158 408 158 408 161 405 c 128,-1,117
 164 402 164 402 164 398 c 2,118,-1
 164 190 l 2,119,120
 164 185 164 185 160 182 c 0,121,122
 42 82 42 82 41 81 c 0,123,124
 29 69 29 69 29 46 c 2,125,-1
 29 -73 l 2,126,127
 29 -97 29 -97 40 -108 c 128,-1,128
 51 -119 51 -119 75 -119 c 2,129,-1
 501 -119 l 2,130,131
 511 -119 511 -119 519.5 -116 c 128,-1,132
 528 -113 528 -113 532 -109 c 0,133,134
 663 0 663 0 664 1 c 0,135,136
 676 13 676 13 676 36 c 2,137,-1
 676 155 l 2,138,139
 676 179 676 179 665 190 c 128,-1,140
 654 201 654 201 630 201 c 2,88,-1
EndSplineSet
Validated: 9
Substitution2: "'ss01' Style Set 1 in Latin lookup 22 subtable" I.v
Substitution2: "'vert' Vertical Alternates in Latin lookup 21 subtable" I.v
Substitution2: "'ss04' Style Set 4 in Latin lookup 12 subtable" I.salt
EndChar

StartChar: J
Encoding: 74 74 45
Width: 788
GlyphClass: 2
Flags: W
LayerCount: 2
Fore
SplineSet
739 189 m 2,0,-1
 739 684 l 2,1,2
 739 703 739 703 730.5 711.5 c 128,-1,3
 722 720 722 720 703 720 c 2,4,-1
 546 720 l 2,5,6
 527 720 527 720 518.5 711.5 c 128,-1,7
 510 703 510 703 510 684 c 2,8,-1
 510 229 l 2,9,10
 510 209 510 209 498.5 195.5 c 128,-1,11
 487 182 487 182 444 182 c 0,12,13
 398 182 398 182 385.5 195.5 c 128,-1,14
 373 209 373 209 373 229 c 2,15,-1
 373 351 l 2,16,17
 373 370 373 370 364.5 378.5 c 128,-1,18
 356 387 356 387 337 387 c 2,19,-1
 192 387 l 2,20,21
 173 387 173 387 164.5 378.5 c 128,-1,22
 156 370 156 370 156 351 c 2,23,-1
 156 189 l 2,24,25
 156 143 156 143 168.5 105.5 c 128,-1,26
 181 68 181 68 213.5 41.5 c 128,-1,27
 246 15 246 15 302.5 0 c 128,-1,28
 359 -15 359 -15 446 -15 c 0,29,30
 534 -15 534 -15 591 0 c 128,-1,31
 648 15 648 15 680.5 41.5 c 128,-1,32
 713 68 713 68 726 105.5 c 128,-1,33
 739 143 739 143 739 189 c 2,0,-1
619 630 m 1,34,-1
 629 630 l 1,35,-1
 629 213 l 2,36,37
 629 154 629 154 591.5 116 c 128,-1,38
 554 78 554 78 448 78 c 0,39,40
 392 78 392 78 355.5 88 c 128,-1,41
 319 98 319 98 298 115.5 c 128,-1,42
 277 133 277 133 268.5 158 c 128,-1,43
 260 183 260 183 260 213 c 2,44,-1
 260 292 l 1,45,-1
 270 292 l 1,46,-1
 270 213 l 2,47,48
 270 156 270 156 307.5 122 c 128,-1,49
 345 88 345 88 448 88 c 0,50,51
 547 88 547 88 583 122.5 c 128,-1,52
 619 157 619 157 619 213 c 2,53,-1
 619 630 l 1,34,-1
703 749.996078211 m 2,54,55
 735.143116071 749.996078211 735.143116071 749.996078211 752.069597141 733.069597141 c 128,-1,56
 768.996078211 716.143116071 768.996078211 716.143116071 768.996078211 684 c 2,57,-1
 768.996078211 189 l 2,58,59
 768.996078211 75.7940537166 768.996078211 75.7940537166 700.894147098 19.710110447 c 2,60,-1
 571.699409307 -89.4523378447 l 2,61,62
 534.427487537 -120.146861655 534.427487537 -120.146861655 473.075782529 -137.071469933 c 128,-1,63
 411.724077521 -153.996078211 411.724077521 -153.996078211 317.151884158 -153.996078211 c 128,-1,64
 222.579690794 -153.996078211 222.579690794 -153.996078211 160.712585961 -132.316152586 c 0,65,66
 98.0121599085 -110.344208413 98.0121599085 -110.344208413 61.0857658794 -72.8667234289 c 128,-1,67
 24.1593718503 -35.3892384443 24.1593718503 -35.3892384443 10.5816468198 12.4043536633 c 128,-1,68
 -2.99607821081 60.197945771 -2.99607821081 60.197945771 -2.99607821081 110 c 2,69,-1
 -2.99607821081 242 l 2,70,71
 -2.99607821081 277.538769322 -2.99607821081 277.538769322 17.1642716497 294.339060873 c 2,72,-1
 147.16427165 403.339060873 l 2,73,74
 164.220480719 416.996078211 164.220480719 416.996078211 192 416.996078211 c 2,75,-1
 337 416.996078211 l 2,76,77
 344.370230135 416.996078211 344.370230135 416.996078211 351.003921789 416.063010314 c 1,78,-1
 351.003921789 575 l 2,79,80
 351.003921789 609.202520471 351.003921789 609.202520471 372.105816536 627.289858825 c 2,81,-1
 501.105816536 736.289858825 l 2,82,83
 518.218318473 749.996078211 518.218318473 749.996078211 546 749.996078211 c 2,84,-1
 703 749.996078211 l 2,54,55
703 730 m 2,85,-1
 546 730 l 2,86,87
 525.332334207 730 525.332334207 730 513.892245485 720.908951611 c 0,88,89
 384.060410324 611.206083142 384.060410324 611.206083142 382.98997382 610.135646638 c 0,90,91
 371 598.145672818 371 598.145672818 371 575 c 2,92,-1
 371 403.573402607 l 2,93,94
 371 399.429306088 371 399.429306088 368.073028706 396.502334795 c 128,-1,95
 365.058048406 393.487354494 365.058048406 393.487354494 362.36555046 393.487354494 c 128,-1,96
 359.673052514 393.487354494 359.673052514 393.487354494 354.289912824 395.243677247 c 128,-1,97
 348.906773135 397 348.906773135 397 337 397 c 2,98,-1
 192 397 l 2,99,100
 171.321413133 397 171.321413133 397 159.907048561 387.922063793 c 0,101,102
 28.932654785 278.105072089 28.932654785 278.105072089 28.0393432157 277.21176052 c 0,103,104
 17 266.172417304 17 266.172417304 17 242 c 2,105,-1
 17 110 l 2,106,107
 17 63 17 63 29.5 19 c 0,108,109
 42.200965739 -25.7073994013 42.200965739 -25.7073994013 75.9803675641 -59.4868216877 c 128,-1,110
 109.759769389 -93.266243974 109.759769389 -93.266243974 167.879884695 -113.633121987 c 128,-1,111
 226 -134 226 -134 317.5 -134 c 128,-1,112
 409 -134 409 -134 467 -118 c 128,-1,113
 525 -102 525 -102 559 -74 c 2,114,-1
 688.000036367 35.0000307282 l 2,115,116
 722.000000371 63.0000010845 722.000000371 63.0000010845 735.5 102.5 c 128,-1,117
 749 142 749 142 749 189 c 2,118,-1
 749 684 l 2,119,120
 749 707.854923034 749 707.854923034 737.927461517 718.927461517 c 128,-1,121
 726.854923034 730 726.854923034 730 703 730 c 2,85,-1
EndSplineSet
Substitution2: "'ss01' Style Set 1 in Latin lookup 22 subtable" J.v
Substitution2: "'vert' Vertical Alternates in Latin lookup 21 subtable" J.v
EndChar

StartChar: K
Encoding: 75 75 46
Width: 846
GlyphClass: 2
Flags: W
LayerCount: 2
Fore
SplineSet
303 90 m 1,0,-1
 293 90 l 1,1,-1
 293 630 l 1,2,-1
 303 630 l 1,3,-1
 303 364 l 1,4,-1
 520 364 l 1,5,-1
 635 630 l 1,6,-1
 646 630 l 1,7,-1
 531 364 l 1,8,-1
 572 364 l 2,9,10
 633 364 633 364 663 341 c 128,-1,11
 693 318 693 318 693 266 c 2,12,-1
 693 90 l 1,13,-1
 683 90 l 1,14,-1
 683 266 l 2,15,16
 683 314 683 314 655 334 c 128,-1,17
 627 354 627 354 572 354 c 2,18,-1
 303 354 l 1,19,-1
 303 90 l 1,0,-1
375 0 m 2,20,21
 394 0 394 0 402.5 8.5 c 128,-1,22
 411 17 411 17 411 36 c 2,23,-1
 411 265 l 1,24,-1
 543 265 l 2,25,26
 559 265 559 265 567 256 c 128,-1,27
 575 247 575 247 575 231 c 2,28,-1
 575 36 l 2,29,30
 575 17 575 17 583.5 8.5 c 128,-1,31
 592 0 592 0 611 0 c 2,32,-1
 765 0 l 2,33,34
 784 0 784 0 792.5 8.5 c 128,-1,35
 801 17 801 17 801 36 c 2,36,-1
 801 318 l 2,37,38
 801 378 801 378 767.5 414.5 c 128,-1,39
 734 451 734 451 678 454 c 1,40,-1
 780 687 l 2,41,42
 787 703 787 703 781 711.5 c 128,-1,43
 775 720 775 720 758 720 c 2,44,-1
 604 720 l 2,45,46
 585 720 585 720 573 712.5 c 128,-1,47
 561 705 561 705 554 687 c 2,48,-1
 451 454 l 1,49,-1
 411 454 l 1,50,-1
 411 684 l 2,51,52
 411 703 411 703 402.5 711.5 c 128,-1,53
 394 720 394 720 375 720 c 2,54,-1
 220 720 l 2,55,56
 201 720 201 720 192.5 711.5 c 128,-1,57
 184 703 184 703 184 684 c 2,58,-1
 184 36 l 2,59,60
 184 17 184 17 192.5 8.5 c 128,-1,61
 201 0 201 0 220 0 c 2,62,-1
 375 0 l 2,20,21
482 -138.996078211 m 2,63,64
 449.856883929 -138.996078211 449.856883929 -138.996078211 432.930402859 -122.069597141 c 128,-1,65
 416.003921789 -105.143116071 416.003921789 -105.143116071 416.003921789 -73 c 2,66,-1
 416.003921789 -19.5226761115 l 1,67,-1
 290.33629321 -123.923475239 l 2,68,69
 283.237367895 -130.598191814 283.237367895 -130.598191814 271.340362167 -134.797135013 c 128,-1,70
 259.443356438 -138.996078211 259.443356438 -138.996078211 246 -138.996078211 c 2,71,-1
 91 -138.996078211 l 2,72,73
 58.856883929 -138.996078211 58.856883929 -138.996078211 41.9304028591 -122.069597141 c 128,-1,74
 25.0039217892 -105.143116071 25.0039217892 -105.143116071 25.0039217892 -73 c 2,75,-1
 25.0039217892 575 l 2,76,77
 25.0039217892 609.202520471 25.0039217892 609.202520471 46.1058165358 627.289858825 c 2,78,-1
 175.105816536 736.289858825 l 2,79,80
 192.218318473 749.996078211 192.218318473 749.996078211 220 749.996078211 c 2,81,-1
 375 749.996078211 l 2,82,83
 407.143116071 749.996078211 407.143116071 749.996078211 424.069597141 733.069597141 c 128,-1,84
 440.996078211 716.143116071 440.996078211 716.143116071 440.996078211 684 c 2,85,-1
 440.996078211 641.09626528 l 1,86,-1
 549.997680844 733.197831592 l 2,87,88
 569.595635233 749.996078211 569.595635233 749.996078211 604 749.996078211 c 2,89,-1
 758 749.996078211 l 2,90,91
 793.951887438 749.996078211 793.951887438 749.996078211 807.855089882 728.272324392 c 0,92,93
 814.577300753 717.768869906 814.577300753 717.768869906 814.577300753 704.349066745 c 128,-1,94
 814.577300753 690.929263584 814.577300753 690.929263584 807.206145369 674.712721738 c 0,95,96
 764.172136247 576.091763873 764.172136247 576.091763873 721.199433728 477.608443701 c 1,97,98
 765.489868128 464.997470499 765.489868128 464.997470499 794.475260578 429.671523451 c 0,99,100
 830.996078211 385.16177696 830.996078211 385.16177696 830.996078211 318 c 2,101,-1
 830.996078211 36 l 2,102,103
 830.996078211 1.7952494323 830.996078211 1.7952494323 810.003080782 -16.1987483638 c 0,104,105
 745.228802202 -70.0112259538 745.228802202 -70.0112259538 680.33629321 -123.923475238 c 0,106,107
 673.237367895 -130.598191814 673.237367895 -130.598191814 661.340362167 -134.797135013 c 128,-1,108
 649.443356438 -138.996078211 649.443356438 -138.996078211 636 -138.996078211 c 2,109,-1
 482 -138.996078211 l 2,63,64
794.581222542 703.970290715 m 0,110,111
 794.581222542 730 794.581222542 730 758 730 c 2,112,-1
 604 730 l 2,113,114
 577 730 577 730 563 718 c 2,115,-1
 437.445119438 611.910983619 l 2,116,117
 434.099060672 609.083702176 434.099060672 609.083702176 430.713592321 609.083702176 c 128,-1,118
 427.32812397 609.083702176 427.32812397 609.083702176 424.164061985 612.041851088 c 128,-1,119
 421 615 421 615 421 619.555922664 c 2,120,-1
 421 684 l 2,121,122
 421 707.854923034 421 707.854923034 409.927461517 718.927461517 c 128,-1,123
 398.854923034 730 398.854923034 730 375 730 c 2,124,-1
 220 730 l 2,125,126
 199.332334207 730 199.332334207 730 187.892245485 720.908951611 c 0,127,128
 58.0604103244 611.206083142 58.0604103244 611.206083142 56.9899738197 610.135646638 c 0,129,130
 45 598.145672818 45 598.145672818 45 575 c 2,131,-1
 45 -73 l 2,132,133
 45 -96.8549230344 45 -96.8549230344 56.0725384828 -107.927461517 c 128,-1,134
 67.1450769656 -119 67.1450769656 -119 91 -119 c 2,135,-1
 246 -119 l 2,136,137
 256 -119 256 -119 264.374548239 -116.044277092 c 128,-1,138
 272.749096478 -113.088554184 272.749096478 -113.088554184 276.77078988 -109.224633298 c 0,139,140
 407.930122904 -0.227052974029 407.930122904 -0.227052974029 410.943015593 2.78583971513 c 128,-1,141
 413.955908282 5.79873240428 413.955908282 5.79873240428 415.773730467 9.9594468364 c 0,142,143
 419.721392337 18.9950356054 419.721392337 18.9950356054 426.001960895 18.9950356054 c 2,144,-1
 433.073028706 15.4595016994 l 2,145,146
 436 13 436 13 436 8.38843388757 c 2,147,-1
 436 -73 l 2,148,149
 436 -96.8549230344 436 -96.8549230344 447.072538483 -107.927461517 c 128,-1,150
 458.145076966 -119 458.145076966 -119 482 -119 c 2,151,-1
 636 -119 l 2,152,153
 646 -119 646 -119 654.374548239 -116.044277092 c 128,-1,154
 662.749096478 -113.088554184 662.749096478 -113.088554184 666.77078988 -109.224633298 c 0,155,156
 797.912629471 -0.241590556897 797.912629471 -0.241590556897 799.049220487 0.895000458777 c 0,157,158
 811 12.8457799719 811 12.8457799719 811 36 c 2,159,-1
 811 318 l 2,160,161
 811 385.914376469 811 385.914376469 770.280666054 426.633710415 c 0,162,163
 744.035626415 452.878750053 744.035626415 452.878750053 705.239706742 460.945954454 c 0,164,165
 702.32688469 461.551645234 702.32688469 461.551645234 699.731630114 464.14689981 c 128,-1,166
 697.136375538 466.742154386 697.136375538 466.742154386 697.136375538 469.610658651 c 128,-1,167
 697.136375538 472.479162916 697.136375538 472.479162916 698.122720313 474.739567385 c 2,168,-1
 788.938693398 682.862362306 l 2,169,170
 794.581222542 695.278689593 794.581222542 695.278689593 794.581222542 703.970290715 c 0,110,111
EndSplineSet
Substitution2: "'ss01' Style Set 1 in Latin lookup 22 subtable" K.v
Substitution2: "'vert' Vertical Alternates in Latin lookup 21 subtable" K.v
EndChar

StartChar: L
Encoding: 76 76 47
Width: 795
GlyphClass: 2
Flags: W
LayerCount: 2
Fore
SplineSet
729 0 m 2,0,1
 748 0 748 0 756.5 8.5 c 128,-1,2
 765 17 765 17 765 36 c 2,3,-1
 765 351 l 2,4,5
 765 370 765 370 756.5 378.5 c 128,-1,6
 748 387 748 387 729 387 c 2,7,-1
 584 387 l 2,8,9
 565 387 565 387 556.5 378.5 c 128,-1,10
 548 370 548 370 548 351 c 2,11,-1
 548 189 l 1,12,-1
 411 189 l 1,13,-1
 411 684 l 2,14,15
 411 703 411 703 402.5 711.5 c 128,-1,16
 394 720 394 720 375 720 c 2,17,-1
 220 720 l 2,18,19
 201 720 201 720 192.5 711.5 c 128,-1,20
 184 703 184 703 184 684 c 2,21,-1
 184 36 l 2,22,23
 184 17 184 17 192.5 8.5 c 128,-1,24
 201 0 201 0 220 0 c 2,25,-1
 729 0 l 2,0,1
293 90 m 1,26,-1
 293 630 l 1,27,-1
 303 630 l 1,28,-1
 303 100 l 1,29,-1
 651 100 l 1,30,-1
 651 297 l 1,31,-1
 661 297 l 1,32,-1
 661 90 l 1,33,-1
 293 90 l 1,26,-1
729 416.996078211 m 2,34,35
 761.143116071 416.996078211 761.143116071 416.996078211 778.069597141 400.069597141 c 128,-1,36
 794.996078211 383.143116071 794.996078211 383.143116071 794.996078211 351 c 2,37,-1
 794.996078211 36 l 2,38,39
 794.996078211 1.79524943229 794.996078211 1.79524943229 774.003080782 -16.1987483638 c 0,40,41
 709.228802202 -70.0112259538 709.228802202 -70.0112259538 644.33629321 -123.923475239 c 0,42,43
 637.237367895 -130.598191814 637.237367895 -130.598191814 625.340362167 -134.797135013 c 128,-1,44
 613.443356438 -138.996078211 613.443356438 -138.996078211 600 -138.996078211 c 2,45,-1
 91 -138.996078211 l 2,46,47
 58.856883929 -138.996078211 58.856883929 -138.996078211 41.9304028591 -122.069597141 c 128,-1,48
 25.0039217892 -105.143116071 25.0039217892 -105.143116071 25.0039217892 -73 c 2,49,-1
 25.0039217892 575 l 2,50,51
 25.0039217892 609.202520471 25.0039217892 609.202520471 46.1058165358 627.289858825 c 2,52,-1
 175.105816536 736.289858825 l 2,53,54
 192.218318473 749.996078211 192.218318473 749.996078211 220 749.996078211 c 2,55,-1
 375 749.996078211 l 2,56,57
 407.143116071 749.996078211 407.143116071 749.996078211 424.069597141 733.069597141 c 128,-1,58
 440.996078211 716.143116071 440.996078211 716.143116071 440.996078211 684 c 2,59,-1
 440.996078211 320.390932643 l 1,60,-1
 539.105816536 403.289858825 l 2,61,62
 556.218318473 416.996078211 556.218318473 416.996078211 584 416.996078211 c 2,63,-1
 729 416.996078211 l 2,34,35
729 397 m 2,64,-1
 584 397 l 2,65,66
 563.332334207 397 563.332334207 397 551.892245485 387.908951611 c 2,67,-1
 437.445130838 291.205575669 l 2,68,69
 434.099068157 288.378282397 434.099068157 288.378282397 430.713597162 288.378282397 c 128,-1,70
 427.328126166 288.378282397 427.328126166 288.378282397 424.164063083 291.689141198 c 128,-1,71
 421 295 421 295 421 298.850505081 c 2,72,-1
 421 684 l 2,73,74
 421 707.854923034 421 707.854923034 409.927461517 718.927461517 c 128,-1,75
 398.854923034 730 398.854923034 730 375 730 c 2,76,-1
 220 730 l 2,77,78
 199.332334207 730 199.332334207 730 187.892245485 720.908951611 c 0,79,80
 58.0604103244 611.206083142 58.0604103244 611.206083142 56.9899738197 610.135646638 c 0,81,82
 45 598.145672818 45 598.145672818 45 575 c 2,83,-1
 45 -73 l 2,84,85
 45 -96.8549230344 45 -96.8549230344 56.0725384828 -107.927461517 c 128,-1,86
 67.1450769656 -119 67.1450769656 -119 91 -119 c 2,87,-1
 600 -119 l 2,88,89
 610 -119 610 -119 618.374548239 -116.044277092 c 128,-1,90
 626.749096478 -113.088554184 626.749096478 -113.088554184 630.77078988 -109.224633298 c 0,91,92
 761.912629471 -0.241590556898 761.912629471 -0.241590556898 763.049220487 0.895000458777 c 0,93,94
 775 12.8457799719 775 12.8457799719 775 36 c 2,95,-1
 775 351 l 2,96,97
 775 374.854923034 775 374.854923034 763.927461517 385.927461517 c 128,-1,98
 752.854923034 397 752.854923034 397 729 397 c 2,64,-1
EndSplineSet
Substitution2: "Single Substitution lookup 26 subtable" Ldot
Substitution2: "'ss01' Style Set 1 in Latin lookup 22 subtable" L.v
Substitution2: "'vert' Vertical Alternates in Latin lookup 21 subtable" L.v
Substitution2: "'ss05' Style Set 5 in Latin lookup 13 subtable" L.salt
EndChar

StartChar: M
Encoding: 77 77 48
Width: 949
GlyphClass: 2
Flags: W
LayerCount: 2
Fore
SplineSet
536 385 m 256,0,1
 554 385 554 385 562 393 c 128,-1,2
 570 401 570 401 587 427 c 2,3,-1
 709 613 l 2,4,5
 715 623 715 623 722.5 626.5 c 128,-1,6
 730 630 730 630 738 630 c 2,7,-1
 755 630 l 2,8,9
 769 630 769 630 775.5 622.5 c 128,-1,10
 782 615 782 615 782 599 c 2,11,-1
 782 90 l 1,12,-1
 772 90 l 1,13,-1
 772 599 l 2,14,15
 772 607 772 607 768.5 613.5 c 128,-1,16
 765 620 765 620 755 620 c 2,17,-1
 740 620 l 2,18,19
 733 620 733 620 728 618 c 128,-1,20
 723 616 723 616 717 606 c 2,21,-1
 595 422 l 2,22,23
 577 395 577 395 567.5 385 c 128,-1,24
 558 375 558 375 536 375 c 256,25,26
 514 375 514 375 504.5 385 c 128,-1,27
 495 395 495 395 477 422 c 2,28,-1
 355 606 l 2,29,30
 349 616 349 616 343.5 618 c 128,-1,31
 338 620 338 620 331 620 c 2,32,-1
 316 620 l 2,33,34
 306 620 306 620 303 613.5 c 128,-1,35
 300 607 300 607 300 599 c 2,36,-1
 300 90 l 1,37,-1
 290 90 l 1,38,-1
 290 599 l 2,39,40
 290 615 290 615 296.5 622.5 c 128,-1,41
 303 630 303 630 316 630 c 2,42,-1
 333 630 l 2,43,44
 341 630 341 630 349 626.5 c 128,-1,45
 357 623 357 623 363 613 c 2,46,-1
 485 427 l 2,47,48
 502 401 502 401 510 393 c 128,-1,49
 518 385 518 385 536 385 c 256,0,1
369 0 m 2,50,51
 388 0 388 0 396.5 8.5 c 128,-1,52
 405 17 405 17 405 36 c 2,53,-1
 405 388 l 1,54,-1
 464 279 l 2,55,56
 473 262 473 262 485.5 254.5 c 128,-1,57
 498 247 498 247 517 247 c 2,58,-1
 557 247 l 2,59,60
 576 247 576 247 588.5 254.5 c 128,-1,61
 601 262 601 262 610 279 c 2,62,-1
 669 388 l 1,63,-1
 669 36 l 2,64,65
 669 17 669 17 677.5 8.5 c 128,-1,66
 686 0 686 0 705 0 c 2,67,-1
 859 0 l 2,68,69
 878 0 878 0 886.5 8.5 c 128,-1,70
 895 17 895 17 895 36 c 2,71,-1
 895 684 l 2,72,73
 895 703 895 703 886.5 711.5 c 128,-1,74
 878 720 878 720 859 720 c 2,75,-1
 697 720 l 2,76,77
 681 720 681 720 670.5 713 c 128,-1,78
 660 706 660 706 651 690 c 2,79,-1
 562 527 l 2,80,81
 557 518 557 518 553.5 514 c 128,-1,82
 550 510 550 510 544 510 c 2,83,-1
 535 510 l 2,84,85
 529 510 529 510 525.5 514 c 128,-1,86
 522 518 522 518 517 527 c 2,87,-1
 427 690 l 2,88,89
 418 706 418 706 407.5 713 c 128,-1,90
 397 720 397 720 381 720 c 2,91,-1
 220 720 l 2,92,93
 201 720 201 720 192.5 711.5 c 128,-1,94
 184 703 184 703 184 684 c 2,95,-1
 184 36 l 2,96,97
 184 17 184 17 192.5 8.5 c 128,-1,98
 201 0 201 0 220 0 c 2,99,-1
 369 0 l 2,50,51
576 -139 m 2,100,101
 510 -139 510 -139 510 -73 c 2,102,-1
 510 148 l 1,103,-1
 484 127 l 2,104,105
 464 110 464 110 435 108 c 1,106,-1
 435 36 l 2,107,108
 435 2 435 2 414 -16 c 0,109,110
 349 -70 349 -70 284 -124 c 0,111,112
 277 -131 277 -131 265 -135 c 128,-1,113
 253 -139 253 -139 240 -139 c 2,114,-1
 91 -139 l 2,115,116
 59 -139 59 -139 42 -122 c 128,-1,117
 25 -105 25 -105 25 -73 c 2,118,-1
 25 575 l 2,119,120
 25 609 25 609 46 627 c 2,121,-1
 175 736 l 2,122,123
 192 750 192 750 220 750 c 2,124,-1
 381 750 l 2,125,126
 414 750 414 750 435 729 c 0,127,128
 445 719 445 719 453 705 c 0,129,130
 479 658 479 658 505 610 c 1,131,132
 512 620 512 620 518 625 c 0,133,134
 647 734 647 734 648 734 c 0,135,136
 658 742 658 742 670 746 c 128,-1,137
 682 750 682 750 697 750 c 2,138,-1
 859 750 l 2,139,140
 891 750 891 750 908 733 c 128,-1,141
 925 716 925 716 925 684 c 2,142,-1
 925 36 l 2,143,144
 925 2 925 2 904 -16 c 0,145,146
 839 -70 839 -70 774 -124 c 0,147,148
 767 -131 767 -131 755 -135 c 128,-1,149
 743 -139 743 -139 730 -139 c 2,150,-1
 576 -139 l 2,100,101
859 730 m 2,151,-1
 697 730 l 2,152,153
 685 730 685 730 676.5 727 c 128,-1,154
 668 724 668 724 660 718 c 0,155,156
 529 609 529 609 528 607 c 0,157,158
 521 600 521 600 513 586 c 0,159,160
 512 585 512 585 511 584 c 0,161,162
 504 577 504 577 497 584 c 0,163,164
 496 585 496 585 495 586 c 2,165,-1
 436 695 l 2,166,167
 429 707 429 707 421 715 c 0,168,169
 406 730 406 730 381 730 c 2,170,-1
 220 730 l 2,171,172
 199 730 199 730 188 721 c 0,173,174
 58 611 58 611 57 610 c 0,175,176
 45 598 45 598 45 575 c 2,177,-1
 45 -73 l 2,178,179
 45 -97 45 -97 56 -108 c 128,-1,180
 67 -119 67 -119 91 -119 c 2,181,-1
 240 -119 l 2,182,183
 250 -119 250 -119 258.5 -116 c 128,-1,184
 267 -113 267 -113 271 -109 c 0,185,186
 402 0 402 0 403 1 c 0,187,188
 415 13 415 13 415 36 c 2,189,-1
 415 118 l 2,190,191
 415 122 415 122 418 125 c 128,-1,192
 421 128 421 128 425 128 c 2,193,-1
 428 128 l 2,194,195
 455 128 455 128 471 142 c 2,196,-1
 514 177 l 2,197,198
 521 183 521 183 527 177 c 0,199,200
 530 174 530 174 530 170 c 2,201,-1
 530 -73 l 2,202,203
 530 -98 530 -98 540.5 -108.5 c 128,-1,204
 551 -119 551 -119 576 -119 c 2,205,-1
 730 -119 l 2,206,207
 740 -119 740 -119 748.5 -116 c 128,-1,208
 757 -113 757 -113 761 -109 c 0,209,210
 892 0 892 0 893 1 c 0,211,212
 905 13 905 13 905 36 c 2,213,-1
 905 684 l 2,214,215
 905 708 905 708 894 719 c 128,-1,216
 883 730 883 730 859 730 c 2,151,-1
EndSplineSet
Validated: 9
Substitution2: "'ss01' Style Set 1 in Latin lookup 22 subtable" M.v
Substitution2: "'vert' Vertical Alternates in Latin lookup 21 subtable" M.v
Substitution2: "'ss02' Style Set 2 in Latin lookup 6 subtable" M.salt
EndChar

StartChar: N
Encoding: 78 78 49
Width: 853
GlyphClass: 2
Flags: W
LayerCount: 2
Fore
SplineSet
316 622 m 2,0,-1
 684 208 l 1,1,-1
 684 630 l 1,2,-1
 694 630 l 1,3,-1
 694 90 l 1,4,-1
 684 90 l 1,5,-1
 684 193 l 1,6,-1
 306 617 l 2,7,8
 305 618 305 618 303.5 619 c 128,-1,9
 302 620 302 620 301 620 c 256,10,11
 300 620 300 620 299.5 619 c 128,-1,12
 299 618 299 618 299 617 c 2,13,-1
 299 90 l 1,14,-1
 289 90 l 1,15,-1
 289 619 l 2,16,17
 289 625 289 625 293 628 c 128,-1,18
 297 631 297 631 301 631 c 256,19,20
 305 631 305 631 308 629 c 128,-1,21
 311 627 311 627 316 622 c 2,0,-1
370 0 m 2,22,23
 389 0 389 0 397.5 8.5 c 128,-1,24
 406 17 406 17 406 36 c 2,25,-1
 406 366 l 1,26,-1
 577 159 l 1,27,-1
 577 36 l 2,28,29
 577 17 577 17 585.5 8.5 c 128,-1,30
 594 0 594 0 613 0 c 2,31,-1
 763 0 l 2,32,33
 782 0 782 0 790.5 8.5 c 128,-1,34
 799 17 799 17 799 36 c 2,35,-1
 799 684 l 2,36,37
 799 703 799 703 790.5 711.5 c 128,-1,38
 782 720 782 720 763 720 c 2,39,-1
 613 720 l 2,40,41
 594 720 594 720 585.5 711.5 c 128,-1,42
 577 703 577 703 577 684 c 2,43,-1
 577 471 l 1,44,-1
 383 693 l 2,45,46
 370 708 370 708 356.5 714 c 128,-1,47
 343 720 343 720 324 720 c 2,48,-1
 220 720 l 2,49,50
 201 720 201 720 192.5 711.5 c 128,-1,51
 184 703 184 703 184 684 c 2,52,-1
 184 36 l 2,53,54
 184 17 184 17 192.5 8.5 c 128,-1,55
 201 0 201 0 220 0 c 2,56,-1
 370 0 l 2,22,23
484 -139 m 2,57,58
 452 -139 452 -139 435 -122 c 128,-1,59
 418 -105 418 -105 418 -73 c 2,60,-1
 418 -13 l 1,61,62
 416 -15 416 -15 285 -124 c 0,63,64
 278 -131 278 -131 266 -135 c 128,-1,65
 254 -139 254 -139 241 -139 c 2,66,-1
 91 -139 l 2,67,68
 59 -139 59 -139 42 -122 c 128,-1,69
 25 -105 25 -105 25 -73 c 2,70,-1
 25 575 l 2,71,72
 25 609 25 609 46 627 c 2,73,-1
 175 736 l 2,74,75
 192 750 192 750 220 750 c 2,76,-1
 324 750 l 2,77,78
 350 750 350 750 368 742 c 0,79,80
 388 732 388 732 406 714 c 2,81,82
 406 714 406 714 462 648 c 1,83,-1
 568 736 l 2,84,85
 585 750 585 750 613 750 c 2,86,-1
 763 750 l 2,87,88
 795 750 795 750 812 733 c 128,-1,89
 829 716 829 716 829 684 c 2,90,-1
 829 36 l 2,91,92
 829 2 829 2 808 -16 c 0,93,94
 743 -70 743 -70 678 -124 c 0,95,96
 671 -131 671 -131 659 -135 c 128,-1,97
 647 -139 647 -139 634 -139 c 2,98,-1
 484 -139 l 2,57,58
484 -119 m 2,99,-1
 634 -119 l 2,100,101
 644 -119 644 -119 652.5 -116 c 128,-1,102
 661 -113 661 -113 665 -109 c 0,103,104
 796 0 796 0 797 1 c 0,105,106
 809 13 809 13 809 36 c 2,107,-1
 809 684 l 2,108,109
 809 708 809 708 798 719 c 128,-1,110
 787 730 787 730 763 730 c 2,111,-1
 613 730 l 2,112,113
 592 730 592 730 581 721 c 2,114,-1
 468 626 l 2,115,116
 461 620 461 620 454 627 c 0,117,118
 390 701 390 701 388 703 c 0,119,120
 374 717 374 717 360 723.5 c 128,-1,121
 346 730 346 730 324 730 c 2,122,-1
 220 730 l 2,123,124
 199 730 199 730 188 721 c 0,125,126
 58 611 58 611 57 610 c 0,127,128
 45 598 45 598 45 575 c 2,129,-1
 45 -73 l 2,130,131
 45 -97 45 -97 56 -108 c 128,-1,132
 67 -119 67 -119 91 -119 c 2,133,-1
 241 -119 l 2,134,135
 251 -119 251 -119 259.5 -116 c 128,-1,136
 268 -113 268 -113 272 -109 c 0,137,138
 403 0 403 0 404 1 c 0,139,140
 416 13 416 13 416 36 c 2,141,-1
 416 45 l 2,142,143
 416 49 416 49 419 52 c 0,144,145
 427 60 427 60 434 51 c 2,146,-1
 436 49 l 2,147,148
 438 46 438 46 438 42 c 2,149,-1
 438 -73 l 2,150,151
 438 -97 438 -97 449 -108 c 128,-1,152
 460 -119 460 -119 484 -119 c 2,99,-1
EndSplineSet
Validated: 9
Substitution2: "'ss01' Style Set 1 in Latin lookup 22 subtable" N.v
Substitution2: "'vert' Vertical Alternates in Latin lookup 21 subtable" N.v
Substitution2: "'ss02' Style Set 2 in Latin lookup 7 subtable" N.salt
EndChar

StartChar: O
Encoding: 79 79 50
Width: 837
GlyphClass: 2
Flags: W
LayerCount: 2
Fore
SplineSet
794 189 m 2,0,-1
 794 530 l 2,1,2
 794 576 794 576 780.5 613.5 c 128,-1,3
 767 651 767 651 732.5 678 c 128,-1,4
 698 705 698 705 637.5 720 c 128,-1,5
 577 735 577 735 484 735 c 256,6,7
 391 735 391 735 330 720 c 128,-1,8
 269 705 269 705 234.5 678 c 128,-1,9
 200 651 200 651 186.5 613.5 c 128,-1,10
 173 576 173 576 173 530 c 2,11,-1
 173 189 l 2,12,13
 173 143 173 143 186.5 105.5 c 128,-1,14
 200 68 200 68 234.5 41.5 c 128,-1,15
 269 15 269 15 330 0 c 128,-1,16
 391 -15 391 -15 484 -15 c 256,17,18
 577 -15 577 -15 637.5 0 c 128,-1,19
 698 15 698 15 732.5 41.5 c 128,-1,20
 767 68 767 68 780.5 105.5 c 128,-1,21
 794 143 794 143 794 189 c 2,0,-1
685 212 m 2,22,23
 685 152 685 152 642 114.5 c 128,-1,24
 599 77 599 77 482 77 c 256,25,26
 365 77 365 77 323 114.5 c 128,-1,27
 281 152 281 152 281 212 c 2,28,-1
 281 507 l 2,29,30
 281 567 281 567 323 604.5 c 128,-1,31
 365 642 365 642 482 642 c 256,32,33
 599 642 599 642 642 604.5 c 128,-1,34
 685 567 685 567 685 507 c 2,35,-1
 685 212 l 2,22,23
291 212 m 2,36,37
 291 156 291 156 331 121.5 c 128,-1,38
 371 87 371 87 482 87 c 256,39,40
 593 87 593 87 634 121.5 c 128,-1,41
 675 156 675 156 675 212 c 2,42,-1
 675 507 l 2,43,44
 675 563 675 563 634 597.5 c 128,-1,45
 593 632 593 632 482 632 c 256,46,47
 371 632 371 632 331 597.5 c 128,-1,48
 291 563 291 563 291 507 c 2,49,-1
 291 212 l 2,36,37
400 225 m 2,50,-1
 400 494 l 2,51,52
 400 513 400 513 415 526.5 c 128,-1,53
 430 540 430 540 484 540 c 256,54,55
 538 540 538 540 553 526.5 c 128,-1,56
 568 513 568 513 568 494 c 2,57,-1
 568 225 l 2,58,59
 568 205 568 205 553 191.5 c 128,-1,60
 538 178 538 178 484 178 c 256,61,62
 430 178 430 178 415 191.5 c 128,-1,63
 400 205 400 205 400 225 c 2,50,-1
410 225 m 2,64,65
 410 215 410 215 414 207.5 c 128,-1,66
 418 200 418 200 429 195 c 1,67,-1
 429 385 l 2,68,69
 429 395 429 395 425 402.5 c 128,-1,70
 421 410 421 410 410 414 c 1,71,-1
 410 225 l 2,64,65
628 -86 m 2,72,73
 590 -119 590 -119 523.5 -136.5 c 128,-1,74
 457 -154 457 -154 355.5 -154 c 128,-1,75
 254 -154 254 -154 186.5 -132 c 128,-1,76
 119 -110 119 -110 81 -72 c 128,-1,77
 43 -34 43 -34 28.5 13 c 128,-1,78
 14 60 14 60 14 110 c 2,79,-1
 14 421 l 2,80,81
 14 523 14 523 68 577 c 0,82,83
 74 584 74 584 81 589 c 2,84,-1
 211 697 l 2,85,86
 250 730 250 730 315.5 747.5 c 128,-1,87
 381 765 381 765 483 765 c 128,-1,88
 585 765 585 765 650 748 c 0,89,90
 780 715 780 715 810 623 c 0,91,92
 824 580 824 580 824 530 c 2,93,-1
 824 189 l 2,94,95
 824 88 824 88 770 34 c 0,96,97
 764 27 764 27 757 22 c 2,98,-1
 628 -86 l 2,72,73
804 189 m 2,99,-1
 804 530 l 2,100,101
 804 577 804 577 791 616 c 0,102,103
 764 698 764 698 645 729 c 0,104,105
 582 745 582 745 483 745 c 128,-1,106
 384 745 384 745 321.5 728.5 c 128,-1,107
 259 712 259 712 224 682 c 2,108,-1
 94 574 l 2,109,110
 60 546 60 546 47 506.5 c 128,-1,111
 34 467 34 467 34 421 c 2,112,-1
 34 110 l 2,113,114
 34 63 34 63 47 20 c 0,115,116
 76 -75 76 -75 194 -113 c 0,117,118
 257 -134 257 -134 355.5 -134 c 128,-1,119
 454 -134 454 -134 517 -117.5 c 128,-1,120
 580 -101 580 -101 615 -71 c 2,121,-1
 744 37 l 2,122,123
 778 65 778 65 791 104 c 128,-1,124
 804 143 804 143 804 189 c 2,99,-1
EndSplineSet
Validated: 9
Substitution2: "'ss01' Style Set 1 in Latin lookup 22 subtable" O.v
Substitution2: "'vert' Vertical Alternates in Latin lookup 21 subtable" O.v
EndChar

StartChar: P
Encoding: 80 80 51
Width: 782
GlyphClass: 2
Flags: W
LayerCount: 2
Fore
SplineSet
375 0 m 2,0,1
 394 0 394 0 402.5 8.5 c 128,-1,2
 411 17 411 17 411 36 c 2,3,-1
 411 202 l 1,4,-1
 526 202 l 2,5,6
 662 202 662 202 712 256 c 128,-1,7
 762 310 762 310 762 397 c 2,8,-1
 762 525 l 2,9,10
 762 612 762 612 712 666 c 128,-1,11
 662 720 662 720 526 720 c 2,12,-1
 220 720 l 2,13,14
 201 720 201 720 192.5 711.5 c 128,-1,15
 184 703 184 703 184 684 c 2,16,-1
 184 36 l 2,17,18
 184 17 184 17 192.5 8.5 c 128,-1,19
 201 0 201 0 220 0 c 2,20,-1
 375 0 l 2,0,1
512 287 m 2,21,-1
 306 287 l 1,22,-1
 306 90 l 1,23,-1
 296 90 l 1,24,-1
 296 630 l 1,25,-1
 512 630 l 2,26,27
 559 630 559 630 588.5 619.5 c 128,-1,28
 618 609 618 609 634 591 c 128,-1,29
 650 573 650 573 656 548 c 128,-1,30
 662 523 662 523 662 494 c 2,31,-1
 662 420 l 2,32,33
 662 391 662 391 656 366.5 c 128,-1,34
 650 342 650 342 634 324.5 c 128,-1,35
 618 307 618 307 588.5 297 c 128,-1,36
 559 287 559 287 512 287 c 2,21,-1
306 297 m 1,37,-1
 512 297 l 2,38,39
 556 297 556 297 583.5 306 c 128,-1,40
 611 315 611 315 626 331.5 c 128,-1,41
 641 348 641 348 646.5 370.5 c 128,-1,42
 652 393 652 393 652 420 c 2,43,-1
 652 494 l 2,44,45
 652 521 652 521 646.5 544 c 128,-1,46
 641 567 641 567 626 584 c 128,-1,47
 611 601 611 601 583.5 610.5 c 128,-1,48
 556 620 556 620 512 620 c 2,49,-1
 306 620 l 1,50,-1
 306 297 l 1,37,-1
409 533 m 1,51,-1
 499 533 l 2,52,53
 528 533 528 533 537 518 c 128,-1,54
 546 503 546 503 546 484 c 2,55,-1
 546 431 l 2,56,57
 546 412 546 412 537 397 c 128,-1,58
 528 382 528 382 499 382 c 2,59,-1
 409 382 l 1,60,-1
 409 533 l 1,51,-1
91 -138.996078211 m 2,61,62
 58.856883929 -138.996078211 58.856883929 -138.996078211 41.9304028591 -122.069597141 c 128,-1,63
 25.0039217892 -105.143116071 25.0039217892 -105.143116071 25.0039217892 -73 c 2,64,-1
 25.0039217892 575 l 2,65,66
 25.0039217892 609.202520471 25.0039217892 609.202520471 46.1058165358 627.289858825 c 2,67,-1
 175.105816536 736.289858825 l 2,68,69
 192.218318473 749.996078211 192.218318473 749.996078211 220 749.996078211 c 2,70,-1
 526 749.996078211 l 2,71,72
 672.323811368 749.996078211 672.323811368 749.996078211 737.156681078 685.163953806 c 0,73,74
 767.109291521 655.211343363 767.109291521 655.211343363 779.552684866 614.094043614 c 128,-1,75
 791.996078211 572.976743866 791.996078211 572.976743866 791.996078211 525 c 2,76,-1
 791.996078211 397 l 2,77,78
 791.996078211 283.646448064 791.996078211 283.646448064 724.765851559 226.602619389 c 2,79,-1
 594.849612502 118.672591131 l 2,80,81
 539.632431705 72.2901592613 539.632431705 72.2901592613 440.996078211 65.0494716545 c 1,82,-1
 440.996078211 36 l 2,83,84
 440.996078211 1.7952494323 440.996078211 1.7952494323 420.003080782 -16.1987483638 c 0,85,86
 355.228802202 -70.0112259538 355.228802202 -70.0112259538 290.33629321 -123.923475239 c 0,87,88
 283.237367895 -130.598191814 283.237367895 -130.598191814 271.340362167 -134.797135013 c 128,-1,89
 259.443356438 -138.996078211 259.443356438 -138.996078211 246 -138.996078211 c 2,90,-1
 91 -138.996078211 l 2,61,62
91 -119 m 2,91,-1
 246 -119 l 2,92,93
 256 -119 256 -119 264.374548239 -116.044277092 c 128,-1,94
 272.749096478 -113.088554184 272.749096478 -113.088554184 276.77078988 -109.224633298 c 0,95,96
 407.912629471 -0.241590556896 407.912629471 -0.241590556896 409.049220487 0.895000458776 c 0,97,98
 421 12.8457799719 421 12.8457799719 421 36 c 2,99,-1
 421 74.4340307745 l 2,100,101
 421 78.5781272928 421 78.5781272928 423.817546854 81.3956741463 c 128,-1,102
 426.635093707 84.2132209998 426.635093707 84.2132209998 430.460306088 84.4177080749 c 0,103,104
 529.261160736 89.6993750183 529.261160736 89.6993750183 582 134 c 2,105,-1
 712.000006776 242.000005629 l 2,106,107
 772 292.909090789 772 292.909090789 772 397 c 2,108,-1
 772 525 l 2,109,110
 772 570 772 570 760.709090909 607.309090909 c 128,-1,111
 749.418181818 644.618181818 749.418181818 644.618181818 723.014545455 671.021818182 c 0,112,113
 664.035685628 730 664.035685628 730 526 730 c 2,114,-1
 220 730 l 2,115,116
 199.332334207 730 199.332334207 730 187.892245485 720.908951611 c 0,117,118
 58.0604103244 611.206083142 58.0604103244 611.206083142 56.9899738197 610.135646638 c 0,119,120
 45 598.145672818 45 598.145672818 45 575 c 2,121,-1
 45 -73 l 2,122,123
 45 -96.8549230344 45 -96.8549230344 56.0725384828 -107.927461517 c 128,-1,124
 67.1450769656 -119 67.1450769656 -119 91 -119 c 2,91,-1
EndSplineSet
Substitution2: "'ss01' Style Set 1 in Latin lookup 22 subtable" P.v
Substitution2: "'vert' Vertical Alternates in Latin lookup 21 subtable" P.v
EndChar

StartChar: Q
Encoding: 81 81 52
Width: 837
GlyphClass: 2
Flags: W
LayerCount: 2
Fore
SplineSet
560 -90 m 2,0,1
 579 -90 579 -90 587.5 -81.5 c 128,-1,2
 596 -73 596 -73 596 -54 c 2,3,-1
 596 1 l 1,4,5
 655 9 655 9 693.5 27 c 128,-1,6
 732 45 732 45 754 70 c 128,-1,7
 776 95 776 95 785 127.5 c 128,-1,8
 794 160 794 160 794 198 c 2,9,-1
 794 530 l 2,10,11
 794 576 794 576 780.5 613.5 c 128,-1,12
 767 651 767 651 732.5 678 c 128,-1,13
 698 705 698 705 637.5 720 c 128,-1,14
 577 735 577 735 484 735 c 256,15,16
 391 735 391 735 330 720 c 128,-1,17
 269 705 269 705 234.5 678 c 128,-1,18
 200 651 200 651 186.5 613.5 c 128,-1,19
 173 576 173 576 173 530 c 2,20,-1
 173 198 l 2,21,22
 173 123 173 123 213.5 70.5 c 128,-1,23
 254 18 254 18 370 1 c 1,24,-1
 370 -54 l 2,25,26
 370 -73 370 -73 378.5 -81.5 c 128,-1,27
 387 -90 387 -90 406 -90 c 2,28,-1
 560 -90 l 2,0,1
477 0 m 1,29,-1
 477 77 l 1,30,31
 363 78 363 78 322 115 c 128,-1,32
 281 152 281 152 281 212 c 2,33,-1
 281 507 l 2,34,35
 281 567 281 567 323 604.5 c 128,-1,36
 365 642 365 642 482 642 c 256,37,38
 599 642 599 642 642 604.5 c 128,-1,39
 685 567 685 567 685 507 c 2,40,-1
 685 212 l 2,41,42
 685 152 685 152 643 115 c 128,-1,43
 601 78 601 78 487 77 c 1,44,-1
 487 0 l 1,45,-1
 477 0 l 1,29,-1
291 212 m 2,46,47
 291 156 291 156 331 121.5 c 128,-1,48
 371 87 371 87 482 87 c 256,49,50
 593 87 593 87 634 121.5 c 128,-1,51
 675 156 675 156 675 212 c 2,52,-1
 675 507 l 2,53,54
 675 563 675 563 634 597.5 c 128,-1,55
 593 632 593 632 482 632 c 256,56,57
 371 632 371 632 331 597.5 c 128,-1,58
 291 563 291 563 291 507 c 2,59,-1
 291 212 l 2,46,47
400 220 m 2,60,-1
 400 493 l 2,61,62
 400 512 400 512 415 525.5 c 128,-1,63
 430 539 430 539 484 539 c 256,64,65
 538 539 538 539 553 525.5 c 128,-1,66
 568 512 568 512 568 493 c 2,67,-1
 568 220 l 2,68,69
 568 200 568 200 553 186.5 c 128,-1,70
 538 173 538 173 484 173 c 256,71,72
 430 173 430 173 415 186.5 c 128,-1,73
 400 200 400 200 400 220 c 2,60,-1
410 220 m 2,74,75
 410 210 410 210 414 202.5 c 128,-1,76
 418 195 418 195 429 190 c 1,77,-1
 429 384 l 2,78,79
 429 394 429 394 425 401.5 c 128,-1,80
 421 409 421 409 410 413 c 1,81,-1
 410 220 l 2,74,75
277 -228.996078211 m 2,82,83
 244.856883929 -228.996078211 244.856883929 -228.996078211 227.930402859 -212.069597141 c 128,-1,84
 211.003921789 -195.143116071 211.003921789 -195.143116071 211.003921789 -163 c 2,85,-1
 211.003921789 -133.501348243 l 1,86,87
 160.097958789 -122.560404077 160.097958789 -122.560404077 124.08605656 -100.579113106 c 0,88,89
 44.7460203669 -52.1507793262 44.7460203669 -52.1507793262 23.5445128824 37.3666967193 c 0,90,91
 14.0039217892 77.6491924462 14.0039217892 77.6491924462 14.0039217892 119 c 2,92,-1
 14.0039217892 421 l 2,93,94
 14.0039217892 523.403493349 14.0039217892 523.403493349 67.9753807141 577.374952274 c 0,95,96
 74.2282249512 583.627796511 74.2282249512 583.627796511 81.2341416651 589.397374981 c 2,97,-1
 211.175624216 697.348760485 l 2,98,99
 249.517319143 730.182008938 249.517319143 730.182008938 315.453056402 747.589043574 c 128,-1,100
 381.388793661 764.996078211 381.388793661 764.996078211 482.980893675 764.996078211 c 128,-1,101
 584.534781037 764.996078211 584.534781037 764.996078211 649.913891194 748.259026011 c 0,102,103
 779.62161631 715.053848381 779.62161631 715.053848381 809.992006032 622.774587301 c 0,104,105
 823.996078211 580.223752604 823.996078211 580.223752604 823.996078211 530 c 2,106,-1
 823.996078211 198 l 2,107,108
 823.996078211 96.5762113465 823.996078211 96.5762113465 770.208635753 42.7887688887 c 0,109,110
 763.88981073 36.4699438654 763.88981073 36.4699438654 756.818446981 30.6464678372 c 2,111,-1
 621.455349795 -82.5027056393 l 1,112,113
 617.339070156 -93.9452010913 617.339070156 -93.9452010913 606.142135624 -105.142135624 c 0,114,115
 605.812515485 -105.471755762 605.812515485 -105.471755762 475.337299679 -213.922528877 c 0,116,117
 468.238222851 -220.597890065 468.238222851 -220.597890065 456.340789644 -224.796984138 c 128,-1,118
 444.443356438 -228.996078211 444.443356438 -228.996078211 431 -228.996078211 c 2,119,-1
 277 -228.996078211 l 2,82,83
277 -209 m 2,120,-1
 431 -209 l 2,121,122
 441 -209 441 -209 449.374548239 -206.044277092 c 128,-1,123
 457.749096478 -203.088554184 457.749096478 -203.088554184 461.77078988 -199.224633298 c 2,124,-1
 592.318172897 -90.6798947885 l 2,125,126
 601.031196085 -81.8603678805 601.031196085 -81.8603678805 603.170857953 -74.0410437666 c 0,127,128
 603.995820184 -71.0262463497 603.995820184 -71.0262463497 606.406947448 -69.0131754195 c 2,129,-1
 744.005958268 46.0049843974 l 2,130,131
 778.000035649 74.0001069459 778.000035649 74.0001069459 791 113 c 128,-1,132
 804 152 804 152 804 198 c 2,133,-1
 804 530 l 2,134,135
 804 577 804 577 791 616.5 c 0,136,137
 764.046887095 698.395996904 764.046887095 698.395996904 644.929669189 728.890004688 c 0,138,139
 582 745 582 745 482.980893675 745 c 128,-1,140
 384 745 384 745 321.525405659 728.506183144 c 128,-1,141
 259.050811318 712.012366288 259.050811318 712.012366288 224.056690815 682.047096985 c 2,142,-1
 94 574 l 2,143,144
 60 546 60 546 47 506.5 c 128,-1,145
 34 467 34 467 34 421 c 2,146,-1
 34 119 l 2,147,148
 34 80 34 80 43 42 c 0,149,150
 62.2836596085 -39.4198961247 62.2836596085 -39.4198961247 134.5 -83.5 c 0,151,152
 170.280492492 -105.340040872 170.280492492 -105.340040872 222.912416492 -115.521548194 c 0,153,154
 225.908609826 -116.101153918 225.908609826 -116.101153918 228.454304913 -118.646849004 c 128,-1,155
 231 -121.192544091 231 -121.192544091 231 -125.33664061 c 2,156,-1
 231 -163 l 2,157,158
 231 -186.854923034 231 -186.854923034 242.072538483 -197.927461517 c 128,-1,159
 253.145076966 -209 253.145076966 -209 277 -209 c 2,120,-1
EndSplineSet
Substitution2: "'ss01' Style Set 1 in Latin lookup 22 subtable" Q.v
Substitution2: "'vert' Vertical Alternates in Latin lookup 21 subtable" Q.v
EndChar

StartChar: R
Encoding: 82 82 53
Width: 843
GlyphClass: 2
Flags: W
LayerCount: 2
Fore
SplineSet
520 620 m 2,0,-1
 302 620 l 1,1,-1
 302 331 l 1,2,-1
 520 331 l 2,3,4
 582 331 582 331 603 361 c 128,-1,5
 624 391 624 391 624 446 c 2,6,-1
 624 516 l 2,7,8
 624 562 624 562 598.5 591 c 128,-1,9
 573 620 573 620 520 620 c 2,0,-1
410 540 m 1,10,-1
 485 540 l 2,11,12
 511 540 511 540 520 526.5 c 128,-1,13
 529 513 529 513 529 493 c 2,14,-1
 529 459 l 2,15,16
 529 439 529 439 520 425.5 c 128,-1,17
 511 412 511 412 485 412 c 2,18,-1
 410 412 l 1,19,-1
 410 540 l 1,10,-1
302 90 m 1,20,-1
 292 90 l 1,21,-1
 292 630 l 1,22,-1
 520 630 l 2,23,24
 578 630 578 630 606 597.5 c 128,-1,25
 634 565 634 565 634 516 c 2,26,-1
 634 447 l 2,27,28
 634 401 634 401 622 371.5 c 128,-1,29
 610 342 610 342 574 331 c 1,30,-1
 585 331 l 2,31,32
 646 331 646 331 676 303.5 c 128,-1,33
 706 276 706 276 706 224 c 2,34,-1
 706 90 l 1,35,-1
 696 90 l 1,36,-1
 696 224 l 2,37,38
 696 273 696 273 669 297.5 c 128,-1,39
 642 322 642 322 585 322 c 2,40,-1
 302 322 l 1,41,-1
 302 90 l 1,20,-1
374 0 m 2,42,43
 393 0 393 0 401.5 8.5 c 128,-1,44
 410 17 410 17 410 36 c 2,45,-1
 410 232 l 1,46,-1
 550 232 l 2,47,48
 571 232 571 232 579.5 221.5 c 128,-1,49
 588 211 588 211 588 189 c 2,50,-1
 588 36 l 2,51,52
 588 17 588 17 596.5 8.5 c 128,-1,53
 605 0 605 0 624 0 c 2,54,-1
 779 0 l 2,55,56
 798 0 798 0 806.5 8.5 c 128,-1,57
 815 17 815 17 815 36 c 2,58,-1
 815 248 l 2,59,60
 815 311 815 311 781.5 349 c 128,-1,61
 748 387 748 387 694 393 c 1,62,63
 725 406 725 406 737.5 435.5 c 128,-1,64
 750 465 750 465 750 507 c 2,65,-1
 750 553 l 2,66,67
 750 627 750 627 707.5 673.5 c 128,-1,68
 665 720 665 720 553 720 c 2,69,-1
 220 720 l 2,70,71
 201 720 201 720 192.5 711.5 c 128,-1,72
 184 703 184 703 184 684 c 2,73,-1
 184 36 l 2,74,75
 184 17 184 17 192.5 8.5 c 128,-1,76
 201 0 201 0 220 0 c 2,77,-1
 374 0 l 2,42,43
495 -138.996078211 m 2,78,79
 462.856883929 -138.996078211 462.856883929 -138.996078211 445.930402859 -122.069597141 c 128,-1,80
 429.003921789 -105.143116071 429.003921789 -105.143116071 429.003921789 -73 c 2,81,-1
 429.003921789 -4.99100951277 l 1,82,83
 424.783161588 -11.2443933875 424.783161588 -11.2443933875 419.003080782 -16.1987483638 c 0,84,85
 354.228802202 -70.0112259538 354.228802202 -70.0112259538 289.33629321 -123.923475239 c 0,86,87
 282.237367895 -130.598191814 282.237367895 -130.598191814 270.340362167 -134.797135013 c 128,-1,88
 258.443356438 -138.996078211 258.443356438 -138.996078211 245 -138.996078211 c 2,89,-1
 91 -138.996078211 l 2,90,91
 58.856883929 -138.996078211 58.856883929 -138.996078211 41.9304028591 -122.069597141 c 128,-1,92
 25.0039217892 -105.143116071 25.0039217892 -105.143116071 25.0039217892 -73 c 2,93,-1
 25.0039217892 575 l 2,94,95
 25.0039217892 609.202520471 25.0039217892 609.202520471 46.1058165358 627.289858825 c 2,96,-1
 175.105816536 736.289858825 l 2,97,98
 192.218318473 749.996078211 192.218318473 749.996078211 220 749.996078211 c 2,99,-1
 553 749.996078211 l 2,100,101
 680.978764122 749.996078211 680.978764122 749.996078211 730.487421166 694.302698134 c 128,-1,102
 779.996078211 638.609318057 779.996078211 638.609318057 779.996078211 553 c 2,103,-1
 779.996078211 507 l 2,104,105
 779.996078211 443.328687335 779.996078211 443.328687335 755.637564081 406.178592289 c 1,106,107
 789.515168849 389.459626797 789.515168849 389.459626797 812.661215853 357.786088791 c 0,108,109
 844.996078211 313.538382407 844.996078211 313.538382407 844.996078211 248 c 2,110,-1
 844.996078211 36 l 2,111,112
 844.996078211 1.7952494323 844.996078211 1.7952494323 824.003080782 -16.1987483638 c 0,113,114
 759.228802202 -70.0112259538 759.228802202 -70.0112259538 694.33629321 -123.923475239 c 0,115,116
 687.237367895 -130.598191814 687.237367895 -130.598191814 675.340362167 -134.797135013 c 128,-1,117
 663.443356438 -138.996078211 663.443356438 -138.996078211 650 -138.996078211 c 2,118,-1
 495 -138.996078211 l 2,78,79
495 -119 m 2,119,-1
 650 -119 l 2,120,121
 660 -119 660 -119 668.374548239 -116.044277092 c 128,-1,122
 676.749096478 -113.088554184 676.749096478 -113.088554184 680.77078988 -109.224633298 c 0,123,124
 811.912629471 -0.2415905569 811.912629471 -0.2415905569 813.049220487 0.895000458775 c 0,125,126
 825 12.8457799719 825 12.8457799719 825 36 c 2,127,-1
 825 248 l 2,128,129
 825 319.987528744 825 319.987528744 781.986216574 363.00131217 c 0,130,131
 762.508977686 382.478551058 762.508977686 382.478551058 736.467759494 392.821864273 c 0,132,133
 734.55953857 393.579790671 734.55953857 393.579790671 732.128120691 396.011208549 c 128,-1,134
 729.696702813 398.442626428 729.696702813 398.442626428 729.696702813 401.82663301 c 128,-1,135
 729.696702813 405.210639591 729.696702813 405.210639591 732.51744963 408.554531754 c 0,136,137
 760 441.134089852 760 441.134089852 760 507 c 2,138,-1
 760 553 l 2,139,140
 760 630.999890206 760 630.999890206 715.764086295 680.763364632 c 0,141,142
 671.996492123 730 671.996492123 730 553 730 c 2,143,-1
 220 730 l 2,144,145
 199.332334207 730 199.332334207 730 187.892245485 720.908951611 c 0,146,147
 58.0604103244 611.206083142 58.0604103244 611.206083142 56.9899738197 610.135646638 c 0,148,149
 45 598.145672818 45 598.145672818 45 575 c 2,150,-1
 45 -73 l 2,151,152
 45 -96.8549230344 45 -96.8549230344 56.0725384828 -107.927461517 c 128,-1,153
 67.1450769656 -119 67.1450769656 -119 91 -119 c 2,154,-1
 245 -119 l 2,155,156
 255 -119 255 -119 263.374548239 -116.044277092 c 128,-1,157
 271.749096478 -113.088554184 271.749096478 -113.088554184 275.77078988 -109.224633298 c 0,158,159
 406.912629471 -0.241590556896 406.912629471 -0.241590556896 408.049220487 0.895000458776 c 0,160,161
 420 12.8457799719 420 12.8457799719 420 36 c 2,162,-1
 420 101.892995121 l 2,163,164
 420 106.03709164 420 106.03709164 422.926971294 108.964062933 c 128,-1,165
 425.937719528 111.974811168 425.937719528 111.974811168 428.616377774 111.974811168 c 0,166,167
 435.86302667 111.974811168 435.86302667 111.974811168 441.195763331 106.642074507 c 0,168,169
 449 98.8378378378 449 98.8378378378 449 80 c 2,170,-1
 449 -73 l 2,171,172
 449 -96.8549230344 449 -96.8549230344 460.072538483 -107.927461517 c 128,-1,173
 471.145076966 -119 471.145076966 -119 495 -119 c 2,119,-1
EndSplineSet
Substitution2: "'ss01' Style Set 1 in Latin lookup 22 subtable" R.v
Substitution2: "'vert' Vertical Alternates in Latin lookup 21 subtable" R.v
EndChar

